<svg xmlns="http://www.w3.org/2000/svg" xmlns:xlink="http://www.w3.org/1999/xlink" width="1080" zoomAndPan="magnify" viewBox="0 0 810 809.999993" height="1080" preserveAspectRatio="xMidYMid meet" version="1.2"><defs><clipPath id="30f9947766"><path d="M 22.59375 22.59375 L 787.40625 22.59375 L 787.40625 787.40625 L 22.59375 787.40625 Z M 22.59375 22.59375 "/></clipPath><clipPath id="7b9f1809f4"><path d="M 405 22.59375 C 193.804688 22.59375 22.59375 193.804688 22.59375 405 C 22.59375 616.195312 193.804688 787.40625 405 787.40625 C 616.195312 787.40625 787.40625 616.195312 787.40625 405 C 787.40625 193.804688 616.195312 22.59375 405 22.59375 Z M 405 22.59375 "/></clipPath><clipPath id="128cc0b224"><path d="M 22.59375 22.59375 L 787.394531 22.59375 L 787.394531 787.394531 L 22.59375 787.394531 Z M 22.59375 22.59375 "/></clipPath><clipPath id="22866c776f"><path d="M 404.996094 22.59375 C 193.800781 22.59375 22.59375 193.800781 22.59375 404.996094 C 22.59375 616.1875 193.800781 787.394531 404.996094 787.394531 C 616.1875 787.394531 787.394531 616.1875 787.394531 404.996094 C 787.394531 193.800781 616.1875 22.59375 404.996094 22.59375 Z M 404.996094 22.59375 "/></clipPath><clipPath id="269fc22cf0"><path d="M 396 671 L 480 671 L 480 729.179688 L 396 729.179688 Z M 396 671 "/></clipPath><clipPath id="d68d2bb181"><path d="M 434 666 L 549 666 L 549 729.179688 L 434 729.179688 Z M 434 666 "/></clipPath><clipPath id="bdb8f9124a"><path d="M 372 587 L 539 587 L 539 729.179688 L 372 729.179688 Z M 372 587 "/></clipPath><clipPath id="314b010c36"><path d="M 521 174 L 623.191406 174 L 623.191406 295 L 521 295 Z M 521 174 "/></clipPath><clipPath id="7c6acad95c"><path d="M 479 141 L 623.191406 141 L 623.191406 306 L 479 306 Z M 479 141 "/></clipPath><clipPath id="9715ecd63f"><path d="M 557 170 L 623.191406 170 L 623.191406 250 L 557 250 Z M 557 170 "/></clipPath><clipPath id="ba8b88751e"><path d="M 509 111.179688 L 623.191406 111.179688 L 623.191406 221 L 509 221 Z M 509 111.179688 "/></clipPath><clipPath id="60dc6fd5e7"><path d="M 92.191406 367 L 254 367 L 254 483 L 92.191406 483 Z M 92.191406 367 "/></clipPath><clipPath id="38aea87b4a"><path d="M 92.191406 170 L 315 170 L 315 465 L 92.191406 465 Z M 92.191406 170 "/></clipPath></defs><g id="a240071418"><g clip-rule="nonzero" clip-path="url(#30f9947766)"><g clip-rule="nonzero" clip-path="url(#7b9f1809f4)"><path style=" stroke:none;fill-rule:nonzero;fill:#f5f8fa;fill-opacity:1;" d="M 22.59375 22.59375 L 787.40625 22.59375 L 787.40625 787.40625 L 22.59375 787.40625 Z M 22.59375 22.59375 "/></g></g><g clip-rule="nonzero" clip-path="url(#128cc0b224)"><g clip-rule="nonzero" clip-path="url(#22866c776f)"><path style="fill:none;stroke-width:60;stroke-linecap:butt;stroke-linejoin:miter;stroke:#000000;stroke-opacity:1;stroke-miterlimit:4;" d="M 509.869292 -0.000547711 C 228.275527 -0.000547711 -0.000525711 228.275505 -0.000525711 509.86927 C -0.000525711 791.457825 228.275527 1019.733879 509.869292 1019.733879 C 791.457847 1019.733879 1019.733901 791.457825 1019.733901 509.86927 C 1019.733901 228.275505 791.457847 -0.000547711 509.869292 -0.000547711 Z M 509.869292 -0.000547711 " transform="matrix(0.75,0,0,0.75,22.594144,22.594161)"/></g></g><path style=" stroke:none;fill-rule:evenodd;fill:#ebdf44;fill-opacity:1;" d="M 446.867188 695.847656 C 446.867188 695.847656 426.851562 700.636719 424.828125 703.894531 C 422.808594 707.152344 420.457031 712.128906 420.457031 712.128906 C 420.457031 712.128906 430.4375 710.03125 431.292969 707.097656 C 432.144531 704.160156 455.871094 707.996094 455.871094 707.996094 "/><g clip-rule="nonzero" clip-path="url(#269fc22cf0)"><path style="fill:none;stroke-width:3;stroke-linecap:butt;stroke-linejoin:miter;stroke:#000000;stroke-opacity:1;stroke-miterlimit:4;" d="M 168.300782 524.0684 C 168.300782 524.0684 156.576675 532.829046 156.171748 535.524428 C 155.769373 538.21871 155.633685 542.12792 155.633685 542.12792 C 155.633685 542.12792 161.561399 537.948999 161.294784 535.794033 C 161.024518 533.637617 177.598495 529.45963 177.598495 529.45963 " transform="matrix(1.291215,0.557227,-0.556726,1.292377,521.317369,-75.227803)"/></g><path style="fill-rule:evenodd;fill:#ebdf44;fill-opacity:1;stroke-width:3;stroke-linecap:butt;stroke-linejoin:miter;stroke:#000000;stroke-opacity:1;stroke-miterlimit:4;" d="M 272.489133 519.06121 C 272.489133 519.06121 291.71741 511.620884 297.308834 511.102812 C 302.898176 510.58807 310.13342 512.530112 310.13342 512.530112 C 310.13342 512.530112 299.885462 513.626407 297.308549 515.022786 C 294.73101 516.416462 290.77769 521.552489 290.77769 521.552489 " transform="matrix(1.369973,0.317072,-0.316787,1.371205,138.183731,-142.642137)"/><path style=" stroke:none;fill-rule:evenodd;fill:#ebdf44;fill-opacity:1;" d="M 371.175781 677.71875 C 368.75 675.472656 416.367188 669.359375 417.292969 666.597656 C 418.21875 663.835938 352.542969 657.058594 352.542969 657.058594 "/><path style="fill:none;stroke-width:3;stroke-linecap:butt;stroke-linejoin:miter;stroke:#000000;stroke-opacity:1;stroke-miterlimit:4;" d="M 292.759805 530.58056 C 287.617309 530.339606 316.810611 518.532499 322.933814 515.492796 C 329.057018 512.453092 276.660658 520.688985 276.660658 520.688985 " transform="matrix(1.369973,0.317072,-0.316787,1.371205,138.183731,-142.642137)"/><path style="fill-rule:evenodd;fill:#ebdf44;fill-opacity:1;stroke-width:3;stroke-linecap:butt;stroke-linejoin:miter;stroke:#000000;stroke-opacity:1;stroke-miterlimit:4;" d="M 232.408582 463.069633 C 236.18073 471.367569 268.094312 531.449743 274.654118 531.716211 C 281.213924 531.982679 301.883882 534.772226 303.695832 535.111011 C 305.921519 535.525052 316.142627 540.391745 316.142627 540.391745 C 316.142627 540.391745 308.223136 530.582939 305.582999 530.583796 C 302.942863 530.584653 283.329248 523.041237 281.819357 520.778055 C 265.688065 502.091212 250.698701 471.067225 246.36489 458.92228 " transform="matrix(1.369973,0.317072,-0.316787,1.371205,138.183731,-142.642137)"/><path style=" stroke:none;fill-rule:evenodd;fill:#7f0000;fill-opacity:1;" d="M 230.925781 491.699219 C 230.925781 491.699219 238.953125 544.167969 260.679688 549.367188 C 282.402344 554.566406 306.488281 580.09375 311.210938 581.039062 C 315.933594 581.984375 333.410156 589.546875 336.242188 589.546875 C 339.074219 589.546875 396.21875 556.457031 396.21875 556.457031 "/><path style="fill-rule:evenodd;fill:#7f0000;fill-opacity:1;stroke-width:3;stroke-linecap:butt;stroke-linejoin:miter;stroke:#000000;stroke-opacity:1;stroke-miterlimit:4;" d="M 155.310457 346.359921 C 155.310457 346.359921 161.019308 383.640883 176.470711 387.335118 C 191.919336 391.029352 209.048669 409.167462 212.407307 409.839141 C 215.765946 410.51082 228.194852 415.884252 230.208924 415.884252 C 232.222995 415.884252 272.862796 392.37271 272.862796 392.37271 " transform="matrix(1.406122,0,0,1.407387,12.540281,4.236685)"/><path style=" stroke:none;fill-rule:evenodd;fill:#7f0000;fill-opacity:1;" d="M 454.257812 276.902344 C 404.765625 318.453125 399.976562 306.734375 396.25 307.800781 C 392.527344 308.863281 357.402344 335.496094 341.96875 335.496094 C 326.535156 335.496094 291.945312 329.105469 272.785156 333.898438 C 253.628906 338.695312 159.429688 372.25 159.429688 372.25 C 159.429688 372.25 165.816406 473.457031 197.746094 494.230469 C 229.679688 515.003906 286.621094 526.191406 286.621094 526.191406 C 286.621094 526.191406 503.753906 540.039062 532.496094 477.183594 C 561.234375 414.332031 555.914062 364.261719 555.914062 364.261719 L 502.695312 275.839844 "/><path style="fill-rule:evenodd;fill:#7f0000;fill-opacity:1;stroke-width:3;stroke-linecap:butt;stroke-linejoin:miter;stroke:#000000;stroke-opacity:1;stroke-miterlimit:4;" d="M 314.138766 193.738902 C 278.941126 223.262249 275.535261 214.935649 272.885021 215.69337 C 270.237558 216.448315 245.257512 235.3719 234.281516 235.3719 C 223.305519 235.3719 198.706063 230.831128 185.079826 234.236707 C 171.456367 237.645062 104.464174 261.486892 104.464174 261.486892 C 104.464174 261.486892 109.006253 333.398181 131.71387 348.158467 C 154.424265 362.918752 194.919609 370.867879 194.919609 370.867879 C 194.919609 370.867879 349.339184 380.707144 369.779929 336.04604 C 390.217896 291.387711 386.434219 255.810926 386.434219 255.810926 L 348.586338 192.983957 " transform="matrix(1.406122,0,0,1.407387,12.540281,4.236685)"/><path style="fill-rule:evenodd;fill:#ebdf44;fill-opacity:1;stroke-width:3;stroke-linecap:butt;stroke-linejoin:miter;stroke:#000000;stroke-opacity:1;stroke-miterlimit:4;" d="M 313.18868 491.520307 C 313.18868 491.520307 332.418204 484.081878 338.0076 483.562853 C 343.599774 483.046604 350.833765 484.989477 350.833765 484.989477 C 350.833765 484.989477 340.585612 486.088589 338.0076 487.481906 C 335.432366 488.877999 331.476452 494.012736 331.476452 494.012736 " transform="matrix(1.406122,0,0,1.407387,12.540281,4.236685)"/><path style=" stroke:none;fill-rule:evenodd;fill:#ebdf44;fill-opacity:1;" d="M 481.425781 712.222656 C 478.558594 710.582031 523.574219 693.890625 523.855469 690.988281 C 524.136719 688.089844 458.621094 696.296875 458.621094 696.296875 "/><g clip-rule="nonzero" clip-path="url(#d68d2bb181)"><path style="fill:none;stroke-width:3;stroke-linecap:butt;stroke-linejoin:miter;stroke:#000000;stroke-opacity:1;stroke-miterlimit:4;" d="M 333.459965 503.049872 C 328.317831 502.811176 357.509371 491.001282 363.634927 487.962073 C 369.757705 484.922865 317.361281 493.160647 317.361281 493.160647 " transform="matrix(1.406122,0,0,1.407387,12.540281,4.236685)"/></g><path style=" stroke:none;fill-rule:evenodd;fill:#ebdf44;fill-opacity:1;" d="M 396.582031 617.210938 C 401.882812 628.886719 446.753906 713.449219 455.980469 713.820312 C 465.203125 714.195312 494.269531 718.125 496.816406 718.597656 C 499.945312 719.183594 514.320312 726.03125 514.320312 726.03125 C 514.320312 726.03125 503.183594 712.230469 499.46875 712.230469 C 495.757812 712.230469 468.179688 701.613281 466.058594 698.425781 C 443.375 672.128906 422.296875 628.464844 416.203125 611.371094 "/><g clip-rule="nonzero" clip-path="url(#bdb8f9124a)"><path style="fill:none;stroke-width:3;stroke-linecap:butt;stroke-linejoin:miter;stroke:#000000;stroke-opacity:1;stroke-miterlimit:4;" d="M 273.121153 435.540578 C 276.89094 443.836647 308.802171 503.921389 315.363878 504.185065 C 321.922806 504.451516 342.594128 507.243703 344.405403 507.579542 C 346.630605 507.995872 356.853756 512.861382 356.853756 512.861382 C 356.853756 512.861382 348.933592 503.055423 346.291686 503.055423 C 343.652557 503.055423 324.039665 495.511524 322.531195 493.246689 C 306.399175 474.561799 291.408925 443.536889 287.075198 431.391156 " transform="matrix(1.406122,0,0,1.407387,12.540281,4.236685)"/></g><path style=" stroke:none;fill-rule:evenodd;fill:#000000;fill-opacity:0.091;" d="M 268.582031 551.289062 C 268.582031 551.289062 305.203125 578.941406 307.773438 579.582031 C 310.34375 580.226562 330.902344 588.585938 334.757812 588.585938 C 338.609375 588.585938 355.957031 578.296875 355.957031 578.296875 L 357.886719 546.144531 C 331.851562 548.125 331.25 566.148438 268.578125 551.289062 Z M 268.582031 551.289062 "/><path style=" stroke:none;fill-rule:evenodd;fill:#7f0000;fill-opacity:1;" d="M 494.742188 497.285156 C 484.117188 543.160156 484.660156 559.671875 454.691406 591.144531 C 452.738281 597.011719 433.203125 624.386719 426.363281 625.363281 C 419.527344 626.34375 398.039062 625.363281 393.152344 621.453125 C 388.269531 617.542969 376.546875 588.210938 369.710938 585.277344 C 362.871094 582.34375 305.238281 550.082031 303.285156 545.191406 C 301.332031 540.304688 277.886719 512.929688 277.886719 512.929688 "/><path style="fill-rule:evenodd;fill:#7f0000;fill-opacity:1;stroke-width:3;stroke-linecap:butt;stroke-linejoin:miter;stroke:#000000;stroke-opacity:1;stroke-miterlimit:4;" d="M 342.930269 350.328934 C 335.374028 382.924795 335.760174 394.656974 314.447128 417.019445 C 313.058113 421.188296 299.165185 440.639233 294.300854 441.333116 C 289.439301 442.029775 274.157358 441.333116 270.682043 438.554807 C 267.209505 435.776498 258.872637 414.93502 254.011085 412.850594 C 249.146754 410.766169 208.1597 387.84304 206.770685 384.368073 C 205.38167 380.895881 188.707933 361.444944 188.707933 361.444944 " transform="matrix(1.406122,0,0,1.407387,12.540281,4.236685)"/><path style=" stroke:none;fill-rule:evenodd;fill:#7f0000;fill-opacity:1;" d="M 530.863281 375.324219 C 529.484375 447.1875 510.84375 477.59375 472.179688 483.816406 C 433.519531 490.035156 341.003906 516.292969 332.71875 513.53125 C 324.433594 510.765625 283.699219 512.148438 283.699219 503.855469 C 283.699219 495.5625 378.285156 470.6875 378.285156 470.6875 C 378.285156 470.6875 291.292969 500.398438 288.53125 490.035156 C 285.769531 479.667969 369.308594 452.027344 369.308594 452.027344 C 369.308594 452.027344 307.171875 477.597656 305.792969 463.777344 C 304.410156 449.953125 357.574219 438.207031 357.574219 438.207031 C 357.574219 438.207031 308.554688 449.957031 310.625 440.972656 C 312.695312 431.988281 344.457031 427.84375 344.457031 427.84375 C 344.457031 427.84375 326.503906 426.460938 327.195312 421.621094 C 327.886719 416.785156 352.050781 409.875 352.050781 409.875 L 428.683594 452.71875 "/><path style="fill-rule:evenodd;fill:#7f0000;fill-opacity:1;stroke-width:3;stroke-linecap:butt;stroke-linejoin:miter;stroke:#000000;stroke-opacity:1;stroke-miterlimit:4;" d="M 368.618713 263.671236 C 367.638068 314.73272 334.823978 314.063817 326.884368 340.758895 C 323.014572 353.767819 238.306881 365.547182 227.703141 361.872376 C 221.833163 359.835135 192.841642 360.889837 192.841642 354.99738 C 192.841642 349.104924 260.108861 331.430328 260.108861 331.430328 C 260.108861 331.430328 198.242132 352.541034 196.278065 345.177544 C 194.313998 337.811279 253.724948 318.171606 253.724948 318.171606 C 253.724948 318.171606 209.534824 336.340246 208.55418 326.52041 C 207.570757 316.697798 245.379746 308.35177 245.379746 308.35177 C 245.379746 308.35177 210.518247 316.700573 211.990603 310.316847 C 213.462959 303.933121 236.051121 300.98828 236.051121 300.98828 C 236.051121 300.98828 223.283295 300.005741 223.775006 296.566856 C 224.266718 293.130746 257.155815 285.051169 257.155815 285.051169 L 295.953782 318.662875 " transform="matrix(1.406122,0,0,1.407387,12.540281,4.236685)"/><path style="fill-rule:evenodd;fill:#7f0000;fill-opacity:1;stroke-width:0.735;stroke-linecap:butt;stroke-linejoin:miter;stroke:#000000;stroke-opacity:1;stroke-miterlimit:4;" d="M 261.331194 311.418734 C 220.06078 322.631888 214.50472 324.974438 216.88827 328.901817 C 221.902614 337.16458 276.338112 322.837277 276.327 322.809522 " transform="matrix(1.406122,0,0,1.407387,12.540281,4.236685)"/><path style="fill-rule:evenodd;fill:#7f0000;fill-opacity:1;stroke-width:0.735;stroke-linecap:butt;stroke-linejoin:miter;stroke:#000000;stroke-opacity:1;stroke-miterlimit:4;" d="M 262.07015 287.329881 C 220.799736 298.543035 215.243676 300.88281 217.630004 304.812965 C 222.644348 313.075727 277.077068 298.745649 277.065956 298.720669 " transform="matrix(1.406122,0,0,1.407387,12.540281,4.236685)"/><path style="fill-rule:evenodd;fill:#7f0000;fill-opacity:1;stroke-width:1;stroke-linecap:butt;stroke-linejoin:miter;stroke:#000000;stroke-opacity:1;stroke-miterlimit:4;" d="M 282.188643 335.518689 C 228.133735 348.95782 220.796958 351.955396 223.602768 357.714627 C 229.506082 369.835381 300.773664 352.771403 300.762552 352.732545 " transform="matrix(1.406122,0,0,1.407387,12.540281,4.236685)"/><path style=" stroke:none;fill-rule:evenodd;fill:#7f0000;fill-opacity:1;" d="M 550.183594 385.664062 C 550.183594 433.402344 501.566406 486.171875 478.09375 486.171875 C 454.625 486.171875 369.683594 463.558594 364.09375 423.351562 C 358.507812 383.148438 450.152344 373.097656 450.152344 373.097656 "/><path style="fill-rule:evenodd;fill:#7f0000;fill-opacity:1;stroke-width:3;stroke-linecap:butt;stroke-linejoin:miter;stroke:#000000;stroke-opacity:1;stroke-miterlimit:4;" d="M 371.408876 284.080944 C 371.408876 315.735829 335.170647 350.726898 317.674622 350.726898 C 300.181509 350.726898 236.86797 335.732205 232.701418 309.071234 C 228.537777 282.412852 296.847685 275.748257 296.847685 275.748257 " transform="matrix(1.341599,0,0,1.508086,51.901666,-42.754358)"/><path style="fill-rule:evenodd;fill:#7f0000;fill-opacity:1;stroke-width:1;stroke-linecap:butt;stroke-linejoin:miter;stroke:#000000;stroke-opacity:1;stroke-miterlimit:4;" d="M 303.948952 262.849679 L 275.899183 281.359709 L 314.183215 277.795925 L 299.926365 291.018565 L 350.62819 284.348959 L 324.070224 307.57462 L 356.375934 301.365753 L 350.74209 321.371796 L 366.954673 314.011082 " transform="matrix(1.406122,0,0,1.407387,12.540281,4.236685)"/><path style="fill-rule:evenodd;fill:#7f0000;fill-opacity:1;stroke-width:1;stroke-linecap:butt;stroke-linejoin:miter;stroke:#000000;stroke-opacity:1;stroke-miterlimit:4;" d="M 269.920863 274.470836 L 256.239065 291.829021 L 282.566455 291.601427 L 269.231911 306.086935 L 307.515943 306.431101 L 291.995089 324.136227 L 331.890378 321.033181 L 321.772793 336.898129 L 345.799974 335.632485 " transform="matrix(1.406122,0,0,1.407387,12.540281,4.236685)"/><path style=" stroke:none;fill-rule:evenodd;fill:#ff1616;fill-opacity:1;" d="M 581.507812 255.769531 C 599.808594 249.597656 594.308594 222.800781 594.308594 222.800781 L 583.617188 211.488281 L 550.714844 230.253906 L 554.414062 245.679688 C 554.414062 245.679688 563.617188 258.597656 581.503906 255.769531 Z M 581.507812 255.769531 "/><g clip-rule="nonzero" clip-path="url(#314b010c36)"><path style="fill:none;stroke-width:3;stroke-linecap:butt;stroke-linejoin:miter;stroke:#000000;stroke-opacity:1;stroke-miterlimit:4;" d="M 424.870253 238.620501 C 435.319959 235.801541 431.418884 222.952077 431.418884 222.952077 L 425.311884 217.785173 L 406.524718 226.35624 L 408.639194 233.401856 C 408.639194 233.401856 414.654745 239.912228 424.870253 238.620501 Z M 424.870253 238.620501 " transform="matrix(1.75132,0,0,2.189415,-161.228381,-265.333913)"/></g><path style=" stroke:none;fill-rule:evenodd;fill:#7f0000;fill-opacity:1;" d="M 526.253906 170.433594 C 483.757812 195.207031 476.722656 207.679688 470.1875 220.765625 C 463.648438 233.851562 451.039062 276.386719 443.101562 284.332031 C 435.164062 292.277344 428.625 295.550781 428.625 295.550781 L 451.507812 287.605469 L 448.707031 319.386719 C 456.839844 309.398438 461.277344 298.882812 463.648438 288.070312 L 469.71875 328.734375 C 472.578125 315.878906 477.679688 306.019531 487.929688 303.027344 L 488.867188 332.003906 C 501.023438 331.714844 509.238281 325.511719 513.148438 312.84375 L 512.214844 350.703125 C 516.433594 342.167969 521.878906 336.085938 531.828125 339.015625 C 535.59375 359.21875 533.054688 368.898438 529.492188 376.875 L 543.96875 370.332031 L 542.566406 393.703125 C 542.566406 393.703125 558.910156 371.265625 557.976562 364.722656 C 557.042969 358.179688 550.503906 352.570312 552.371094 345.09375 C 556.273438 329.476562 564.980469 296.015625 562.179688 287.136719 C 559.378906 278.253906 542.101562 215.15625 542.101562 215.15625 Z M 526.253906 170.433594 "/><path style="fill-rule:evenodd;fill:#7f0000;fill-opacity:1;stroke-width:3;stroke-linecap:butt;stroke-linejoin:miter;stroke:#000000;stroke-opacity:1;stroke-miterlimit:4;" d="M 364.098858 117.780885 C 333.879447 135.380541 330.120773 144.553678 325.470351 153.851715 C 320.819928 163.149751 311.855226 193.372532 306.207491 199.017966 C 300.562534 204.663401 295.912111 206.989298 295.912111 206.989298 L 312.185811 201.343863 L 310.193964 223.925601 C 315.977822 216.828563 319.133664 209.356827 320.819928 201.674151 L 325.136987 230.567452 C 327.170505 221.433172 330.798612 214.427726 338.090941 212.301668 L 338.75489 232.890573 C 347.40012 232.685184 353.242317 228.277637 356.023125 219.276583 L 355.359175 246.177051 C 358.359448 240.112511 362.232022 235.791005 369.307664 237.872655 C 371.985685 252.227713 370.179966 259.105484 367.646402 264.773123 L 377.941781 260.124105 L 376.944469 276.73012 C 376.944469 276.73012 388.567746 260.787457 387.903797 256.138439 C 387.239848 251.489421 382.589426 247.503756 383.920102 242.191385 C 386.692576 231.094803 392.884805 207.319586 390.892957 201.010799 C 388.90111 194.699237 376.613883 149.866049 376.613883 149.866049 L 364.098858 117.77811 Z M 364.098858 117.780885 " transform="matrix(1.406122,0,0,1.407387,12.540281,4.236685)"/><path style=" stroke:none;fill-rule:evenodd;fill:#cecea2;fill-opacity:1;" d="M 578.660156 177.234375 C 570.953125 162.132812 536.15625 164.382812 523.96875 169.992188 C 511.523438 175.714844 503.117188 198.742188 503.117188 198.742188 L 520.988281 186.816406 L 505.242188 213.015625 L 521.203125 201.726562 L 506.519531 238.570312 L 522.265625 219.617188 L 517.160156 242.40625 L 523.757812 231.96875 L 522.90625 256.25 L 534.394531 237.71875 L 537.800781 271.796875 L 541.632812 257.742188 L 548.226562 281.167969 L 550.996094 259.019531 L 560.785156 281.808594 C 560.785156 281.808594 558.296875 256.21875 555.675781 251.5625 C 548.601562 238.992188 576 216.402344 581.175781 221.402344 L 599.683594 202.097656 L 578.65625 177.230469 Z M 578.660156 177.234375 "/><path style=" stroke:none;fill-rule:evenodd;fill:#7f0000;fill-opacity:1;" d="M 578.660156 177.234375 C 570.953125 162.132812 536.15625 164.382812 523.96875 169.992188 C 511.523438 175.714844 503.117188 198.742188 503.117188 198.742188 L 520.988281 186.816406 L 505.242188 213.015625 L 521.203125 201.726562 L 506.519531 238.570312 L 522.265625 219.617188 L 517.160156 242.40625 L 523.757812 231.96875 L 522.90625 256.25 L 534.394531 237.71875 L 537.800781 271.796875 L 541.632812 257.742188 L 548.226562 281.167969 L 550.996094 259.019531 L 560.785156 281.808594 C 560.785156 281.808594 555.25 256.890625 555.675781 251.5625 C 556.101562 246.238281 556.058594 236.121094 563.675781 228.507812 C 566.679688 225.503906 580.46875 220.394531 590.777344 218.914062 C 604.023438 217.011719 604.144531 205.570312 604.144531 205.570312 L 578.65625 177.230469 Z M 578.660156 177.234375 "/><g clip-rule="nonzero" clip-path="url(#7c6acad95c)"><path style="fill:none;stroke-width:3;stroke-linecap:butt;stroke-linejoin:miter;stroke:#000000;stroke-opacity:1;stroke-miterlimit:4;" d="M 402.610688 122.921173 C 397.129635 112.190961 372.382943 113.789669 363.71549 117.775334 C 354.864686 121.84149 348.886366 138.203258 348.886366 138.203258 L 361.595853 129.729556 L 350.397614 148.345057 L 361.748645 140.323766 L 351.30603 166.502595 L 362.504269 153.035708 L 358.873383 169.228168 L 363.565476 161.811944 L 362.959866 179.064658 L 371.130052 165.897529 L 373.552494 190.11128 L 376.277741 180.124912 L 380.967056 196.769784 L 382.936679 181.032511 L 389.898423 197.224972 C 389.898423 197.224972 385.961954 179.519846 386.264759 175.734018 C 386.567565 171.950967 386.537006 164.762336 391.954165 159.352821 C 394.09047 157.218436 403.896916 153.588039 411.228137 152.536112 C 420.648437 151.184427 420.734556 143.05489 420.734556 143.05489 L 402.60791 122.918397 Z M 402.610688 122.921173 " transform="matrix(1.406122,0,0,1.407387,12.540281,4.236685)"/></g><path style="fill-rule:evenodd;fill:#ff1616;fill-opacity:1;stroke-width:2;stroke-linecap:butt;stroke-linejoin:miter;stroke:#000000;stroke-opacity:1;stroke-miterlimit:4;" d="M 384.739621 128.688731 C 381.603225 128.688731 372.394055 131.825083 372.394055 138.292076 C 372.394055 144.759068 380.81982 155.342176 382.389407 155.342176 C 383.956216 155.342176 386.30643 153.968287 388.462181 153.968287 C 390.617932 153.968287 392.381981 158.281466 392.381981 158.281466 L 402.180093 153.382649 L 400.221582 142.602479 L 406.099894 137.115249 C 406.099894 137.115249 395.518377 128.494443 384.739621 128.688731 Z M 384.739621 128.688731 " transform="matrix(1.406122,0,0,1.407387,12.540281,4.236685)"/><path style=" stroke:none;fill-rule:evenodd;fill:#ffeb04;fill-opacity:1;" d="M 592.59375 194.570312 C 612.511719 209.632812 623.152344 225.277344 613.503906 225.730469 C 605.375 226.113281 605.078125 221.816406 603.269531 221.816406 C 601.464844 221.816406 583.558594 220.910156 583.558594 220.910156 L 581.015625 206.476562 "/><g clip-rule="nonzero" clip-path="url(#9715ecd63f)"><path style="fill:none;stroke-width:3;stroke-linecap:butt;stroke-linejoin:miter;stroke:#000000;stroke-opacity:1;stroke-miterlimit:4;" d="M 404.291396 144.051307 C 409.161283 140.642952 408.980711 133.773508 411.944869 135.416623 C 427.112913 143.826489 433.305141 157.690277 427.387937 157.382193 C 421.606857 157.07966 421.392949 154.598333 420.109499 154.598333 C 418.826049 154.598333 406.091559 153.957185 406.091559 153.957185 Z M 404.291396 144.051307 " transform="matrix(1.406122,0,0,1.407387,12.540281,4.236685)"/></g><path style=" stroke:none;fill-rule:evenodd;fill:#000000;fill-opacity:0.091;" d="M 610.789062 224.832031 C 601.609375 218.503906 595.289062 207.660156 592.882812 209.167969 C 590.476562 210.671875 584.457031 220.164062 584.457031 220.164062 "/><path style=" stroke:none;fill-rule:evenodd;fill:#ff1616;fill-opacity:1;" d="M 544.40625 163.75 C 540.03125 155.78125 531.238281 129.570312 533.949219 128.765625 C 542.160156 135.074219 543.570312 139.640625 550.546875 142.855469 C 550.546875 142.855469 552.664062 123.238281 554.453125 120.976562 C 558.425781 123.6875 565.722656 146.035156 565.722656 146.035156 C 565.722656 146.035156 578.113281 119.117188 581.644531 114.992188 C 585.660156 118.875 581.347656 156.296875 581.347656 156.296875 C 581.347656 156.296875 592.910156 134.433594 597.6875 132.613281 C 600.15625 137.832031 599.203125 157.933594 599.203125 157.933594 C 606.792969 146.90625 604.40625 155.648438 607.347656 153.730469 C 612.769531 166.878906 611.84375 190.679688 597.304688 196.410156 C 584.960938 198.980469 546.882812 175.316406 544.40625 163.75 Z M 544.40625 163.75 "/><g clip-rule="nonzero" clip-path="url(#ba8b88751e)"><path style="fill:none;stroke-width:3;stroke-linecap:butt;stroke-linejoin:miter;stroke:#000000;stroke-opacity:1;stroke-miterlimit:4;" d="M 378.250143 113.340032 C 375.138749 107.677944 368.885404 89.054117 370.813356 88.482357 C 376.652775 92.964843 377.655644 96.209441 382.617206 98.493705 C 382.617206 98.493705 384.122898 84.554977 385.395236 82.947944 C 388.220492 84.874164 393.409852 100.752989 393.409852 100.752989 C 393.409852 100.752989 402.221764 81.62679 404.733103 78.695827 C 407.588918 81.454707 404.521973 108.044315 404.521973 108.044315 C 404.521973 108.044315 412.744941 92.509656 416.142472 91.216257 C 417.898187 94.924369 417.220348 109.207263 417.220348 109.207263 C 422.61806 101.371933 420.920684 107.583576 423.01254 106.22079 C 426.868446 115.563234 426.210053 132.474558 415.870225 136.546265 C 407.09165 138.372566 380.011414 121.558386 378.250143 113.340032 Z M 378.250143 113.340032 " transform="matrix(1.406122,0,0,1.407387,12.540281,4.236685)"/></g><path style=" stroke:none;fill-rule:evenodd;fill:#000000;fill-opacity:1;" d="M 565.777344 199.625 C 565.777344 204.644531 561.492188 208.714844 556.203125 208.714844 C 550.914062 208.714844 546.628906 204.644531 546.628906 199.625 C 546.628906 194.605469 550.914062 190.535156 556.203125 190.535156 C 561.492188 190.535156 565.777344 194.605469 565.777344 199.625 Z M 565.777344 199.625 "/><path style=" stroke:none;fill-rule:evenodd;fill:#ffba24;fill-opacity:1;" d="M 564.625 199.554688 C 564.625 204.023438 560.808594 207.644531 556.101562 207.644531 C 551.394531 207.644531 547.578125 204.023438 547.578125 199.554688 C 547.578125 195.085938 551.394531 191.464844 556.101562 191.464844 C 560.808594 191.464844 564.625 195.085938 564.625 199.554688 Z M 564.625 199.554688 "/><path style=" stroke:none;fill-rule:evenodd;fill:#000000;fill-opacity:1;" d="M 562.503906 199.414062 C 562.503906 202.628906 559.664062 205.238281 556.160156 205.238281 C 552.660156 205.238281 549.820312 202.628906 549.820312 199.414062 C 549.820312 196.195312 552.660156 193.589844 556.160156 193.589844 C 559.664062 193.589844 562.503906 196.195312 562.503906 199.414062 Z M 562.503906 199.414062 "/><path style=" stroke:none;fill-rule:evenodd;fill:#ffffff;fill-opacity:1;" d="M 552.785156 192.980469 C 554.140625 199.507812 558.703125 199.46875 564.3125 198 C 557.953125 197.617188 556.160156 197.214844 552.785156 192.980469 Z M 552.785156 192.980469 "/><path style="fill:none;stroke-width:1;stroke-linecap:butt;stroke-linejoin:miter;stroke:#000000;stroke-opacity:1;stroke-miterlimit:4;" d="M 428.049109 157.0297 C 428.049109 157.0297 421.676308 150.931854 416.584179 149.269309 C 411.489272 147.606765 404.805332 144.281676 404.805332 144.281676 " transform="matrix(1.406122,0,0,1.407387,12.540281,4.236685)"/><path style=" stroke:none;fill-rule:evenodd;fill:#7f0000;fill-opacity:1;" d="M 173.019531 400.585938 C 119.515625 384.433594 100.832031 394.636719 102.53125 398.886719 C 104.230469 403.136719 173.019531 415.035156 173.019531 415.035156 C 173.019531 415.035156 112.722656 404.835938 112.722656 420.136719 C 112.722656 435.4375 195.101562 426.9375 195.101562 426.9375 C 195.101562 426.9375 133.105469 439.6875 142.445312 454.988281 C 151.789062 470.289062 229.921875 434.585938 229.921875 434.585938 "/><path style=" stroke:none;fill-rule:evenodd;fill:#7f0000;fill-opacity:1;" d="M 173.019531 400.585938 C 119.515625 384.433594 100.832031 394.636719 102.53125 398.886719 C 104.230469 403.136719 173.019531 415.035156 173.019531 415.035156 C 173.019531 415.035156 112.722656 404.835938 112.722656 420.136719 C 112.722656 435.4375 195.101562 426.9375 195.101562 426.9375 C 195.101562 426.9375 133.105469 439.6875 142.445312 454.988281 C 151.789062 470.289062 229.921875 434.585938 229.921875 434.585938 "/><g clip-rule="nonzero" clip-path="url(#60dc6fd5e7)"><path style="fill:none;stroke-width:3;stroke-linecap:butt;stroke-linejoin:miter;stroke:#000000;stroke-opacity:1;stroke-miterlimit:4;" d="M 114.12894 281.62061 C 76.078263 270.14378 62.790945 277.393472 63.999389 280.413253 C 65.207832 283.433033 114.12894 291.887307 114.12894 291.887307 C 114.12894 291.887307 71.247269 284.64039 71.247269 295.512153 C 71.247269 306.383917 129.833144 300.344356 129.833144 300.344356 C 129.833144 300.344356 85.743029 309.403697 92.385299 320.27546 C 99.030347 331.147224 154.596503 305.77885 154.596503 305.77885 " transform="matrix(1.406122,0,0,1.407387,12.540281,4.236685)"/></g><path style="fill-rule:evenodd;fill:#7f0000;fill-opacity:1;stroke-width:1;stroke-linecap:butt;stroke-linejoin:miter;stroke:#000000;stroke-opacity:1;stroke-miterlimit:4;" d="M 131.161042 286.719264 C 77.81731 302.761846 70.636102 306.109139 73.716937 311.726818 C 80.198081 323.547814 150.557247 303.050501 150.543357 303.014419 " transform="matrix(1.406122,0,0,1.407387,12.540281,4.236685)"/><path style=" stroke:none;fill-rule:evenodd;fill:#cecea2;fill-opacity:1;" d="M 266.894531 347.554688 C 207.210938 344.875 183.285156 182.609375 151.4375 195.035156 C 133.6875 200.425781 219.542969 339.460938 219.542969 339.460938 C 219.542969 339.460938 157.632812 217.996094 140.722656 222.832031 C 116.742188 229.691406 192.699219 355.210938 192.699219 355.210938 C 192.699219 355.210938 129.992188 234.839844 117.878906 242.1875 C 105.765625 249.539062 164.007812 362.621094 164.007812 362.621094 C 164.011719 362.621094 118.097656 276.660156 106.890625 289.175781 C 95.683594 301.691406 157.527344 386.707031 157.527344 386.707031 C 157.527344 386.707031 108.921875 325.101562 103.554688 336.683594 C 98 348.675781 143.644531 405.238281 143.644531 405.238281 C 143.644531 405.238281 185.296875 448.777344 238.054688 439.511719 L 290.808594 430.25 "/><path style=" stroke:none;fill-rule:evenodd;fill:#7f0000;fill-opacity:1;" d="M 266.894531 347.554688 C 207.210938 344.875 183.285156 182.609375 151.4375 195.035156 C 133.6875 200.425781 219.542969 339.460938 219.542969 339.460938 C 219.542969 339.460938 157.632812 217.996094 140.722656 222.832031 C 116.742188 229.691406 192.699219 355.210938 192.699219 355.210938 C 192.699219 355.210938 129.992188 234.839844 117.878906 242.1875 C 105.765625 249.539062 164.007812 362.621094 164.007812 362.621094 C 164.011719 362.621094 117.625 276.449219 106.421875 288.964844 C 95.214844 301.480469 157.53125 386.707031 157.53125 386.707031 C 157.53125 386.707031 108.921875 325.101562 103.558594 336.683594 C 98 348.675781 143.644531 405.238281 143.644531 405.238281 C 143.644531 405.238281 185.296875 448.777344 238.054688 439.511719 L 290.8125 430.25 "/><g clip-rule="nonzero" clip-path="url(#38aea87b4a)"><path style="fill:none;stroke-width:3;stroke-linecap:butt;stroke-linejoin:miter;stroke:#000000;stroke-opacity:1;stroke-miterlimit:4;" d="M 180.890557 243.939971 C 138.445037 242.035955 121.429603 126.740306 98.780324 135.569277 C 86.156956 139.399513 147.215277 238.189066 147.215277 238.189066 C 147.215277 238.189066 103.18628 151.883862 91.160188 155.319972 C 74.105862 160.193808 128.124655 249.380016 128.124655 249.380016 C 128.124655 249.380016 83.528939 163.851961 74.914268 169.072739 C 66.299597 174.296292 107.720025 254.645202 107.720025 254.645202 C 107.722803 254.645202 74.733696 193.41694 66.766306 202.309749 C 58.796138 211.202557 103.114051 271.75914 103.114051 271.75914 C 103.114051 271.75914 68.544246 227.986206 64.73001 236.215662 C 60.776874 244.736549 93.238154 284.92627 93.238154 284.92627 C 93.238154 284.92627 122.860288 315.862362 160.380362 309.278798 L 197.900435 302.698009 " transform="matrix(1.406122,0,0,1.407387,12.540281,4.236685)"/></g><path style=" stroke:none;fill-rule:evenodd;fill:#cecea2;fill-opacity:1;" d="M 308.5 396.363281 C 308.5 396.363281 223.269531 412.613281 219.886719 405.839844 C 216.503906 399.070312 254.386719 396.363281 254.386719 396.363281 C 254.386719 396.363281 206.726562 404.277344 205.003906 397.71875 C 203.273438 391.125 251.003906 385.53125 251.003906 385.53125 C 251.003906 385.53125 200.914062 385.382812 200.945312 376.050781 C 200.980469 366.71875 236.796875 369.957031 236.796875 369.957031 C 236.796875 369.957031 194.730469 366.511719 194.183594 354.386719 C 193.640625 342.390625 236.121094 359.804688 236.121094 359.804688 C 236.121094 359.804688 191.492188 339.34375 197.464844 331.023438 C 203.886719 322.078125 244.238281 353.03125 244.238281 353.03125 C 244.238281 353.03125 201.5 323.730469 209.742188 315.792969 C 217.910156 307.925781 228.003906 323.917969 234.769531 330.691406 C 241.535156 337.460938 264.253906 335.714844 272.363281 335.949219 C 280.070312 336.175781 318.421875 354.132812 318.421875 354.132812 "/><path style="fill-rule:evenodd;fill:#ebdf44;fill-opacity:1;stroke-width:3;stroke-linecap:butt;stroke-linejoin:miter;stroke:#000000;stroke-opacity:1;stroke-miterlimit:4;" d="M 187.94104 502.949852 C 187.94104 502.949852 176.216098 511.707567 175.813663 514.403819 C 175.407802 517.098151 175.274104 521.007601 175.274104 521.007601 C 175.274104 521.007601 181.202033 516.830902 180.93309 514.672134 C 180.664898 512.516038 197.23824 508.340818 197.23824 508.340818 " transform="matrix(1.353702,0.380698,-0.380356,1.35492,280.785928,-90.681319)"/><path style="fill-rule:evenodd;fill:#7f0000;fill-opacity:1;stroke-width:1;stroke-linecap:butt;stroke-linejoin:miter;stroke:#000000;stroke-opacity:1;stroke-miterlimit:4;" d="M 118.529339 244.608874 C 83.165018 201.574232 77.306152 196.239657 73.311345 201.246719 C 64.902248 211.785419 110.939762 268.803197 110.967542 268.778217 " transform="matrix(1.406122,0,0,1.407387,12.540281,4.236685)"/><path style="fill-rule:evenodd;fill:#7f0000;fill-opacity:1;stroke-width:1;stroke-linecap:butt;stroke-linejoin:miter;stroke:#000000;stroke-opacity:1;stroke-miterlimit:4;" d="M 134.561351 241.938811 C 105.847633 194.207967 100.833288 188.074039 96.146752 192.448279 C 86.293079 201.646396 123.524237 264.770348 123.554796 264.745368 " transform="matrix(1.406122,0,0,1.407387,12.540281,4.236685)"/><path style="fill-rule:evenodd;fill:#7f0000;fill-opacity:1;stroke-width:3;stroke-linecap:butt;stroke-linejoin:miter;stroke:#000000;stroke-opacity:1;stroke-miterlimit:4;" d="M 210.479355 278.620258 C 210.479355 278.620258 149.865518 290.166476 147.459744 285.353702 C 145.05397 280.543703 171.995305 278.620258 171.995305 278.620258 C 171.995305 278.620258 138.100561 284.243488 136.87545 279.583368 C 135.644782 274.898268 169.589531 270.923705 169.589531 270.923705 C 169.589531 270.923705 133.966852 270.818234 133.989076 264.187486 C 134.014079 257.556737 159.485836 259.857654 159.485836 259.857654 C 159.485836 259.857654 129.569231 257.409633 129.180307 248.794378 C 128.79416 240.270716 159.005237 252.644043 159.005237 252.644043 C 159.005237 252.644043 127.266244 238.1058 131.513852 232.193914 C 136.080933 225.837943 164.777983 247.831268 164.777983 247.831268 C 164.777983 247.831268 134.383557 227.011994 140.2452 221.372111 C 146.054061 215.782187 153.23249 227.14522 158.044038 231.957994 C 162.855586 236.767993 179.012609 235.52733 184.779799 235.693862 C 190.260852 235.854843 217.535551 248.613969 217.535551 248.613969 " transform="matrix(1.406122,0,0,1.407387,12.540281,4.236685)"/><path style=" stroke:none;fill-rule:evenodd;fill:#000000;fill-opacity:0.091;" d="M 490.875 516.554688 C 490.875 516.554688 483.164062 558.996094 477.382812 564.785156 C 471.601562 570.570312 456.179688 589.21875 456.179688 589.21875 C 456.179688 589.21875 431.765625 625.230469 427.914062 625.875 C 424.058594 626.515625 393.859375 622.015625 393.859375 622.015625 L 428.554688 592.433594 L 448.472656 528.128906 C 473.839844 504.382812 480.691406 520.511719 490.875 516.554688 Z M 490.875 516.554688 "/><path style=" stroke:none;fill-rule:evenodd;fill:#000000;fill-opacity:0.091;" d="M 461.585938 703.625 L 479.175781 706.226562 L 466.9375 699.644531 L 434.363281 652.1875 L 422.890625 625.398438 L 412.644531 625.09375 C 431.03125 662.347656 445.863281 687.78125 461.585938 703.625 Z M 461.585938 703.625 "/><path style=" stroke:none;fill-rule:evenodd;fill:#000000;fill-opacity:0.091;" d="M 352.078125 662.597656 L 360.183594 662.75 L 344.277344 624.175781 L 338.160156 602.132812 L 335.863281 589.578125 L 327.757812 586.976562 C 329.722656 614.421875 339.945312 638.304688 352.078125 662.597656 Z M 352.078125 662.597656 "/><path style=" stroke:none;fill-rule:evenodd;fill:#000000;fill-opacity:0.091;" d="M 561.632812 231.65625 C 561.632812 231.65625 537.859375 252.75 531.574219 261.738281 C 525.289062 270.726562 530.664062 295.429688 523.929688 309.808594 C 517.195312 324.191406 540.539062 366.015625 540.539062 368.261719 C 540.539062 369.824219 537.292969 384.792969 534.914062 395.660156 C 527.292969 399.765625 519.925781 403.898438 516.328125 407.449219 C 510.238281 413.449219 498.175781 432.996094 479.195312 447.515625 C 460.214844 462.03125 412.316406 487.257812 386.480469 496.113281 C 360.640625 504.96875 310.285156 509.792969 310.285156 509.792969 L 337.617188 513.925781 C 337.617188 513.925781 377.308594 508.828125 409.371094 507.238281 C 465.761719 492.234375 469.035156 481.917969 481.085938 485.953125 C 544.898438 452.269531 555.820312 395.527344 555.820312 395.527344 L 558.027344 366.898438 C 558.027344 366.898438 550.429688 349.847656 552.226562 347.152344 C 554.023438 344.453125 563.429688 299.496094 563.429688 288.261719 C 563.429688 277.027344 557.613281 267.589844 555.816406 259.503906 L 561.628906 231.65625 Z M 561.632812 231.65625 "/><path style=" stroke:none;fill-rule:evenodd;fill:#000000;fill-opacity:0.091;" d="M 280.109375 505.324219 L 278.316406 515.210938 L 289.089844 525.546875 C 289.089844 525.546875 206.925781 506.671875 194.355469 492.289062 C 181.78125 477.910156 175.046875 455.890625 175.046875 455.890625 L 193.90625 449.148438 C 213.875 473.144531 241.46875 494.203125 280.113281 505.324219 Z M 280.109375 505.324219 "/></g></svg>