<svg xmlns="http://www.w3.org/2000/svg" xmlns:xlink="http://www.w3.org/1999/xlink" width="1080" zoomAndPan="magnify" viewBox="0 0 810 809.999993" height="1080" preserveAspectRatio="xMidYMid meet" version="1.2"><defs><clipPath id="ff70f925fd"><path d="M 22.59375 22.59375 L 787.40625 22.59375 L 787.40625 787.40625 L 22.59375 787.40625 Z M 22.59375 22.59375 "/></clipPath><clipPath id="c22ebb3c05"><path d="M 405 22.59375 C 193.804688 22.59375 22.59375 193.804688 22.59375 405 C 22.59375 616.195312 193.804688 787.40625 405 787.40625 C 616.195312 787.40625 787.40625 616.195312 787.40625 405 C 787.40625 193.804688 616.195312 22.59375 405 22.59375 Z M 405 22.59375 "/></clipPath><clipPath id="c77c9b3783"><path d="M 22.59375 22.59375 L 787.394531 22.59375 L 787.394531 787.394531 L 22.59375 787.394531 Z M 22.59375 22.59375 "/></clipPath><clipPath id="c59b63799d"><path d="M 404.996094 22.59375 C 193.800781 22.59375 22.59375 193.800781 22.59375 404.996094 C 22.59375 616.1875 193.800781 787.394531 404.996094 787.394531 C 616.1875 787.394531 787.394531 616.1875 787.394531 404.996094 C 787.394531 193.800781 616.1875 22.59375 404.996094 22.59375 Z M 404.996094 22.59375 "/></clipPath><clipPath id="fb48f76c2d"><path d="M 100 173 L 715.867188 173 L 715.867188 628 L 100 628 Z M 100 173 "/></clipPath><clipPath id="380e082806"><path d="M 355 427 L 715.867188 427 L 715.867188 527 L 355 527 Z M 355 427 "/></clipPath></defs><g id="6e5ab58691"><g clip-rule="nonzero" clip-path="url(#ff70f925fd)"><g clip-rule="nonzero" clip-path="url(#c22ebb3c05)"><path style=" stroke:none;fill-rule:nonzero;fill:#f5f8fa;fill-opacity:1;" d="M 22.59375 22.59375 L 787.40625 22.59375 L 787.40625 787.40625 L 22.59375 787.40625 Z M 22.59375 22.59375 "/></g></g><g clip-rule="nonzero" clip-path="url(#c77c9b3783)"><g clip-rule="nonzero" clip-path="url(#c59b63799d)"><path style="fill:none;stroke-width:60;stroke-linecap:butt;stroke-linejoin:miter;stroke:#000000;stroke-opacity:1;stroke-miterlimit:4;" d="M 509.869292 -0.000650111 C 228.275527 -0.000650111 -0.000525711 228.275403 -0.000525711 509.869167 C -0.000525711 791.457723 228.275527 1019.733776 509.869292 1019.733776 C 791.457847 1019.733776 1019.733901 791.457723 1019.733901 509.869167 C 1019.733901 228.275403 791.457847 -0.000650111 509.869292 -0.000650111 Z M 509.869292 -0.000650111 " transform="matrix(0.75,0,0,0.75,22.594144,22.594238)"/></g></g><g clip-rule="nonzero" clip-path="url(#fb48f76c2d)"><path style=" stroke:none;fill-rule:nonzero;fill:#9b4923;fill-opacity:1;" d="M 244.246094 279.921875 C 244.246094 279.921875 103.894531 286.460938 100.652344 348.484375 C 100.652344 348.484375 112.054688 395.136719 110.433594 410.144531 C 108.8125 425.15625 108.8125 449.628906 108.8125 449.628906 C 108.8125 449.628906 113.726562 488.800781 157.757812 498.582031 C 201.839844 508.359375 275.257812 537.753906 353.589844 487.179688 L 353.589844 527.972656 C 353.589844 527.972656 363.261719 598.886719 466.171875 619.335938 C 569.085938 639.835938 649.507812 622.578125 691.65625 565.46875 L 715.605469 427.195312 C 715.605469 427.195312 696.886719 415.324219 691.65625 395.761719 C 686.425781 376.203125 609.765625 337.03125 559.199219 330.496094 L 570.601562 222.761719 C 570.601562 222.761719 536.085938 175.746094 408.128906 173.128906 C 280.171875 170.515625 241.003906 222.761719 241.003906 222.761719 Z M 244.246094 279.921875 "/></g><path style=" stroke:none;fill-rule:nonzero;fill:#6a2412;fill-opacity:1;" d="M 566.886719 257.695312 C 566.886719 257.695312 526.101562 292.160156 499.222656 290.957031 C 472.292969 289.753906 403.789062 301.992188 390.296875 315.433594 C 376.859375 328.875 342.554688 336.246094 359.707031 353.402344 C 376.859375 370.554688 391.5 376.988281 386.636719 385.984375 C 381.722656 394.976562 389.253906 407.007812 408.128906 410.195312 C 427.007812 413.386719 527.355469 409.675781 550.625 365.640625 Z M 566.886719 257.695312 "/><path style=" stroke:none;fill-rule:nonzero;fill:#7a2b1a;fill-opacity:1;" d="M 691.65625 395.816406 C 691.65625 395.816406 644.855469 343.203125 559.199219 330.546875 L 550.625 365.640625 C 550.625 365.640625 532.636719 392.992188 498.648438 400.417969 C 464.65625 407.84375 407.398438 415.582031 365.824219 410.195312 C 365.824219 410.195312 346.269531 397.488281 347.472656 417.046875 C 348.675781 436.609375 353.589844 487.230469 353.589844 487.230469 C 353.589844 487.230469 284.300781 523.003906 238.808594 515.265625 C 193.316406 507.523438 216.53125 457.472656 216.53125 447.640625 C 216.53125 437.808594 199.378906 410.195312 199.378906 410.195312 C 199.378906 410.195312 297.269531 425.414062 331.574219 400.417969 C 331.574219 400.417969 299.78125 408.261719 272.851562 400.417969 C 245.921875 392.574219 203.09375 377.875 206.753906 352.199219 C 210.414062 326.519531 248.378906 288.550781 248.378906 288.550781 L 242.261719 350.996094 C 242.261719 350.996094 261.816406 388.964844 307.101562 395.082031 C 352.386719 401.203125 355.054688 411.136719 355.054688 411.136719 C 355.054688 411.136719 416.027344 417.152344 435.636719 419.558594 C 455.191406 422.015625 523.957031 408.3125 546.492188 400.46875 C 569.03125 392.625 595.960938 399.738281 625.351562 400.46875 C 654.738281 401.203125 671.105469 398.378906 676.753906 392.625 C 682.402344 386.871094 691.65625 395.816406 691.65625 395.816406 Z M 691.65625 395.816406 "/><path style=" stroke:none;fill-rule:nonzero;fill:#7a2b1a;fill-opacity:1;" d="M 711.839844 448.792969 C 711.839844 448.792969 693.800781 490.476562 653.429688 507.574219 C 613.0625 524.730469 545.710938 527.136719 515.117188 535.710938 C 484.527344 544.289062 484.527344 567.507812 502.882812 587.121094 C 521.238281 606.679688 517.578125 612.800781 556.742188 607.9375 C 595.910156 603.019531 656.988281 604.222656 674.296875 584.871094 C 691.65625 565.523438 691.65625 565.523438 691.65625 565.523438 Z M 711.839844 448.792969 "/><g clip-rule="nonzero" clip-path="url(#380e082806)"><path style=" stroke:none;fill-rule:nonzero;fill:#b6823e;fill-opacity:1;" d="M 715.605469 427.246094 C 715.605469 427.246094 699.96875 452.507812 679.160156 469.660156 C 658.347656 486.8125 607.726562 505.171875 566.941406 501.457031 C 526.152344 497.742188 502.832031 513.433594 491.273438 501.929688 C 479.664062 490.421875 447.871094 470.863281 429.515625 472.066406 C 411.164062 473.269531 397.722656 473.269531 381.773438 457.371094 C 365.824219 441.472656 355.054688 427.195312 355.054688 427.195312 C 355.054688 427.195312 356.097656 450.308594 376.859375 466.679688 C 397.671875 483.046875 406.246094 488.90625 417.230469 506.164062 C 428.261719 523.421875 460.628906 530.796875 476.265625 523.421875 C 491.902344 516.101562 522.441406 516.414062 535.304688 516.257812 C 548.167969 516.101562 593.453125 519.761719 617.925781 509.980469 C 642.398438 500.203125 687.160156 506.007812 715.605469 427.246094 Z M 715.605469 427.246094 "/></g><path style=" stroke:none;fill-rule:nonzero;fill:#b6823e;fill-opacity:1;" d="M 572.902344 233.273438 C 572.902344 233.273438 524.949219 265.226562 499.222656 270.144531 C 473.546875 275.058594 335.234375 288.5 293.609375 270.144531 C 251.984375 251.785156 236.089844 242.949219 241.371094 229.925781 C 246.652344 216.851562 272.640625 199.019531 272.640625 199.019531 C 272.640625 199.019531 239.75 223.335938 262.96875 233.273438 C 286.183594 243.210938 325.402344 266.480469 342.503906 270.144531 C 359.65625 273.804688 469.78125 272.601562 482.019531 265.226562 C 494.253906 257.90625 455.085938 252.988281 468.578125 245.667969 C 482.019531 238.347656 507.484375 241.066406 519.25 229.925781 C 531.015625 218.734375 565.789062 214.757812 572.902344 233.273438 Z M 572.902344 233.273438 "/><path style=" stroke:none;fill-rule:nonzero;fill:#59180d;fill-opacity:1;" d="M 546.441406 288.5 C 546.441406 288.5 494.933594 312.976562 460.945312 312.976562 C 426.953125 312.976562 393.957031 315.328125 400.078125 334.363281 C 406.195312 353.402344 417.226562 343.570312 413.515625 365.585938 C 409.804688 387.605469 415.03125 401.097656 445.464844 393.777344 C 475.898438 386.453125 516.007812 392.519531 529.605469 365.585938 C 543.25 338.652344 562.914062 281.386719 546.441406 288.5 Z M 546.441406 288.5 "/><path style=" stroke:none;fill-rule:nonzero;fill:#59180d;fill-opacity:1;" d="M 326.660156 427.246094 C 326.660156 427.246094 278.917969 440.269531 265.476562 435.351562 C 252.039062 430.4375 226.363281 427.925781 240.429688 448.742188 C 254.445312 469.609375 243.460938 474.472656 250.785156 491.625 C 258.105469 508.777344 293.609375 501.40625 314.421875 491.625 C 335.234375 481.84375 353.066406 481.742188 353.066406 481.742188 L 348.203125 427.246094 C 348.203125 427.246094 332.777344 416.683594 326.660156 427.246094 Z M 326.660156 427.246094 "/><path style=" stroke:none;fill-rule:nonzero;fill:#b6823e;fill-opacity:1;" d="M 199.378906 410.144531 C 199.378906 410.144531 132.082031 391.316406 121.046875 372.960938 C 110.015625 354.605469 98.507812 336.925781 108.8125 326.257812 C 108.8125 326.257812 94.066406 346.027344 104.472656 365.585938 C 114.929688 385.199219 138.199219 405.59375 199.378906 410.144531 Z M 199.378906 410.144531 "/><path style=" stroke:none;fill-rule:nonzero;fill:#b6823e;fill-opacity:1;" d="M 178.570312 494.136719 C 178.570312 494.136719 150.433594 484.25 160.214844 462.234375 C 169.992188 440.214844 183.484375 426.828125 178.570312 422.539062 C 173.652344 418.25 150.433594 420.449219 136.945312 410.144531 C 123.503906 399.84375 118.589844 398.640625 123.503906 416.996094 C 128.421875 435.351562 134.539062 452.402344 140.65625 462.234375 C 146.773438 472.066406 145.207031 494.554688 178.570312 494.136719 Z M 178.570312 494.136719 "/><path style=" stroke:none;fill-rule:nonzero;fill:#7a2b1a;fill-opacity:1;" d="M 467.636719 588.480469 C 465.964844 585.65625 462.828125 584.347656 459.636719 583.722656 C 459.585938 583.304688 459.375 582.9375 459.167969 582.625 C 458.226562 581.421875 457.179688 581.578125 456.132812 581.945312 C 455.976562 581.683594 455.820312 581.421875 455.558594 581.210938 C 455.035156 580.742188 454.617188 580.480469 453.988281 580.164062 C 452.160156 579.277344 450.328125 579.746094 449.179688 581.421875 C 446.460938 585.34375 448.761719 590.625 451.0625 594.128906 C 453.832031 598.3125 458.539062 600.929688 463.507812 598.992188 C 467.742188 597.371094 470.09375 592.613281 467.636719 588.480469 Z M 460.109375 592.664062 C 458.695312 592.457031 457.648438 591.199219 456.917969 589.894531 C 458.488281 590.050781 460.683594 590.363281 461.570312 591.515625 C 462.304688 592.507812 461.152344 592.820312 460.109375 592.664062 Z M 460.109375 592.664062 "/><path style=" stroke:none;fill-rule:nonzero;fill:#7a2b1a;fill-opacity:1;" d="M 447.714844 560.449219 C 446.355469 558.777344 445.046875 557.101562 443.6875 555.429688 C 442.902344 551.664062 440.5 548.316406 436.890625 546.902344 C 436.679688 546.695312 436.523438 546.433594 436.316406 546.222656 C 434.851562 544.394531 431.296875 545.386719 430.875 547.636719 C 430.25 551.140625 430.613281 554.59375 432.183594 557.835938 C 432.863281 559.246094 433.804688 560.605469 434.902344 561.703125 C 435.476562 562.28125 436 562.644531 436.578125 562.90625 C 436.941406 564.003906 437.832031 564.945312 438.929688 565.105469 C 440.761719 565.417969 442.539062 565.730469 444.367188 566.046875 C 447.871094 566.671875 449.859375 563.117188 447.714844 560.449219 Z M 447.714844 560.449219 "/><path style=" stroke:none;fill-rule:nonzero;fill:#7a2b1a;fill-opacity:1;" d="M 414.71875 523.578125 C 412.15625 521.382812 409.488281 519.238281 406.875 517.09375 C 404.15625 514.84375 400.441406 516.9375 401.070312 520.441406 C 401.59375 523.160156 402.0625 525.933594 402.640625 528.652344 C 402.953125 530.0625 404.46875 531.058594 405.828125 531.109375 C 406.925781 531.109375 408.078125 531.265625 409.125 531.058594 C 409.90625 530.902344 410.585938 530.378906 411.265625 530.273438 C 411.371094 530.273438 411.425781 530.222656 411.527344 530.167969 C 413.359375 531.632812 415.503906 533.046875 417.648438 532.835938 C 418.746094 532.730469 419.894531 531.945312 419.789062 530.691406 C 419.632812 527.710938 416.914062 525.460938 414.71875 523.578125 Z M 414.71875 523.578125 "/><path style=" stroke:none;fill-rule:nonzero;fill:#7a2b1a;fill-opacity:1;" d="M 581.109375 616.09375 C 578.707031 616.148438 576.929688 613.425781 574.941406 612.328125 C 573.003906 611.230469 570.808594 610.96875 568.613281 611.335938 C 563.488281 612.171875 560.875 615.519531 555.539062 613.742188 C 554.078125 613.21875 552.820312 614.527344 552.714844 615.886719 C 552.351562 620.695312 557.789062 621.898438 561.761719 621.21875 C 561.867188 622.054688 562.390625 622.839844 563.4375 623.15625 C 569.660156 624.828125 575.828125 624.359375 581.949219 622.421875 C 585.292969 621.324219 584.824219 615.988281 581.109375 616.09375 Z M 581.109375 616.09375 "/><path style=" stroke:none;fill-rule:nonzero;fill:#7a2b1a;fill-opacity:1;" d="M 204.191406 481.324219 C 203.042969 480.171875 201.472656 479.386719 199.800781 478.917969 C 199.539062 478.707031 199.328125 478.5 199.015625 478.339844 C 198.699219 477.871094 198.335938 477.398438 197.863281 476.980469 C 195.71875 475.097656 192.164062 476.355469 192.113281 479.335938 C 192.113281 479.542969 192.113281 479.804688 192.113281 480.015625 C 190.910156 480.902344 190.019531 482.160156 189.707031 483.9375 C 189.132812 486.917969 190.28125 489.742188 192.320312 491.574219 C 192.898438 492.671875 194.097656 493.402344 195.355469 493.457031 C 195.667969 493.457031 195.980469 493.402344 196.347656 493.402344 C 197.445312 493.558594 198.597656 493.402344 199.800781 492.984375 C 202.464844 491.992188 204.558594 489.691406 205.082031 486.917969 C 205.183594 486.449219 205.183594 486.027344 205.132812 485.558594 C 205.445312 483.988281 205.289062 482.421875 204.191406 481.324219 Z M 204.191406 481.324219 "/><path style=" stroke:none;fill-rule:nonzero;fill:#7a2b1a;fill-opacity:1;" d="M 191.902344 447.066406 C 189.394531 447.589844 187.039062 448.636719 184.53125 449.160156 C 182.28125 449.628906 179.929688 448.949219 177.628906 449.105469 C 174.855469 449.316406 173.285156 453.238281 176.109375 454.703125 C 181.496094 457.472656 190.492188 456.375 195.09375 452.507812 C 197.707031 450.207031 194.777344 446.441406 191.902344 447.066406 Z M 191.902344 447.066406 "/><path style=" stroke:none;fill-rule:nonzero;fill:#7a2b1a;fill-opacity:1;" d="M 161.101562 417.101562 C 160.632812 416.054688 159.21875 415.324219 158.121094 415.375 C 156.398438 415.480469 154.878906 416.105469 153.78125 417.101562 C 153.46875 416.996094 153.207031 416.890625 152.894531 416.839844 C 149.597656 416.160156 146.09375 417.988281 144.265625 420.710938 C 142.171875 423.847656 142.695312 427.089844 144.527344 429.546875 C 145.414062 431.691406 147.195312 433.417969 149.597656 433.941406 C 150.433594 434.097656 151.429688 434.046875 152.160156 433.574219 C 152.527344 433.574219 152.894531 433.574219 153.3125 433.574219 C 161.46875 432.945312 163.980469 423.636719 161.101562 417.101562 Z M 161.101562 417.101562 "/><path style=" stroke:none;fill-rule:nonzero;fill:#7a2b1a;fill-opacity:1;" d="M 181.96875 499 C 174.125 496.644531 166.226562 494.921875 158.4375 492.460938 C 158.175781 491.574219 157.496094 490.789062 156.1875 490.578125 C 153.886719 490.214844 151.691406 489.792969 149.496094 489.324219 C 148.761719 489.0625 147.976562 488.75 147.140625 488.488281 C 147.140625 488.488281 147.140625 488.433594 147.140625 488.433594 C 141.285156 477.765625 129.726562 473.164062 122.773438 463.542969 C 113.882812 451.199219 114.929688 436.503906 114.5625 422.121094 C 114.667969 421.546875 114.71875 420.917969 114.824219 420.34375 C 115.296875 416.890625 110.171875 415.21875 109.386719 418.828125 C 105.253906 437.757812 103.007812 459.042969 114.457031 475.9375 C 122.460938 487.703125 137.101562 497.222656 151.691406 497.378906 C 161.207031 501.089844 171.144531 503.96875 181.183594 504.855469 C 184.632812 505.171875 185.105469 499.941406 181.96875 499 Z M 119.164062 469.398438 C 118.277344 467.933594 117.542969 466.46875 116.863281 464.953125 C 117.910156 466.523438 119.058594 467.933594 120.261719 469.292969 C 119.84375 469.292969 119.480469 469.292969 119.164062 469.398438 Z M 119.164062 469.398438 "/><path style=" stroke:none;fill-rule:nonzero;fill:#8e3324;fill-opacity:1;" d="M 196.871094 293.574219 C 189.707031 292.265625 182.332031 293.414062 175.167969 294.722656 C 164.34375 296.761719 153.519531 299.273438 143.636719 304.085938 C 133.753906 308.949219 124.8125 316.375 119.949219 326.207031 C 118.171875 329.761719 116.96875 333.738281 117.597656 337.609375 C 118.746094 344.617188 125.441406 349.21875 131.820312 352.304688 C 138.199219 355.390625 145.3125 358.109375 149.234375 364.019531 C 150.695312 366.214844 151.636719 368.726562 153.101562 370.921875 C 156.605469 375.996094 163.300781 378.558594 169.261719 377.25 C 175.222656 375.890625 180.136719 370.660156 181.128906 364.59375 C 182.070312 358.789062 179.667969 353.085938 178.726562 347.28125 C 176.789062 335.882812 180.816406 323.589844 189.132812 315.539062 C 192.636719 312.136719 196.921875 309.3125 199.171875 305.027344 C 201.421875 300.683594 200.375 294.09375 195.667969 292.734375 "/><path style=" stroke:none;fill-rule:nonzero;fill:#b6823e;fill-opacity:1;" d="M 310.605469 215.960938 C 310.5 215.492188 310.5 215.335938 310.449219 214.8125 C 310.449219 214.339844 310.449219 213.871094 310.449219 213.398438 C 310.449219 213.242188 310.449219 213.136719 310.5 212.980469 C 310.5 212.929688 310.554688 212.613281 310.5 212.773438 C 310.5 212.929688 310.554688 212.613281 310.554688 212.5625 C 310.554688 212.457031 310.605469 212.355469 310.605469 212.25 C 310.710938 211.777344 310.816406 211.253906 310.917969 210.785156 C 310.972656 210.574219 311.074219 210.367188 311.128906 210.15625 C 311.179688 210.050781 311.179688 209.949219 311.234375 209.84375 C 311.285156 209.738281 311.390625 209.476562 311.285156 209.738281 C 311.335938 209.632812 311.390625 209.53125 311.441406 209.425781 C 311.441406 209.425781 311.703125 208.796875 311.546875 209.109375 C 311.703125 208.746094 311.914062 208.429688 311.964844 208.011719 C 312.070312 207.386719 311.914062 208.117188 312.015625 207.855469 C 312.015625 207.804688 312.121094 207.59375 312.121094 207.648438 C 312.175781 207.542969 312.332031 207.226562 312.382812 207.070312 C 312.644531 206.601562 312.855469 206.183594 312.90625 205.605469 C 313.011719 204.980469 312.539062 204.457031 311.914062 204.613281 C 311.285156 204.71875 310.867188 205.03125 310.394531 205.449219 C 310.1875 205.605469 309.976562 205.816406 309.820312 206.027344 C 309.714844 206.128906 309.613281 206.234375 309.558594 206.339844 C 309.613281 206.339844 309.613281 206.339844 309.664062 206.289062 C 309.558594 206.390625 309.453125 206.445312 309.351562 206.546875 C 308.460938 207.332031 308.042969 208.746094 307.675781 209.894531 C 307.050781 212.144531 307.101562 214.550781 307.78125 216.746094 C 307.992188 217.53125 308.828125 218 309.613281 217.792969 C 310.394531 217.582031 310.761719 216.746094 310.605469 215.960938 Z M 310.605469 215.960938 "/><path style=" stroke:none;fill-rule:nonzero;fill:#b6823e;fill-opacity:1;" d="M 315.730469 199.332031 C 317.613281 198.757812 319.496094 198.023438 321.429688 197.65625 C 323.207031 197.292969 324.933594 196.769531 326.660156 196.351562 C 328.488281 195.933594 330.320312 195.355469 332.097656 194.832031 C 332.933594 194.574219 335.863281 193.371094 335.601562 195.148438 C 335.496094 195.828125 336.125 196.507812 336.855469 196.089844 C 338.269531 195.253906 337.589844 193.054688 336.386719 192.375 C 334.449219 191.277344 331.679688 192.742188 329.796875 193.371094 C 327.390625 194.152344 325.089844 195.09375 322.738281 195.984375 C 320.332031 196.875 317.925781 197.710938 315.46875 198.496094 C 314.945312 198.652344 315.15625 199.488281 315.730469 199.332031 Z M 315.730469 199.332031 "/><path style=" stroke:none;fill-rule:nonzero;fill:#b6823e;fill-opacity:1;" d="M 348.675781 191.90625 C 348.832031 191.90625 348.832031 191.644531 348.675781 191.644531 C 348.515625 191.695312 348.515625 191.90625 348.675781 191.90625 Z M 348.675781 191.90625 "/><path style=" stroke:none;fill-rule:nonzero;fill:#b6823e;fill-opacity:1;" d="M 379.683594 183.589844 C 385.332031 182.753906 391.1875 182.4375 396.886719 182.859375 C 402.480469 183.328125 407.921875 185.054688 413.566406 185.421875 C 414.71875 185.472656 414.925781 183.957031 414.089844 183.433594 C 409.125 180.085938 402.742188 179.40625 396.886719 179.144531 C 390.769531 178.832031 384.859375 179.40625 379.003906 181.078125 C 377.382812 181.550781 378.113281 183.851562 379.683594 183.589844 Z M 379.683594 183.589844 "/><path style=" stroke:none;fill-rule:nonzero;fill:#b6823e;fill-opacity:1;" d="M 530.125 203.933594 C 527.878906 197.394531 521.238281 193.996094 514.804688 192.792969 C 511.144531 192.113281 507.433594 191.851562 503.769531 191.328125 C 501.941406 191.070312 500.214844 190.648438 498.4375 190.179688 C 496.710938 189.707031 494.882812 188.976562 493.105469 188.976562 C 492.164062 188.976562 491.378906 189.917969 491.640625 190.859375 C 492.582031 194.3125 496.660156 195.933594 499.796875 196.714844 C 503.457031 197.605469 507.273438 197.816406 511.039062 198.128906 C 516.6875 198.597656 523.539062 199.960938 526.257812 205.554688 C 527.304688 207.699219 530.910156 206.183594 530.125 203.933594 Z M 530.125 203.933594 "/><path style=" stroke:none;fill-rule:nonzero;fill:#b6823e;fill-opacity:1;" d="M 492.371094 227.886719 C 485.207031 226.371094 477.574219 228.09375 471.769531 232.488281 C 470.515625 233.480469 468.371094 234.894531 467.898438 236.515625 C 467.691406 237.246094 467.953125 238.242188 468.683594 238.554688 C 469.625 239.027344 470.515625 238.503906 471.195312 237.875 C 472.5 236.722656 473.703125 235.523438 475.117188 234.527344 C 476.578125 233.585938 478.097656 232.75 479.71875 232.175781 C 483.480469 230.816406 487.507812 230.398438 491.429688 231.179688 C 493.625 231.597656 494.566406 228.304688 492.371094 227.886719 Z M 492.371094 227.886719 "/><path style=" stroke:none;fill-rule:nonzero;fill:#b6823e;fill-opacity:1;" d="M 451.375 257.433594 C 442.695312 259.472656 433.386719 260.574219 424.445312 260.574219 C 420.050781 260.574219 415.710938 260.3125 411.371094 259.789062 C 407.292969 259.265625 402.691406 257.800781 398.613281 258.480469 C 397.617188 258.636719 397.199219 260.207031 397.984375 260.832031 C 401.28125 263.449219 406.351562 263.972656 410.429688 264.546875 C 415.085938 265.175781 419.789062 265.488281 424.496094 265.382812 C 434.117188 265.226562 443.113281 263.554688 452.160156 260.257812 C 453.886719 259.632812 453.257812 257.015625 451.375 257.433594 Z M 451.375 257.433594 "/><path style=" stroke:none;fill-rule:nonzero;fill:#b6823e;fill-opacity:1;" d="M 249.003906 321.082031 C 247.070312 326.625 245.605469 332.378906 244.039062 338.027344 C 242.679688 342.890625 240.21875 348.695312 242.519531 353.664062 C 243.304688 355.441406 244.980469 357.53125 247.070312 357.691406 C 248.640625 357.847656 249.894531 356.589844 248.953125 355.128906 C 248.429688 354.289062 247.4375 353.871094 246.757812 353.085938 C 245.972656 352.144531 245.605469 350.996094 245.503906 349.792969 C 245.34375 346.96875 246.441406 344.039062 247.226562 341.371094 C 249.058594 334.992188 251.097656 328.558594 252.507812 322.074219 C 253.085938 319.722656 249.738281 318.832031 249.003906 321.082031 Z M 249.003906 321.082031 "/><path style=" stroke:none;fill-rule:nonzero;fill:#b6823e;fill-opacity:1;" d="M 249.582031 361.507812 C 249.789062 361.875 250.050781 362.238281 250.261719 362.660156 C 250.46875 363.023438 250.730469 363.285156 250.835938 363.601562 C 250.835938 363.339844 250.835938 363.128906 250.835938 362.867188 C 250.523438 363.914062 251.566406 365.011719 252.195312 365.742188 C 252.71875 366.371094 253.292969 366.894531 253.867188 367.417969 C 254.546875 367.992188 255.226562 368.515625 255.90625 369.089844 C 256.222656 369.351562 256.535156 369.5625 256.902344 369.769531 C 257.164062 369.925781 257.476562 370.085938 257.738281 370.1875 C 258.261719 370.292969 258.679688 370.242188 259.148438 370.03125 C 259.621094 369.824219 259.882812 369.195312 259.933594 368.726562 C 259.988281 367.46875 258.679688 366.84375 257.84375 366.164062 C 257.632812 366.003906 258.050781 366.320312 257.84375 366.164062 C 257.789062 366.109375 257.6875 366.058594 257.632812 366.003906 C 257.476562 365.902344 257.320312 365.742188 257.214844 365.640625 C 256.902344 365.378906 256.589844 365.117188 256.328125 364.855469 C 256.066406 364.59375 255.75 364.332031 255.488281 364.070312 C 255.332031 363.964844 255.226562 363.808594 255.070312 363.703125 C 254.96875 363.601562 254.808594 363.496094 254.707031 363.441406 C 254.757812 363.496094 254.808594 363.496094 254.863281 363.546875 C 254.808594 363.496094 254.707031 363.441406 254.652344 363.390625 C 254.285156 363.078125 253.921875 362.761719 253.503906 362.5 C 253.292969 362.34375 253.660156 362.660156 253.503906 362.5 C 253.398438 362.398438 253.292969 362.34375 253.1875 362.238281 C 252.769531 361.925781 252.351562 361.925781 251.882812 361.976562 C 252.246094 362.03125 252.5625 362.082031 252.925781 362.136719 C 252.71875 362.03125 252.667969 362.082031 252.507812 361.925781 C 252.351562 361.769531 252.144531 361.613281 251.984375 361.457031 C 251.671875 361.140625 251.359375 360.828125 251.046875 360.515625 C 250.261719 359.730469 249.058594 360.617188 249.582031 361.507812 Z M 249.582031 361.507812 "/><path style=" stroke:none;fill-rule:nonzero;fill:#b6823e;fill-opacity:1;" d="M 270.078125 377.617188 C 273.949219 378.976562 277.820312 380.28125 281.6875 381.695312 C 283.464844 382.375 285.296875 383.003906 287.125 383.578125 C 288.433594 383.996094 291.726562 385.304688 292.355469 383.160156 C 292.929688 381.015625 289.53125 380.28125 288.171875 379.863281 C 286.34375 379.289062 284.511719 378.816406 282.628906 378.347656 C 278.65625 377.355469 274.734375 376.203125 270.757812 375.15625 C 269.136719 374.6875 268.511719 377.09375 270.078125 377.617188 Z M 270.078125 377.617188 "/><path style=" stroke:none;fill-rule:nonzero;fill:#b6823e;fill-opacity:1;" d="M 243.042969 252.988281 C 242.886719 259.996094 243.566406 267.109375 244.089844 274.117188 C 244.351562 277.570312 244.664062 281.019531 244.925781 284.472656 C 245.082031 286.25 245.1875 288.082031 245.34375 289.859375 C 245.449219 291.269531 245.398438 292.316406 246.652344 293.101562 C 247.070312 293.363281 247.59375 293.257812 247.960938 292.945312 C 249.214844 291.953125 248.796875 290.539062 248.746094 289.128906 C 248.640625 287.347656 248.535156 285.519531 248.429688 283.742188 C 248.222656 280.289062 248.117188 276.835938 247.90625 273.386719 C 247.4375 266.480469 247.226562 259.472656 246.183594 252.625 C 245.921875 250.742188 243.097656 251.261719 243.042969 252.988281 Z M 243.042969 252.988281 "/><path style=" stroke:none;fill-rule:nonzero;fill:#b6823e;fill-opacity:1;" d="M 244.769531 250.480469 C 245.292969 251.105469 245.921875 251.683594 246.601562 252.152344 C 247.28125 252.675781 248.117188 252.988281 248.902344 253.304688 C 249.683594 253.566406 250.574219 253.667969 251.410156 253.722656 C 251.882812 253.773438 252.351562 253.617188 252.769531 253.511719 C 253.347656 253.40625 253.816406 253.199219 254.234375 252.78125 C 254.863281 252.046875 254.707031 251.105469 253.972656 250.582031 C 253.503906 250.269531 253.085938 250.164062 252.507812 250.113281 C 252.457031 250.113281 252.457031 250.113281 252.40625 250.113281 C 252.246094 250.113281 252.351562 250.113281 252.5625 250.113281 C 252.5625 250.0625 252.40625 250.0625 252.351562 250.007812 C 252.089844 249.902344 251.777344 249.902344 251.515625 249.851562 C 251.148438 249.800781 251.882812 249.902344 251.621094 249.851562 C 251.566406 249.851562 251.464844 249.851562 251.410156 249.800781 C 251.253906 249.746094 251.097656 249.746094 250.941406 249.695312 C 250.625 249.640625 250.261719 249.539062 249.945312 249.433594 C 249.789062 249.378906 249.632812 249.328125 249.527344 249.277344 C 249.371094 249.222656 249.164062 249.121094 249.058594 249.121094 C 249.109375 249.121094 249.425781 249.277344 249.214844 249.171875 C 249.164062 249.121094 249.058594 249.121094 249.003906 249.066406 C 248.847656 249.015625 248.691406 248.910156 248.535156 248.859375 C 247.90625 248.597656 247.332031 248.230469 246.808594 247.8125 C 246.496094 247.601562 245.921875 247.550781 245.554688 247.65625 C 245.1875 247.757812 244.925781 247.96875 244.71875 248.230469 C 244.089844 249.015625 244.246094 249.851562 244.769531 250.480469 Z M 244.769531 250.480469 "/><path style=" stroke:none;fill-rule:nonzero;fill:#b6823e;fill-opacity:1;" d="M 243.359375 226.371094 C 243.253906 226.578125 243.410156 226.265625 243.410156 226.265625 C 243.460938 226.160156 243.515625 226.054688 243.566406 225.953125 C 243.671875 225.742188 243.777344 225.53125 243.882812 225.324219 C 244.140625 224.851562 244.402344 224.433594 244.664062 224.015625 C 244.824219 223.808594 244.925781 223.597656 245.082031 223.441406 C 245.136719 223.335938 245.242188 223.230469 245.292969 223.128906 C 245.082031 223.386719 245.292969 223.128906 245.34375 223.074219 C 245.660156 222.65625 246.023438 222.289062 246.339844 221.925781 C 246.652344 221.558594 247.019531 221.246094 247.382812 220.878906 C 247.542969 220.722656 247.75 220.566406 247.90625 220.40625 C 248.011719 220.304688 248.117188 220.25 248.167969 220.199219 C 248.324219 220.042969 248.324219 219.988281 248.167969 220.199219 C 248.484375 219.832031 249.003906 219.625 249.425781 219.308594 C 249.632812 219.152344 249.84375 219.046875 250 218.890625 C 250.574219 218.472656 250.886719 218.105469 251.097656 217.425781 C 250.941406 217.6875 250.785156 217.949219 250.679688 218.160156 C 250.363281 218.367188 250.785156 218.105469 250.785156 218.054688 C 251.046875 217.84375 251.253906 217.6875 251.410156 217.425781 C 251.566406 217.164062 251.621094 216.902344 251.726562 216.640625 C 251.933594 216.066406 251.464844 215.492188 250.941406 215.28125 C 250.261719 215.019531 249.683594 215.074219 249.003906 215.28125 C 249.320312 215.28125 249.582031 215.28125 249.894531 215.28125 C 249.214844 215.125 248.640625 215.230469 248.0625 215.542969 C 247.804688 215.648438 247.59375 215.804688 247.382812 215.910156 C 246.863281 216.277344 246.339844 216.695312 245.816406 217.113281 C 244.925781 217.84375 244.089844 218.734375 243.359375 219.675781 C 242 221.453125 241.003906 223.492188 240.429688 225.636719 C 240.21875 226.371094 240.691406 227.207031 241.421875 227.414062 C 242.417969 227.625 243.097656 227.101562 243.359375 226.371094 Z M 243.359375 226.371094 "/><path style=" stroke:none;fill-rule:nonzero;fill:#b6823e;fill-opacity:1;" d="M 345.589844 296.082031 C 341.980469 296.917969 338.582031 298.59375 335.546875 300.683594 C 332.566406 302.726562 329.585938 305.128906 327.339844 308.007812 C 325.195312 310.726562 323.730469 314.125 321.378906 316.636719 C 320.28125 317.785156 318.972656 318.832031 317.507812 319.355469 C 316.878906 319.566406 316.828125 319.355469 316.097656 319.40625 C 315.417969 319.460938 314.683594 319.566406 314.058594 319.929688 C 313.691406 320.140625 313.636719 320.664062 313.898438 320.976562 C 314.316406 321.5 314.945312 321.761719 315.574219 321.8125 C 316.410156 321.917969 316.671875 321.65625 317.351562 321.34375 C 317.457031 321.1875 317.457031 321.1875 317.402344 321.34375 C 317.613281 321.289062 317.769531 321.238281 317.980469 321.1875 C 318.238281 321.132812 318.5 320.976562 318.761719 320.871094 C 319.496094 320.507812 320.175781 320.085938 320.855469 319.566406 C 323.574219 317.472656 325.5625 314.699219 327.863281 312.191406 C 330.425781 309.367188 333.457031 306.699219 336.648438 304.609375 C 339.890625 302.464844 343.390625 300.894531 346.949219 299.378906 C 348.832031 298.488281 347.472656 295.664062 345.589844 296.082031 Z M 345.589844 296.082031 "/><path style=" stroke:none;fill-rule:nonzero;fill:#b6823e;fill-opacity:1;" d="M 373.304688 398.429688 C 371.628906 398.902344 370.007812 399.476562 368.335938 399.945312 C 366.664062 400.417969 364.9375 400.679688 363.210938 401.097656 C 362.84375 401.203125 362.480469 401.253906 362.113281 401.359375 C 362.007812 401.410156 361.328125 401.777344 361.539062 401.671875 C 361.746094 401.566406 361.277344 401.726562 361.222656 401.726562 C 360.441406 401.828125 359.601562 401.726562 358.871094 401.566406 C 358.035156 401.410156 357.25 401.148438 356.519531 400.785156 C 355.839844 400.417969 355.15625 400.207031 354.476562 399.789062 C 353.957031 399.476562 353.484375 400.15625 353.851562 400.625 C 354.425781 401.253906 355 401.933594 355.785156 402.351562 C 356.519531 402.769531 357.355469 403.085938 358.140625 403.292969 C 359.027344 403.554688 359.917969 403.660156 360.859375 403.765625 C 361.015625 403.816406 361.222656 403.867188 361.433594 403.867188 C 362.113281 403.921875 361.277344 403.710938 361.695312 403.921875 C 362.269531 404.183594 362.6875 404.234375 363.316406 404.289062 C 365.199219 404.390625 367.238281 403.816406 369.015625 403.292969 C 370.949219 402.71875 372.726562 402.039062 374.507812 401.097656 C 375.917969 400.3125 374.871094 397.960938 373.304688 398.429688 Z M 373.304688 398.429688 "/><path style=" stroke:none;fill-rule:nonzero;fill:#b6823e;fill-opacity:1;" d="M 406.144531 412.601562 C 395.683594 411.503906 385.171875 410.929688 374.714844 409.988281 C 368.859375 409.464844 363.316406 408.472656 357.980469 405.910156 C 353.957031 403.972656 350.191406 401.515625 346.113281 399.789062 C 330.632812 393.304688 313.273438 395.761719 298.367188 387.1875 C 297.113281 386.453125 295.808594 388.179688 296.800781 389.171875 C 309.140625 401.777344 329.847656 396.757812 345.066406 403.03125 C 349.824219 405.019531 354.164062 407.949219 358.921875 409.9375 C 363.210938 411.714844 367.8125 412.5 372.414062 412.96875 C 383.605469 414.121094 394.898438 414.746094 406.144531 415.269531 C 407.921875 415.375 407.816406 412.757812 406.144531 412.601562 Z M 406.144531 412.601562 "/><path style=" stroke:none;fill-rule:nonzero;fill:#b6823e;fill-opacity:1;" d="M 421.046875 411.609375 C 437.464844 409.464844 453.78125 406.378906 470.09375 403.554688 C 482.855469 401.359375 499.117188 399.109375 509 389.90625 C 509.367188 389.589844 508.894531 389.121094 508.53125 389.277344 C 501.785156 392.257812 495.300781 395.449219 488.082031 397.121094 C 481.390625 398.691406 474.488281 399.738281 467.742188 400.886719 C 452.054688 403.609375 436.316406 406.011719 420.785156 409.308594 C 419.476562 409.570312 419.738281 411.765625 421.046875 411.609375 Z M 421.046875 411.609375 "/><path style=" stroke:none;fill-rule:nonzero;fill:#b6823e;fill-opacity:1;" d="M 454.722656 471.332031 C 459.113281 472.851562 463.246094 475.046875 467.0625 477.714844 C 471.089844 480.484375 474.175781 483.9375 477.363281 487.546875 C 480.554688 491.101562 484.421875 491.992188 489.023438 492.828125 C 491.535156 493.296875 493.992188 493.613281 496.554688 493.925781 C 499.117188 494.1875 501.730469 494.761719 504.292969 494.238281 C 505.078125 494.082031 505.183594 492.933594 504.503906 492.566406 C 502.359375 491.363281 499.851562 491.050781 497.496094 490.527344 C 495.039062 490.003906 492.527344 489.535156 490.019531 489.167969 C 487.507812 488.800781 484.683594 488.75 482.382812 487.441406 C 480.34375 486.238281 478.933594 484.199219 477.363281 482.472656 C 471.402344 475.9375 463.820312 471.28125 455.347656 468.824219 C 453.78125 468.351562 453.152344 470.757812 454.722656 471.332031 Z M 454.722656 471.332031 "/><path style=" stroke:none;fill-rule:nonzero;fill:#b6823e;fill-opacity:1;" d="M 569.710938 417.207031 C 577.972656 415.84375 586.601562 414.382812 594.96875 415.6875 C 603.28125 416.996094 609.609375 421.753906 616.773438 425.675781 C 621.949219 428.554688 627.597656 430.382812 633.558594 429.546875 C 637.742188 428.972656 643.496094 426.199219 643.757812 421.335938 C 643.808594 420.65625 642.921875 420.1875 642.398438 420.550781 C 640.148438 422.015625 638.578125 423.742188 635.859375 424.632812 C 633.246094 425.46875 630.527344 425.675781 627.808594 425.3125 C 620.90625 424.371094 615.101562 419.664062 609.140625 416.421875 C 596.328125 409.515625 582.523438 411.347656 568.769531 413.859375 C 566.574219 414.222656 567.566406 417.570312 569.710938 417.207031 Z M 569.710938 417.207031 "/><path style=" stroke:none;fill-rule:nonzero;fill:#b6823e;fill-opacity:1;" d="M 375.449219 516.152344 C 375.132812 519.238281 375.1875 522.273438 375.605469 525.359375 C 375.8125 526.875 376.023438 528.339844 376.492188 529.804688 C 376.703125 530.535156 377.015625 531.214844 377.382812 531.894531 C 377.75 532.625 378.007812 533.359375 378.585938 533.933594 C 379.160156 534.507812 379.996094 534.039062 380.050781 533.308594 C 380.101562 532.574219 379.890625 531.894531 379.789062 531.164062 C 379.683594 530.429688 379.628906 529.699219 379.472656 528.964844 C 379.160156 527.554688 378.847656 526.195312 378.636719 524.78125 C 378.167969 521.957031 378.113281 519.03125 378.324219 516.152344 C 378.429688 514.324219 375.605469 514.324219 375.449219 516.152344 Z M 375.449219 516.152344 "/><path style=" stroke:none;fill-rule:nonzero;fill:#b6823e;fill-opacity:1;" d="M 383.605469 546.121094 C 384.808594 547.21875 386.0625 548.367188 387.265625 549.46875 C 388.519531 550.617188 389.722656 551.871094 390.976562 553.023438 C 393.4375 555.273438 395.789062 557.675781 398.664062 559.402344 C 399.136719 559.664062 399.867188 559.089844 399.5 558.566406 C 397.515625 555.898438 394.898438 553.808594 392.390625 551.609375 C 391.136719 550.511719 389.828125 549.464844 388.574219 548.367188 C 387.316406 547.21875 386.011719 546.121094 384.753906 544.96875 C 383.972656 544.289062 382.820312 545.441406 383.605469 546.121094 Z M 383.605469 546.121094 "/><path style=" stroke:none;fill-rule:nonzero;fill:#b6823e;fill-opacity:1;" d="M 400.128906 565.050781 C 400.652344 565.574219 401.121094 566.148438 401.699219 566.621094 C 402.273438 567.089844 402.847656 567.5625 403.421875 568.085938 C 404 568.554688 404.523438 569.027344 405.097656 569.496094 C 405.410156 569.757812 405.722656 570.019531 406.089844 570.28125 C 406.402344 570.542969 406.71875 570.753906 407.136719 570.855469 C 407.660156 571.011719 408.128906 570.492188 408.023438 569.96875 C 407.921875 569.550781 407.710938 569.289062 407.503906 568.972656 C 407.242188 568.609375 407.03125 568.292969 406.769531 567.980469 C 406.300781 567.40625 405.828125 566.828125 405.359375 566.253906 C 404.886719 565.679688 404.46875 565.105469 404 564.527344 C 403.527344 563.953125 402.953125 563.429688 402.429688 562.855469 C 401.855469 562.28125 400.808594 562.226562 400.234375 562.855469 C 399.554688 563.484375 399.5 564.476562 400.128906 565.050781 Z M 400.128906 565.050781 "/><path style=" stroke:none;fill-rule:nonzero;fill:#b6823e;fill-opacity:1;" d="M 421.203125 580.21875 C 423.871094 581.367188 426.433594 582.625 428.996094 584.035156 C 430.25 584.714844 431.503906 585.394531 432.707031 586.128906 C 433.960938 586.859375 435.375 587.644531 436.890625 587.75 C 437.832031 587.800781 438.25 586.703125 437.882812 585.972656 C 437.203125 584.609375 435.792969 583.667969 434.589844 582.886719 C 433.335938 582.101562 432.078125 581.367188 430.773438 580.6875 C 428.105469 579.328125 425.386719 578.074219 422.5625 576.976562 C 420.730469 576.242188 419.371094 579.433594 421.203125 580.21875 Z M 421.203125 580.21875 "/><path style=" stroke:none;fill-rule:nonzero;fill:#b6823e;fill-opacity:1;" d="M 115.765625 385.617188 C 115.558594 386.085938 115.347656 386.140625 115.035156 386.609375 C 114.773438 387.027344 114.5625 387.710938 114.40625 388.179688 C 114.144531 389.121094 113.988281 390.0625 113.777344 391.003906 C 113.414062 392.992188 113.152344 395.03125 112.941406 397.019531 C 112.785156 399.003906 112.679688 401.046875 112.785156 403.03125 C 112.890625 404.96875 113.046875 407.214844 114.09375 408.941406 C 114.5625 409.726562 115.714844 409.515625 115.976562 408.679688 C 116.550781 406.902344 116.394531 404.863281 116.445312 403.03125 C 116.5 401.097656 116.5 399.164062 116.65625 397.226562 C 116.8125 395.34375 117.019531 393.410156 117.386719 391.527344 C 117.542969 390.53125 117.859375 389.589844 117.960938 388.597656 C 118.015625 388.230469 118.121094 387.761719 118.121094 387.394531 C 118.121094 386.820312 117.960938 386.714844 118.015625 386.191406 C 118.121094 385.042969 116.238281 384.570312 115.765625 385.617188 Z M 115.765625 385.617188 "/><path style=" stroke:none;fill-rule:nonzero;fill:#b6823e;fill-opacity:1;" d="M 201.839844 322.753906 C 200.792969 323.070312 198.699219 321.761719 197.5 321.082031 C 195.5625 320.035156 193.523438 319.199219 191.378906 318.726562 C 187.667969 317.945312 182.960938 317.628906 179.71875 319.929688 C 177.785156 321.289062 176.582031 323.382812 176.582031 325.789062 C 176.632812 328.035156 177.785156 330.023438 179.300781 331.59375 C 180.710938 333.109375 182.59375 334 184.269531 334.785156 C 185.734375 335.464844 187.300781 336.195312 188.347656 337.503906 C 189.496094 338.914062 191.589844 337.347656 191.222656 335.828125 C 190.855469 334.207031 189.96875 332.796875 188.816406 331.59375 C 188.347656 331.070312 187.457031 330.441406 187.09375 330.078125 C 186.832031 329.867188 186.570312 329.660156 186.308594 329.449219 C 192.164062 331.175781 198.542969 330.339844 203.773438 327.304688 C 206.125 325.894531 204.558594 321.867188 201.839844 322.753906 Z M 183.796875 324.792969 C 184.007812 324.691406 184.269531 324.636719 184.53125 324.585938 C 184.632812 324.585938 185.261719 324.480469 185.367188 324.429688 C 185.523438 324.429688 185.734375 324.429688 185.890625 324.429688 C 185.472656 324.585938 185.050781 324.691406 184.632812 324.898438 C 183.746094 325.371094 183.484375 326.152344 183.535156 326.9375 C 183.378906 326.675781 183.171875 326.414062 183.066406 326.152344 C 183.066406 326.050781 182.960938 325.789062 182.910156 325.632812 C 182.910156 325.578125 182.910156 325.578125 182.910156 325.472656 C 182.910156 325.472656 182.910156 325.472656 182.910156 325.421875 C 182.910156 325.472656 182.910156 325.421875 182.910156 325.472656 C 182.910156 325.421875 182.960938 325.316406 182.910156 325.472656 C 183.011719 325.371094 183.011719 325.316406 183.011719 325.265625 C 183.117188 325.160156 183.171875 325.054688 183.273438 325.003906 C 183.011719 325.210938 183.011719 325.210938 183.171875 325.109375 C 183.273438 325.054688 183.746094 324.792969 183.796875 324.792969 Z M 183.796875 324.792969 "/><path style=" stroke:none;fill-rule:nonzero;fill:#b6823e;fill-opacity:1;" d="M 231.488281 390.113281 C 231.488281 388.964844 230.652344 388.128906 229.65625 387.761719 C 230.335938 386.296875 229.972656 384.414062 227.984375 383.890625 C 224.375 382.898438 220.664062 382.21875 216.949219 381.695312 C 212.871094 377.144531 206.859375 375 200.742188 376.152344 C 199.484375 376.359375 198.230469 377.929688 198.386719 379.238281 C 198.859375 383.210938 201.679688 385.199219 205.289062 386.296875 C 206.597656 386.714844 208.269531 387.082031 209.367188 387.550781 C 210.726562 388.128906 211.984375 389.382812 213.132812 390.585938 C 215.851562 393.410156 218.519531 396.390625 222.546875 397.332031 C 224.585938 397.800781 226.730469 397.75 228.613281 396.808594 C 229.761719 396.285156 230.964844 395.398438 231.277344 394.089844 C 231.644531 392.835938 231.539062 391.371094 231.488281 390.113281 Z M 204.871094 379.078125 C 204.871094 379.078125 204.871094 379.027344 204.871094 379.027344 C 204.871094 378.976562 204.820312 378.976562 204.871094 379.078125 Z M 224.480469 391.054688 C 223.277344 390.847656 222.179688 390.273438 221.1875 389.488281 C 220.609375 389.015625 220.089844 388.492188 219.566406 387.917969 C 221.917969 388.335938 224.21875 388.753906 226.519531 389.332031 C 226.519531 389.332031 226.574219 389.332031 226.574219 389.332031 C 226.3125 389.851562 226.101562 390.375 225.839844 390.898438 C 225.789062 390.898438 225.789062 390.953125 225.734375 390.953125 C 225.996094 390.847656 225.578125 391.003906 225.527344 391.003906 C 225.160156 391.160156 224.691406 391.109375 224.480469 391.054688 Z M 224.480469 391.054688 "/><path style=" stroke:none;fill-rule:nonzero;fill:#b6823e;fill-opacity:1;" d="M 158.226562 369.824219 C 157.703125 369.71875 157.179688 369.457031 156.660156 369.351562 C 156.03125 369.195312 155.351562 369.195312 154.722656 369.144531 C 153.574219 369.089844 152.421875 369.144531 151.273438 369.195312 C 148.972656 369.246094 146.671875 369.246094 144.421875 369.351562 C 145.363281 370.292969 146.355469 371.289062 147.296875 372.230469 C 147.140625 370.710938 146.671875 369.457031 145.730469 368.253906 C 145.257812 367.625 144.734375 367.207031 144.109375 366.738281 C 143.898438 366.582031 143.691406 366.476562 143.480469 366.371094 C 143.375 366.320312 143.273438 366.265625 143.167969 366.214844 C 142.332031 365.902344 142.226562 365.847656 142.75 366.003906 C 141.074219 364.855469 138.722656 366.003906 138.199219 367.835938 C 137.675781 369.667969 139.140625 371.863281 141.179688 371.757812 C 140.972656 371.757812 140.761719 371.707031 140.605469 371.601562 C 140.761719 371.652344 140.867188 371.757812 141.023438 371.863281 C 141.285156 372.070312 141.285156 372.019531 141.023438 371.863281 C 141.128906 371.96875 141.285156 372.070312 141.390625 372.230469 C 140.972656 371.757812 141.492188 372.4375 141.597656 372.648438 C 141.335938 372.019531 141.597656 372.960938 141.652344 373.117188 C 141.808594 374.269531 143.273438 375.367188 144.421875 375.261719 C 145.574219 375.15625 146.566406 374.949219 147.875 374.84375 C 149.023438 374.738281 150.175781 374.582031 151.324219 374.476562 C 152.476562 374.320312 153.625 374.214844 154.722656 374.058594 C 155.296875 373.953125 155.925781 373.851562 156.5 373.691406 C 157.128906 373.535156 157.652344 373.171875 158.226562 372.960938 C 159.535156 372.28125 159.847656 370.242188 158.226562 369.824219 Z M 158.226562 369.824219 "/><path style=" stroke:none;fill-rule:nonzero;fill:#b6823e;fill-opacity:1;" d="M 491.585938 442.253906 C 491.324219 442.414062 491.796875 442.203125 491.902344 442.152344 C 492.320312 442.046875 491.378906 442.097656 492.164062 442.097656 C 492.371094 442.097656 492.527344 442.097656 492.738281 442.097656 C 492.320312 442.097656 492.894531 442.152344 493 442.152344 C 493.367188 442.253906 494.046875 442.464844 494.203125 442.515625 C 494.046875 442.464844 494.671875 442.777344 494.671875 442.777344 C 494.882812 442.882812 495.039062 442.988281 495.246094 443.039062 C 497.078125 443.980469 498.699219 445.132812 500.582031 445.917969 C 502.308594 446.597656 504.136719 446.804688 505.96875 446.542969 C 507.746094 446.28125 509.734375 445.339844 509.996094 443.355469 C 510.152344 442.414062 509.472656 441.574219 508.476562 441.835938 C 507.851562 441.996094 507.066406 442.203125 506.59375 442.257812 C 506.492188 442.257812 505.96875 442.257812 505.707031 442.257812 C 506.019531 442.308594 505.027344 442.097656 505.132812 442.097656 C 504.816406 441.996094 504.398438 441.785156 504.136719 441.679688 C 503.769531 441.523438 503.40625 441.316406 503.089844 441.105469 C 502.359375 440.6875 501.679688 440.214844 500.949219 439.746094 C 497.445312 437.390625 493.105469 435.300781 489.023438 437.601562 C 487.769531 438.332031 487.351562 440.007812 488.082031 441.261719 C 488.710938 442.621094 490.28125 442.832031 491.585938 442.253906 Z M 491.585938 442.253906 "/><path style=" stroke:none;fill-rule:nonzero;fill:#b6823e;fill-opacity:1;" d="M 535.40625 465.164062 C 544.664062 467.828125 554.179688 470.707031 563.800781 471.648438 C 567.464844 472.011719 571.28125 471.910156 574.730469 470.601562 C 577.816406 469.398438 581.84375 466.574219 581.109375 462.757812 C 581.007812 462.078125 580.117188 461.398438 579.4375 461.5 C 576.71875 461.867188 574.417969 464.011719 571.644531 464.640625 C 568.507812 465.371094 565.164062 465.265625 561.972656 464.902344 C 558.050781 464.429688 554.128906 463.488281 550.257812 462.703125 C 545.5 461.761719 540.792969 461.238281 535.984375 460.613281 C 533.367188 460.195312 532.949219 464.429688 535.40625 465.164062 Z M 535.40625 465.164062 "/><path style=" stroke:none;fill-rule:nonzero;fill:#b6823e;fill-opacity:1;" d="M 602.65625 460.71875 C 605.792969 461.816406 609.296875 461.292969 612.226562 459.878906 C 613.636719 459.199219 614.945312 458.207031 615.9375 457.003906 C 616.460938 456.324219 616.929688 455.644531 617.246094 454.859375 C 617.871094 453.5 618.449219 451.878906 617.140625 450.675781 C 617.347656 451.199219 617.558594 451.667969 617.769531 452.191406 C 617.714844 451.25 617.507812 450.308594 616.511719 449.890625 C 615.570312 449.523438 614.734375 449.945312 614.105469 450.625 C 614.628906 450.414062 615.101562 450.203125 615.625 449.996094 C 614.578125 449.996094 613.898438 450.519531 613.269531 451.355469 C 613.113281 451.566406 612.957031 451.828125 612.800781 452.035156 C 612.746094 452.085938 612.695312 452.191406 612.644531 452.246094 C 612.539062 452.402344 612.589844 452.347656 612.800781 452.035156 C 612.746094 452.035156 612.539062 452.347656 612.484375 452.402344 C 612.328125 452.609375 612.121094 452.769531 611.910156 452.976562 C 611.492188 453.449219 611.074219 453.867188 610.605469 454.230469 C 610.183594 454.597656 611.074219 453.867188 610.65625 454.179688 C 610.5 454.285156 610.394531 454.390625 610.238281 454.492188 C 609.976562 454.648438 609.714844 454.859375 609.453125 455.015625 C 609.191406 455.171875 608.929688 455.332031 608.667969 455.433594 C 608.5625 455.488281 608.40625 455.539062 608.304688 455.589844 C 608.09375 455.695312 608.929688 455.382812 608.355469 455.589844 C 607.78125 455.800781 607.203125 455.957031 606.578125 456.0625 C 606.105469 456.167969 606.523438 456.011719 606.683594 456.0625 C 606.578125 456.011719 606.261719 456.113281 606.210938 456.113281 C 605.898438 456.113281 605.582031 456.167969 605.324219 456.113281 C 605.164062 456.113281 605.0625 456.113281 604.902344 456.113281 C 604.800781 456.113281 604.746094 456.113281 604.640625 456.113281 C 604.433594 456.113281 604.539062 456.113281 604.902344 456.167969 C 604.902344 456.113281 604.015625 455.957031 603.910156 455.957031 C 602.65625 455.644531 601.191406 456.375 600.878906 457.683594 C 600.667969 459.042969 601.398438 460.246094 602.65625 460.71875 Z M 602.65625 460.71875 "/><path style=" stroke:none;fill-rule:nonzero;fill:#b6823e;fill-opacity:1;" d="M 346.632812 410.824219 C 347.105469 423.324219 351.289062 435.5625 353.484375 447.800781 C 355.941406 461.5 355.210938 475.203125 353.796875 488.957031 C 352.542969 501.351562 350.660156 513.800781 351.914062 526.296875 C 352.855469 536.027344 355.578125 547.480469 363.316406 554.171875 C 365.09375 555.742188 368.335938 553.652344 366.820312 551.507812 C 363.679688 547.113281 360.859375 542.929688 359.238281 537.699219 C 357.5625 532.523438 356.832031 527.136719 356.621094 521.695312 C 356.046875 509.199219 357.667969 496.59375 358.714844 484.148438 C 359.757812 471.804688 359.917969 459.617188 357.667969 447.382812 C 355.417969 434.933594 352.175781 422.800781 350.191406 410.300781 C 349.824219 408.367188 346.582031 408.835938 346.632812 410.824219 Z M 346.632812 410.824219 "/></g></svg>