<svg xmlns="http://www.w3.org/2000/svg" xmlns:xlink="http://www.w3.org/1999/xlink" width="1080" zoomAndPan="magnify" viewBox="0 0 810 809.999993" height="1080" preserveAspectRatio="xMidYMid meet" version="1.2"><defs><clipPath id="e6fc80c843"><path d="M 22.59375 22.59375 L 787.40625 22.59375 L 787.40625 787.40625 L 22.59375 787.40625 Z M 22.59375 22.59375 "/></clipPath><clipPath id="00254899ac"><path d="M 405 22.59375 C 193.804688 22.59375 22.59375 193.804688 22.59375 405 C 22.59375 616.195312 193.804688 787.40625 405 787.40625 C 616.195312 787.40625 787.40625 616.195312 787.40625 405 C 787.40625 193.804688 616.195312 22.59375 405 22.59375 Z M 405 22.59375 "/></clipPath><clipPath id="4211ba045d"><path d="M 22.59375 22.59375 L 787.394531 22.59375 L 787.394531 787.394531 L 22.59375 787.394531 Z M 22.59375 22.59375 "/></clipPath><clipPath id="23bd93b2b4"><path d="M 404.996094 22.59375 C 193.800781 22.59375 22.59375 193.800781 22.59375 404.996094 C 22.59375 616.1875 193.800781 787.394531 404.996094 787.394531 C 616.1875 787.394531 787.394531 616.1875 787.394531 404.996094 C 787.394531 193.800781 616.1875 22.59375 404.996094 22.59375 Z M 404.996094 22.59375 "/></clipPath></defs><g id="c993764fde"><g clip-rule="nonzero" clip-path="url(#e6fc80c843)"><g clip-rule="nonzero" clip-path="url(#00254899ac)"><path style=" stroke:none;fill-rule:nonzero;fill:#f5f8fa;fill-opacity:1;" d="M 22.59375 22.59375 L 787.40625 22.59375 L 787.40625 787.40625 L 22.59375 787.40625 Z M 22.59375 22.59375 "/></g></g><g clip-rule="nonzero" clip-path="url(#4211ba045d)"><g clip-rule="nonzero" clip-path="url(#23bd93b2b4)"><path style="fill:none;stroke-width:60;stroke-linecap:butt;stroke-linejoin:miter;stroke:#000000;stroke-opacity:1;stroke-miterlimit:4;" d="M 509.869292 -0.000547711 C 228.275527 -0.000547711 -0.000525711 228.275505 -0.000525711 509.86927 C -0.000525711 791.457825 228.275527 1019.733879 509.869292 1019.733879 C 791.457847 1019.733879 1019.733901 791.457825 1019.733901 509.86927 C 1019.733901 228.275505 791.457847 -0.000547711 509.869292 -0.000547711 Z M 509.869292 -0.000547711 " transform="matrix(0.75,0,0,0.75,22.594144,22.594161)"/></g></g><path style=" stroke:none;fill-rule:nonzero;fill:#568c2a;fill-opacity:1;" d="M 501.421875 319.414062 C 501.421875 319.414062 492.496094 355.878906 532.226562 381.152344 L 543.042969 454.960938 C 543.042969 454.960938 504.566406 422.648438 483.441406 362.167969 C 483.566406 362.167969 479.039062 317.277344 501.421875 319.414062 Z M 501.421875 319.414062 "/><path style=" stroke:none;fill-rule:nonzero;fill:#78ab3e;fill-opacity:1;" d="M 488.972656 376.375 C 488.972656 376.375 476.023438 328.46875 514.375 322.683594 C 514.375 322.683594 570.578125 316.648438 586.296875 307.34375 C 586.296875 307.34375 511.734375 255.539062 486.332031 302.0625 C 486.460938 302.0625 468.605469 331.863281 488.972656 376.375 Z M 488.972656 376.375 "/><path style=" stroke:none;fill-rule:nonzero;fill:#568c2a;fill-opacity:1;" d="M 336.203125 529.777344 C 336.203125 529.777344 371.40625 517.078125 400.832031 553.917969 L 475.394531 556.9375 C 475.394531 556.9375 439.179688 522.105469 376.816406 507.519531 C 376.6875 507.394531 331.675781 507.644531 336.203125 529.777344 Z M 336.203125 529.777344 "/><path style=" stroke:none;fill-rule:nonzero;fill:#78ab3e;fill-opacity:1;" d="M 391.527344 511.292969 C 391.527344 511.292969 342.488281 503.496094 340.855469 542.222656 C 340.855469 542.222656 340.855469 598.808594 333.183594 615.40625 C 333.183594 615.40625 273.710938 546.75 317.339844 516.574219 C 317.339844 516.699219 345.128906 495.828125 391.527344 511.292969 Z M 391.527344 511.292969 "/><path style=" stroke:none;fill-rule:nonzero;fill:#568c2a;fill-opacity:1;" d="M 536.726562 584.070312 L 583.492188 537.300781 L 625.992188 579.800781 L 579.226562 626.566406 Z M 536.726562 584.070312 "/><path style=" stroke:none;fill-rule:nonzero;fill:#78ab3e;fill-opacity:1;" d="M 186.949219 295.023438 C 186.949219 295.023438 291.5625 464.519531 420.949219 570.265625 L 517.769531 531.410156 C 517.769531 531.410156 288.292969 338.527344 186.949219 295.023438 Z M 186.949219 295.023438 "/><path style=" stroke:none;fill-rule:nonzero;fill:#78ab3e;fill-opacity:1;" d="M 294.582031 187.390625 C 294.582031 187.390625 464.078125 292.003906 569.824219 421.390625 L 530.84375 518.207031 C 530.972656 518.207031 338.085938 288.734375 294.582031 187.390625 Z M 294.582031 187.390625 "/><path style=" stroke:none;fill-rule:nonzero;fill:#ffe02f;fill-opacity:1;" d="M 413.152344 293.386719 C 230.957031 139.230469 185.0625 185 185.0625 185 C 185.0625 185 139.292969 230.894531 293.449219 413.089844 C 293.449219 413.089844 479.039062 645.582031 562.40625 562.21875 C 645.644531 478.851562 413.152344 293.386719 413.152344 293.386719 Z M 413.152344 293.386719 "/><path style=" stroke:none;fill-rule:nonzero;fill:#ffbf00;fill-opacity:1;" d="M 265.914062 184.371094 C 271.195312 189.652344 268.929688 200.339844 261.007812 208.261719 C 253.085938 216.183594 242.398438 218.445312 237.117188 213.164062 C 231.839844 207.882812 234.101562 197.195312 242.023438 189.273438 C 249.945312 181.355469 260.632812 179.089844 265.914062 184.371094 Z M 265.914062 184.371094 "/><path style=" stroke:none;fill-rule:nonzero;fill:#f5a100;fill-opacity:1;" d="M 255.351562 202.605469 C 249.316406 208.640625 242.023438 211.78125 235.988281 211.78125 C 236.363281 212.285156 236.742188 212.789062 237.117188 213.292969 C 242.398438 218.574219 253.085938 216.308594 261.007812 208.386719 C 268.929688 200.464844 271.195312 189.777344 265.914062 184.496094 C 265.410156 183.996094 265.03125 183.617188 264.40625 183.367188 C 264.53125 189.273438 261.261719 196.566406 255.351562 202.605469 Z M 255.351562 202.605469 "/><path style=" stroke:none;fill-rule:nonzero;fill:#ffbf00;fill-opacity:1;" d="M 291.816406 196.316406 C 298.101562 202.605469 295.460938 215.429688 285.90625 225.109375 C 276.347656 234.667969 263.523438 237.308594 257.238281 231.019531 C 250.949219 224.734375 253.589844 211.910156 263.148438 202.351562 C 272.578125 192.671875 285.527344 190.03125 291.816406 196.316406 Z M 291.816406 196.316406 "/><path style=" stroke:none;fill-rule:nonzero;fill:#f5a100;fill-opacity:1;" d="M 279.117188 218.195312 C 271.949219 225.363281 263.148438 229.261719 255.855469 229.132812 C 256.230469 229.761719 256.734375 230.390625 257.238281 230.894531 C 263.523438 237.183594 276.347656 234.542969 285.90625 224.984375 C 295.460938 215.429688 298.101562 202.605469 291.816406 196.191406 C 291.3125 195.6875 290.683594 195.183594 290.054688 194.808594 C 290.054688 202.351562 286.28125 211.027344 279.117188 218.195312 Z M 279.117188 218.195312 "/><path style=" stroke:none;fill-rule:nonzero;fill:#ffbf00;fill-opacity:1;" d="M 324.382812 211.28125 C 332.304688 219.203125 329.035156 235.296875 316.964844 247.367188 C 305.019531 259.3125 288.796875 262.707031 280.875 254.785156 C 272.953125 246.863281 276.222656 230.769531 288.292969 218.699219 C 300.367188 206.753906 316.460938 203.359375 324.382812 211.28125 Z M 324.382812 211.28125 "/><path style=" stroke:none;fill-rule:nonzero;fill:#f5a100;fill-opacity:1;" d="M 308.414062 238.816406 C 299.359375 247.871094 288.421875 252.648438 279.242188 252.648438 C 279.746094 253.402344 280.246094 254.15625 281 254.910156 C 288.921875 262.832031 305.019531 259.4375 317.089844 247.492188 C 329.035156 235.546875 332.429688 219.328125 324.507812 211.40625 C 323.878906 210.777344 323.125 210.148438 322.246094 209.644531 C 322.246094 218.699219 317.464844 229.761719 308.414062 238.816406 Z M 308.414062 238.816406 "/><path style=" stroke:none;fill-rule:nonzero;fill:#ffbf00;fill-opacity:1;" d="M 354.054688 233.914062 C 362.605469 242.460938 358.960938 259.941406 346.007812 272.890625 C 333.058594 285.84375 315.582031 289.488281 307.03125 280.9375 C 298.480469 272.390625 302.125 254.910156 315.078125 241.960938 C 328.027344 229.007812 345.507812 225.363281 354.054688 233.914062 Z M 354.054688 233.914062 "/><path style=" stroke:none;fill-rule:nonzero;fill:#f5a100;fill-opacity:1;" d="M 336.828125 263.585938 C 327.148438 273.269531 315.203125 278.550781 305.269531 278.425781 C 305.773438 279.304688 306.402344 280.058594 307.15625 280.8125 C 315.707031 289.363281 333.183594 285.71875 346.132812 272.765625 C 359.085938 259.816406 362.730469 242.335938 354.183594 233.785156 C 353.425781 233.03125 352.671875 232.402344 351.792969 231.902344 C 351.792969 241.960938 346.511719 253.90625 336.828125 263.585938 Z M 336.828125 263.585938 "/><path style=" stroke:none;fill-rule:nonzero;fill:#ffbf00;fill-opacity:1;" d="M 384.484375 258.179688 C 393.035156 266.730469 388.886719 284.710938 375.304688 298.417969 C 361.726562 311.996094 343.621094 316.144531 335.070312 307.59375 C 326.519531 299.046875 330.667969 281.066406 344.25 267.359375 C 357.953125 253.78125 375.933594 249.628906 384.484375 258.179688 Z M 384.484375 258.179688 "/><path style=" stroke:none;fill-rule:nonzero;fill:#f5a100;fill-opacity:1;" d="M 366 289.113281 C 355.691406 299.421875 343.367188 305.082031 333.183594 305.207031 C 333.6875 306.085938 334.316406 306.839844 335.070312 307.59375 C 343.621094 316.144531 361.601562 311.996094 375.304688 298.417969 C 389.011719 284.710938 393.035156 266.730469 384.484375 258.179688 C 383.730469 257.425781 382.976562 256.796875 382.097656 256.292969 C 381.84375 266.480469 376.1875 278.800781 366 289.113281 Z M 366 289.113281 "/><path style=" stroke:none;fill-rule:nonzero;fill:#ffbf00;fill-opacity:1;" d="M 414.535156 282.699219 C 423.589844 291.753906 419.1875 310.738281 404.730469 325.074219 C 390.269531 339.535156 371.28125 343.808594 362.355469 334.882812 C 353.300781 325.828125 357.703125 306.839844 372.035156 292.507812 C 386.496094 278.046875 405.484375 273.644531 414.535156 282.699219 Z M 414.535156 282.699219 "/><path style=" stroke:none;fill-rule:nonzero;fill:#f5a100;fill-opacity:1;" d="M 395.046875 315.390625 C 384.234375 326.203125 371.15625 332.242188 360.46875 332.367188 C 361.097656 333.246094 361.726562 334.125 362.480469 334.882812 C 371.535156 343.933594 390.519531 339.535156 404.855469 325.074219 C 419.316406 310.613281 423.589844 291.625 414.664062 282.699219 C 413.90625 281.945312 413.027344 281.316406 412.148438 280.6875 C 411.769531 291.5 405.859375 304.578125 395.046875 315.390625 Z M 395.046875 315.390625 "/><path style=" stroke:none;fill-rule:nonzero;fill:#ffbf00;fill-opacity:1;" d="M 444.335938 307.59375 C 453.265625 316.523438 448.484375 335.886719 433.523438 350.851562 C 418.558594 365.8125 399.195312 370.589844 390.269531 361.664062 C 381.339844 352.734375 386.121094 333.371094 401.082031 318.410156 C 416.046875 303.445312 435.410156 298.542969 444.335938 307.59375 Z M 444.335938 307.59375 "/><path style=" stroke:none;fill-rule:nonzero;fill:#f5a100;fill-opacity:1;" d="M 423.839844 341.042969 C 412.652344 352.234375 399.320312 358.644531 388.382812 359.023438 C 388.886719 359.902344 389.515625 360.785156 390.269531 361.539062 C 399.195312 370.464844 418.558594 365.6875 433.523438 350.722656 C 448.484375 335.761719 453.265625 316.398438 444.335938 307.46875 C 443.582031 306.714844 442.703125 306.085938 441.820312 305.457031 C 441.445312 316.523438 435.03125 329.851562 423.839844 341.042969 Z M 423.839844 341.042969 "/><path style=" stroke:none;fill-rule:nonzero;fill:#ffbf00;fill-opacity:1;" d="M 472.503906 334 C 481.050781 342.550781 475.898438 361.664062 460.933594 376.625 C 445.972656 391.589844 426.859375 396.746094 418.308594 388.195312 C 409.757812 379.644531 414.914062 360.53125 429.875 345.570312 C 444.839844 330.730469 463.953125 325.449219 472.503906 334 Z M 472.503906 334 "/><path style=" stroke:none;fill-rule:nonzero;fill:#f5a100;fill-opacity:1;" d="M 451.628906 367.320312 C 440.4375 378.511719 427.234375 385.050781 416.421875 385.804688 C 416.925781 386.683594 417.554688 387.566406 418.308594 388.195312 C 426.859375 396.746094 445.972656 391.589844 460.933594 376.625 C 475.898438 361.664062 481.050781 342.550781 472.503906 334 C 471.746094 333.246094 470.992188 332.742188 470.113281 332.113281 C 469.359375 342.929688 462.820312 356.132812 451.628906 367.320312 Z M 451.628906 367.320312 "/><path style=" stroke:none;fill-rule:nonzero;fill:#ffbf00;fill-opacity:1;" d="M 499.03125 362.167969 C 507.582031 370.714844 502.300781 389.828125 487.214844 405.042969 C 472.125 420.132812 452.886719 425.414062 444.335938 416.863281 C 435.785156 408.3125 441.066406 389.199219 456.15625 373.984375 C 471.246094 358.898438 490.484375 353.617188 499.03125 362.167969 Z M 499.03125 362.167969 "/><path style=" stroke:none;fill-rule:nonzero;fill:#f5a100;fill-opacity:1;" d="M 477.910156 395.738281 C 466.59375 407.054688 453.265625 413.71875 442.578125 414.472656 C 443.078125 415.355469 443.707031 416.234375 444.460938 416.863281 C 453.011719 425.414062 472.125 420.132812 487.339844 405.042969 C 502.429688 389.953125 507.710938 370.714844 499.160156 362.167969 C 498.40625 361.410156 497.648438 360.910156 496.769531 360.28125 C 495.890625 371.09375 489.226562 384.421875 477.910156 395.738281 Z M 477.910156 395.738281 "/><path style=" stroke:none;fill-rule:nonzero;fill:#ffbf00;fill-opacity:1;" d="M 523.804688 391.964844 C 532.355469 400.515625 527.449219 419.25 512.863281 433.835938 C 498.277344 448.421875 479.542969 453.328125 470.992188 444.777344 C 462.441406 436.226562 467.347656 417.492188 481.933594 402.90625 C 496.519531 388.320312 515.253906 383.417969 523.804688 391.964844 Z M 523.804688 391.964844 "/><path style=" stroke:none;fill-rule:nonzero;fill:#f5a100;fill-opacity:1;" d="M 503.558594 424.660156 C 492.621094 435.597656 479.667969 441.886719 469.105469 442.386719 C 469.609375 443.269531 470.238281 444.023438 470.992188 444.777344 C 479.542969 453.328125 498.277344 448.421875 512.863281 433.835938 C 527.449219 419.25 532.355469 400.515625 523.804688 391.964844 C 523.050781 391.210938 522.292969 390.582031 521.414062 390.082031 C 520.910156 400.769531 514.5 413.59375 503.558594 424.660156 Z M 503.558594 424.660156 "/><path style=" stroke:none;fill-rule:nonzero;fill:#ffbf00;fill-opacity:1;" d="M 545.304688 425.160156 C 553.855469 433.710938 550.207031 451.191406 537.257812 464.140625 C 524.308594 477.089844 506.828125 480.738281 498.277344 472.1875 C 489.730469 463.636719 493.375 446.160156 506.324219 433.207031 C 519.277344 420.257812 536.753906 416.609375 545.304688 425.160156 Z M 545.304688 425.160156 "/><path style=" stroke:none;fill-rule:nonzero;fill:#f5a100;fill-opacity:1;" d="M 527.953125 454.835938 C 518.269531 464.519531 506.324219 469.800781 496.394531 469.671875 C 496.894531 470.554688 497.523438 471.308594 498.277344 472.0625 C 506.828125 480.613281 524.308594 476.964844 537.257812 464.015625 C 550.207031 451.0625 553.855469 433.585938 545.304688 425.035156 C 544.550781 424.28125 543.796875 423.652344 542.917969 423.148438 C 542.917969 433.207031 537.761719 445.152344 527.953125 454.835938 Z M 527.953125 454.835938 "/><path style=" stroke:none;fill-rule:nonzero;fill:#ffbf00;fill-opacity:1;" d="M 565.421875 456.09375 C 572.96875 463.636719 569.824219 479.105469 558.382812 490.546875 C 546.941406 501.988281 531.472656 505.132812 523.929688 497.585938 C 516.386719 490.042969 519.527344 474.578125 530.972656 463.132812 C 542.414062 451.691406 557.753906 448.550781 565.421875 456.09375 Z M 565.421875 456.09375 "/><path style=" stroke:none;fill-rule:nonzero;fill:#f5a100;fill-opacity:1;" d="M 550.082031 482.371094 C 541.40625 491.046875 530.972656 495.574219 522.167969 495.574219 C 522.671875 496.328125 523.175781 497.085938 523.804688 497.714844 C 531.347656 505.257812 546.8125 502.113281 558.257812 490.671875 C 569.699219 479.230469 572.84375 463.761719 565.296875 456.21875 C 564.667969 455.589844 563.914062 455.085938 563.160156 454.585938 C 563.285156 463.261719 558.757812 473.695312 550.082031 482.371094 Z M 550.082031 482.371094 "/><path style=" stroke:none;fill-rule:nonzero;fill:#ffbf00;fill-opacity:1;" d="M 583.90625 485.769531 C 590.445312 492.304688 587.679688 505.632812 577.746094 515.566406 C 567.8125 525.5 554.484375 528.265625 547.945312 521.730469 C 541.40625 515.191406 544.171875 501.863281 554.105469 491.929688 C 563.914062 481.996094 577.242188 479.230469 583.90625 485.769531 Z M 583.90625 485.769531 "/><path style=" stroke:none;fill-rule:nonzero;fill:#f5a100;fill-opacity:1;" d="M 570.578125 508.527344 C 563.160156 515.945312 553.980469 519.96875 546.4375 519.96875 C 546.8125 520.597656 547.316406 521.226562 547.820312 521.855469 C 554.359375 528.394531 567.6875 525.628906 577.621094 515.695312 C 587.554688 505.761719 590.320312 492.433594 583.78125 485.894531 C 583.277344 485.390625 582.648438 484.886719 582.019531 484.511719 C 582.148438 491.929688 578.121094 500.980469 570.578125 508.527344 Z M 570.578125 508.527344 "/><path style=" stroke:none;fill-rule:nonzero;fill:#ffbf00;fill-opacity:1;" d="M 218.257812 203.484375 C 222.660156 207.882812 231.460938 206 238.125 199.335938 C 244.789062 192.671875 246.550781 183.867188 242.273438 179.46875 C 237.875 175.066406 228.945312 176.953125 222.40625 183.617188 C 215.742188 190.15625 213.984375 199.082031 218.257812 203.484375 Z M 218.257812 203.484375 "/><path style=" stroke:none;fill-rule:nonzero;fill:#f5a100;fill-opacity:1;" d="M 233.472656 194.683594 C 238.503906 189.652344 241.144531 183.617188 241.015625 178.585938 C 241.394531 178.839844 241.898438 179.214844 242.273438 179.59375 C 246.675781 183.996094 244.789062 192.796875 238.125 199.460938 C 231.460938 206.125 222.660156 207.882812 218.257812 203.609375 C 217.882812 203.230469 217.628906 202.855469 217.253906 202.351562 C 222.40625 202.226562 228.441406 199.585938 233.472656 194.683594 Z M 233.472656 194.683594 "/><path style=" stroke:none;fill-rule:nonzero;fill:#ffbf00;fill-opacity:1;" d="M 184.9375 265.347656 C 190.21875 270.628906 200.90625 268.363281 208.828125 260.445312 C 216.75 252.523438 219.011719 241.835938 213.730469 236.554688 C 208.449219 231.273438 197.761719 233.535156 189.839844 241.457031 C 181.917969 249.378906 179.78125 260.066406 184.9375 265.347656 Z M 184.9375 265.347656 "/><path style=" stroke:none;fill-rule:nonzero;fill:#f5a100;fill-opacity:1;" d="M 203.167969 254.660156 C 209.203125 248.625 212.347656 241.332031 212.347656 235.296875 C 212.851562 235.671875 213.355469 236.050781 213.855469 236.425781 C 219.136719 241.707031 216.875 252.394531 208.953125 260.316406 C 201.03125 268.238281 190.34375 270.503906 185.0625 265.222656 C 184.558594 264.84375 184.308594 264.339844 183.929688 263.710938 C 189.96875 263.839844 197.257812 260.695312 203.167969 254.660156 Z M 203.167969 254.660156 "/><path style=" stroke:none;fill-rule:nonzero;fill:#ffbf00;fill-opacity:1;" d="M 197.007812 291.25 C 203.296875 297.535156 216.121094 294.894531 225.800781 285.339844 C 235.359375 275.785156 238 262.957031 231.710938 256.546875 C 225.425781 250.257812 212.601562 252.898438 202.917969 262.457031 C 193.363281 272.011719 190.722656 284.835938 197.007812 291.25 Z M 197.007812 291.25 "/><path style=" stroke:none;fill-rule:nonzero;fill:#f5a100;fill-opacity:1;" d="M 218.886719 278.425781 C 226.054688 271.257812 229.953125 262.457031 229.824219 255.164062 C 230.453125 255.539062 231.082031 256.042969 231.585938 256.546875 C 237.875 262.832031 235.234375 275.65625 225.675781 285.339844 C 216.121094 294.894531 203.296875 297.535156 196.882812 291.25 C 196.378906 290.746094 195.875 290.117188 195.5 289.488281 C 202.917969 289.488281 211.71875 285.589844 218.886719 278.425781 Z M 218.886719 278.425781 "/><path style=" stroke:none;fill-rule:nonzero;fill:#ffbf00;fill-opacity:1;" d="M 211.84375 323.816406 C 219.765625 331.738281 235.863281 328.34375 247.933594 316.398438 C 259.878906 304.453125 263.273438 288.230469 255.351562 280.308594 C 247.429688 272.390625 231.335938 275.65625 219.265625 287.730469 C 207.320312 299.675781 203.925781 315.894531 211.84375 323.816406 Z M 211.84375 323.816406 "/><path style=" stroke:none;fill-rule:nonzero;fill:#f5a100;fill-opacity:1;" d="M 239.382812 307.722656 C 248.433594 298.667969 253.214844 287.730469 253.214844 278.550781 C 253.96875 279.054688 254.722656 279.554688 255.476562 280.308594 C 263.398438 288.230469 260.128906 304.328125 248.058594 316.398438 C 236.113281 328.34375 219.894531 331.738281 211.972656 323.816406 C 211.34375 323.1875 210.714844 322.433594 210.210938 321.550781 C 219.390625 321.679688 230.328125 316.773438 239.382812 307.722656 Z M 239.382812 307.722656 "/><path style=" stroke:none;fill-rule:nonzero;fill:#ffbf00;fill-opacity:1;" d="M 234.605469 353.492188 C 243.15625 362.039062 260.632812 358.394531 273.582031 345.441406 C 286.535156 332.492188 290.179688 315.015625 281.628906 306.464844 C 273.082031 297.914062 255.601562 301.558594 242.652344 314.511719 C 229.699219 327.460938 226.054688 344.941406 234.605469 353.492188 Z M 234.605469 353.492188 "/><path style=" stroke:none;fill-rule:nonzero;fill:#f5a100;fill-opacity:1;" d="M 264.277344 336.136719 C 273.960938 326.457031 279.242188 314.511719 279.117188 304.578125 C 279.996094 305.082031 280.75 305.710938 281.503906 306.464844 C 290.054688 315.015625 286.410156 332.492188 273.457031 345.441406 C 260.507812 358.394531 243.027344 362.039062 234.476562 353.492188 C 233.722656 352.734375 233.09375 351.980469 232.59375 351.101562 C 242.652344 351.101562 254.472656 345.945312 264.277344 336.136719 Z M 264.277344 336.136719 "/><path style=" stroke:none;fill-rule:nonzero;fill:#ffbf00;fill-opacity:1;" d="M 258.746094 383.792969 C 267.296875 392.34375 285.277344 388.195312 298.984375 374.613281 C 312.6875 361.035156 316.710938 342.929688 308.160156 334.378906 C 299.609375 325.828125 281.628906 329.976562 267.925781 343.558594 C 254.34375 357.261719 250.195312 375.242188 258.746094 383.792969 Z M 258.746094 383.792969 "/><path style=" stroke:none;fill-rule:nonzero;fill:#f5a100;fill-opacity:1;" d="M 289.679688 365.308594 C 299.988281 355 305.648438 342.800781 305.773438 332.492188 C 306.652344 332.996094 307.40625 333.625 308.160156 334.378906 C 316.710938 342.929688 312.5625 360.910156 298.984375 374.613281 C 285.277344 388.320312 267.296875 392.34375 258.746094 383.792969 C 257.992188 383.039062 257.363281 382.285156 256.859375 381.40625 C 267.171875 381.277344 279.492188 375.621094 289.679688 365.308594 Z M 289.679688 365.308594 "/><path style=" stroke:none;fill-rule:nonzero;fill:#ffbf00;fill-opacity:1;" d="M 283.390625 413.972656 C 292.445312 423.023438 311.429688 418.625 325.765625 404.289062 C 340.226562 389.828125 344.5 370.84375 335.574219 361.914062 C 326.519531 352.863281 307.53125 357.261719 293.199219 371.597656 C 278.613281 385.929688 274.335938 404.917969 283.390625 413.972656 Z M 283.390625 413.972656 "/><path style=" stroke:none;fill-rule:nonzero;fill:#f5a100;fill-opacity:1;" d="M 315.957031 394.355469 C 326.769531 383.542969 332.804688 370.464844 332.933594 359.777344 C 333.8125 360.40625 334.691406 361.035156 335.445312 361.789062 C 344.5 370.84375 340.097656 389.828125 325.640625 404.164062 C 311.179688 418.625 292.191406 422.898438 283.265625 413.84375 C 282.511719 413.089844 281.882812 412.210938 281.253906 411.332031 C 292.191406 411.203125 305.144531 405.167969 315.957031 394.355469 Z M 315.957031 394.355469 "/><path style=" stroke:none;fill-rule:nonzero;fill:#ffbf00;fill-opacity:1;" d="M 308.160156 443.769531 C 317.089844 452.699219 336.453125 447.921875 351.414062 432.957031 C 366.378906 417.996094 371.15625 398.628906 362.230469 389.703125 C 353.300781 380.777344 333.9375 385.554688 318.976562 400.515625 C 304.011719 415.355469 299.234375 434.84375 308.160156 443.769531 Z M 308.160156 443.769531 "/><path style=" stroke:none;fill-rule:nonzero;fill:#f5a100;fill-opacity:1;" d="M 341.734375 423.148438 C 352.925781 411.960938 359.335938 398.628906 359.714844 387.691406 C 360.59375 388.195312 361.476562 388.824219 362.230469 389.578125 C 371.15625 398.503906 366.378906 417.867188 351.414062 432.832031 C 336.453125 447.792969 317.089844 452.574219 308.160156 443.644531 C 307.40625 442.890625 306.777344 442.011719 306.273438 441.128906 C 317.089844 440.753906 330.542969 434.464844 341.734375 423.148438 Z M 341.734375 423.148438 "/><path style=" stroke:none;fill-rule:nonzero;fill:#ffbf00;fill-opacity:1;" d="M 334.691406 471.8125 C 343.242188 480.359375 362.355469 475.207031 377.316406 460.117188 C 392.28125 445.152344 397.4375 426.042969 388.886719 417.492188 C 380.335938 408.941406 361.222656 414.097656 346.261719 429.058594 C 331.296875 444.273438 326.140625 463.261719 334.691406 471.8125 Z M 334.691406 471.8125 "/><path style=" stroke:none;fill-rule:nonzero;fill:#f5a100;fill-opacity:1;" d="M 368.011719 450.9375 C 379.203125 439.746094 385.742188 426.542969 386.496094 415.730469 C 387.378906 416.234375 388.132812 416.863281 388.886719 417.617188 C 397.4375 426.167969 392.28125 445.28125 377.316406 460.242188 C 362.355469 475.207031 343.242188 480.359375 334.691406 471.9375 C 333.9375 471.183594 333.433594 470.425781 332.804688 469.546875 C 343.492188 468.792969 356.695312 462.253906 368.011719 450.9375 Z M 368.011719 450.9375 "/><path style=" stroke:none;fill-rule:nonzero;fill:#ffbf00;fill-opacity:1;" d="M 362.730469 498.339844 C 371.28125 506.890625 390.394531 501.609375 405.609375 486.523438 C 420.699219 471.433594 425.980469 452.195312 417.429688 443.644531 C 408.878906 435.09375 389.765625 440.375 374.550781 455.464844 C 359.589844 470.679688 354.183594 489.792969 362.730469 498.339844 Z M 362.730469 498.339844 "/><path style=" stroke:none;fill-rule:nonzero;fill:#f5a100;fill-opacity:1;" d="M 396.304688 477.21875 C 407.621094 465.902344 414.285156 452.574219 415.039062 441.886719 C 415.917969 442.386719 416.800781 443.015625 417.429688 443.769531 C 425.980469 452.320312 420.699219 471.433594 405.609375 486.648438 C 390.519531 501.738281 371.28125 507.019531 362.730469 498.46875 C 361.976562 497.714844 361.476562 496.957031 360.847656 496.078125 C 371.660156 495.199219 384.988281 488.535156 396.304688 477.21875 Z M 396.304688 477.21875 "/><path style=" stroke:none;fill-rule:nonzero;fill:#ffbf00;fill-opacity:1;" d="M 392.65625 523.238281 C 401.207031 531.789062 419.945312 526.882812 434.527344 512.296875 C 449.113281 497.714844 454.019531 478.976562 445.46875 470.425781 C 436.917969 461.878906 418.183594 466.78125 403.597656 481.367188 C 388.886719 495.953125 384.109375 514.6875 392.65625 523.238281 Z M 392.65625 523.238281 "/><path style=" stroke:none;fill-rule:nonzero;fill:#f5a100;fill-opacity:1;" d="M 425.222656 502.992188 C 436.164062 492.054688 442.449219 479.105469 442.953125 468.542969 C 443.832031 469.042969 444.589844 469.671875 445.34375 470.425781 C 453.894531 478.976562 448.988281 497.714844 434.402344 512.296875 C 419.816406 526.882812 401.082031 531.789062 392.53125 523.238281 C 391.777344 522.484375 391.273438 521.730469 390.644531 520.847656 C 401.335938 520.21875 414.285156 513.933594 425.222656 502.992188 Z M 425.222656 502.992188 "/><path style=" stroke:none;fill-rule:nonzero;fill:#ffbf00;fill-opacity:1;" d="M 425.726562 544.613281 C 434.277344 553.164062 451.753906 549.515625 464.707031 536.566406 C 477.65625 523.613281 481.304688 506.136719 472.753906 497.585938 C 464.203125 489.035156 446.726562 492.683594 433.773438 505.632812 C 420.824219 518.710938 417.175781 536.0625 425.726562 544.613281 Z M 425.726562 544.613281 "/><path style=" stroke:none;fill-rule:nonzero;fill:#f5a100;fill-opacity:1;" d="M 455.402344 527.386719 C 465.082031 517.707031 470.363281 505.761719 470.238281 495.828125 C 471.117188 496.328125 471.875 496.957031 472.628906 497.714844 C 481.179688 506.261719 477.53125 523.742188 464.582031 536.691406 C 451.628906 549.644531 434.152344 553.289062 425.601562 544.738281 C 424.847656 543.984375 424.21875 543.230469 423.714844 542.351562 C 433.902344 542.351562 445.71875 537.070312 455.402344 527.386719 Z M 455.402344 527.386719 "/><path style=" stroke:none;fill-rule:nonzero;fill:#ffbf00;fill-opacity:1;" d="M 456.660156 564.730469 C 464.203125 572.277344 479.667969 569.132812 491.113281 557.691406 C 502.554688 546.25 505.699219 530.78125 498.152344 523.238281 C 490.609375 515.695312 475.144531 518.835938 463.699219 530.28125 C 452.382812 541.722656 449.113281 557.1875 456.660156 564.730469 Z M 456.660156 564.730469 "/><path style=" stroke:none;fill-rule:nonzero;fill:#f5a100;fill-opacity:1;" d="M 482.9375 549.515625 C 491.613281 540.839844 496.140625 530.40625 496.140625 521.601562 C 496.894531 522.105469 497.648438 522.609375 498.277344 523.238281 C 505.824219 530.78125 502.679688 546.25 491.238281 557.691406 C 479.796875 569.132812 464.328125 572.277344 456.785156 564.730469 C 456.15625 564.101562 455.652344 563.347656 455.148438 562.59375 C 463.828125 562.71875 474.386719 558.066406 482.9375 549.515625 Z M 482.9375 549.515625 "/><path style=" stroke:none;fill-rule:nonzero;fill:#ffbf00;fill-opacity:1;" d="M 486.332031 583.214844 C 492.871094 589.753906 506.199219 586.988281 516.132812 577.054688 C 526.066406 567.121094 528.832031 553.792969 522.292969 547.253906 C 515.757812 540.714844 502.429688 543.480469 492.496094 553.414062 C 482.5625 563.347656 479.796875 576.675781 486.332031 583.214844 Z M 486.332031 583.214844 "/><path style=" stroke:none;fill-rule:nonzero;fill:#f5a100;fill-opacity:1;" d="M 509.09375 570.011719 C 516.511719 562.59375 520.535156 553.414062 520.535156 545.871094 C 521.164062 546.25 521.792969 546.75 522.421875 547.253906 C 528.960938 553.792969 526.191406 567.121094 516.257812 577.054688 C 506.324219 586.988281 492.996094 589.753906 486.460938 583.214844 C 485.957031 582.710938 485.453125 582.082031 485.074219 581.457031 C 492.496094 581.457031 501.671875 577.429688 509.09375 570.011719 Z M 509.09375 570.011719 "/><path style=" stroke:none;fill-rule:nonzero;fill:#ffbf00;fill-opacity:1;" d="M 204.050781 217.691406 C 208.449219 222.09375 206.5625 230.894531 199.898438 237.558594 C 193.234375 244.222656 184.433594 245.984375 180.035156 241.582031 C 175.632812 237.183594 177.519531 228.378906 184.058594 221.714844 C 190.847656 215.175781 199.648438 213.292969 204.050781 217.691406 Z M 204.050781 217.691406 "/><path style=" stroke:none;fill-rule:nonzero;fill:#f5a100;fill-opacity:1;" d="M 195.246094 232.90625 C 190.21875 237.9375 184.183594 240.578125 179.152344 240.449219 C 179.40625 240.828125 179.78125 241.332031 180.160156 241.707031 C 184.558594 246.109375 193.363281 244.222656 200.027344 237.683594 C 206.691406 231.019531 208.449219 222.21875 204.175781 217.816406 C 203.796875 217.441406 203.421875 217.1875 202.917969 216.8125 C 202.917969 221.839844 200.277344 227.878906 195.246094 232.90625 Z M 195.246094 232.90625 "/><path style=" stroke:none;fill-rule:nonzero;fill:#ffc700;fill-opacity:1;" d="M 217 177.832031 C 224.167969 185 221.148438 199.460938 210.335938 210.273438 C 199.523438 221.085938 184.9375 224.105469 177.894531 216.9375 C 170.730469 209.898438 173.746094 195.3125 184.558594 184.496094 C 195.375 173.683594 209.960938 170.664062 217 177.832031 Z M 217 177.832031 "/><path style=" stroke:none;fill-rule:nonzero;fill:#ffa800;fill-opacity:1;" d="M 202.667969 202.605469 C 194.492188 210.777344 184.6875 215.050781 176.386719 215.050781 C 176.890625 215.804688 177.394531 216.433594 177.894531 217.0625 C 185.0625 224.230469 199.523438 221.214844 210.335938 210.398438 C 221.148438 199.585938 224.167969 185 217 177.957031 C 216.371094 177.332031 215.742188 176.828125 214.988281 176.449219 C 215.113281 184.496094 210.714844 194.429688 202.667969 202.605469 Z M 202.667969 202.605469 "/><path style=" stroke:none;fill-rule:nonzero;fill:#ffc700;fill-opacity:1;" d="M 241.769531 200.089844 C 249.316406 207.632812 246.171875 223.097656 234.730469 234.542969 C 223.289062 245.984375 207.820312 249.128906 200.277344 241.582031 C 192.734375 234.039062 195.875 218.574219 207.320312 207.128906 C 218.761719 195.8125 234.226562 192.542969 241.769531 200.089844 Z M 241.769531 200.089844 "/><path style=" stroke:none;fill-rule:nonzero;fill:#ffa800;fill-opacity:1;" d="M 226.429688 226.367188 C 217.753906 235.042969 207.320312 239.570312 198.515625 239.570312 C 199.019531 240.324219 199.523438 241.078125 200.152344 241.707031 C 207.695312 249.253906 223.160156 246.109375 234.605469 234.667969 C 246.046875 223.226562 249.191406 207.757812 241.644531 200.214844 C 241.015625 199.585938 240.261719 199.082031 239.507812 198.578125 C 239.757812 207.257812 235.105469 217.816406 226.429688 226.367188 Z M 226.429688 226.367188 "/><path style=" stroke:none;fill-rule:nonzero;fill:#ffc700;fill-opacity:1;" d="M 271.070312 223.476562 C 279.746094 232.152344 276.097656 249.753906 263.019531 262.832031 C 249.945312 275.910156 232.214844 279.554688 223.664062 270.878906 C 214.988281 262.203125 218.636719 244.601562 231.710938 231.523438 C 244.789062 218.445312 262.390625 214.800781 271.070312 223.476562 Z M 271.070312 223.476562 "/><path style=" stroke:none;fill-rule:nonzero;fill:#ffa800;fill-opacity:1;" d="M 253.589844 253.527344 C 243.78125 263.335938 231.710938 268.617188 221.652344 268.617188 C 222.15625 269.496094 222.785156 270.25 223.539062 271.003906 C 232.214844 279.679688 249.820312 276.035156 262.894531 262.957031 C 275.972656 249.882812 279.617188 232.152344 270.941406 223.601562 C 270.1875 222.847656 269.433594 222.21875 268.554688 221.714844 C 268.679688 231.648438 263.398438 243.59375 253.589844 253.527344 Z M 253.589844 253.527344 "/><path style=" stroke:none;fill-rule:nonzero;fill:#ffc700;fill-opacity:1;" d="M 301.496094 250.636719 C 310.675781 259.941406 306.902344 278.675781 292.820312 292.757812 C 278.738281 306.839844 259.878906 310.613281 250.699219 301.433594 C 241.394531 292.128906 245.292969 273.394531 259.375 259.3125 C 273.457031 245.355469 292.320312 241.457031 301.496094 250.636719 Z M 301.496094 250.636719 "/><path style=" stroke:none;fill-rule:nonzero;fill:#ffa800;fill-opacity:1;" d="M 282.886719 282.824219 C 272.324219 293.386719 259.5 299.046875 248.8125 298.917969 C 249.441406 299.800781 250.070312 300.679688 250.824219 301.433594 C 260.003906 310.738281 278.863281 306.839844 292.945312 292.757812 C 307.03125 278.675781 310.800781 259.816406 301.621094 250.636719 C 300.867188 249.882812 299.988281 249.253906 299.109375 248.625 C 299.109375 259.4375 293.449219 272.261719 282.886719 282.824219 Z M 282.886719 282.824219 "/><path style=" stroke:none;fill-rule:nonzero;fill:#ffc700;fill-opacity:1;" d="M 332.554688 279.179688 C 341.734375 288.359375 337.332031 307.847656 322.621094 322.683594 C 307.910156 337.394531 288.421875 341.921875 279.117188 332.617188 C 269.8125 323.3125 274.335938 303.949219 289.050781 289.113281 C 303.886719 274.402344 323.25 269.875 332.554688 279.179688 Z M 332.554688 279.179688 "/><path style=" stroke:none;fill-rule:nonzero;fill:#ffa800;fill-opacity:1;" d="M 312.5625 312.5 C 301.496094 323.566406 288.167969 329.726562 277.105469 329.851562 C 277.734375 330.730469 278.363281 331.613281 279.117188 332.492188 C 288.421875 341.671875 307.785156 337.269531 322.621094 322.558594 C 337.332031 307.847656 341.859375 288.359375 332.554688 279.054688 C 331.800781 278.296875 330.921875 277.667969 329.914062 277.042969 C 329.789062 288.105469 323.628906 301.433594 312.5625 312.5 Z M 312.5625 312.5 "/><path style=" stroke:none;fill-rule:nonzero;fill:#ffc700;fill-opacity:1;" d="M 363.488281 310.109375 C 372.664062 319.289062 368.265625 338.777344 353.554688 353.617188 C 338.839844 368.328125 319.351562 372.855469 310.046875 363.550781 C 300.742188 354.246094 305.269531 334.882812 319.980469 320.042969 C 334.816406 305.332031 354.308594 300.804688 363.488281 310.109375 Z M 363.488281 310.109375 "/><path style=" stroke:none;fill-rule:nonzero;fill:#ffa800;fill-opacity:1;" d="M 343.492188 343.558594 C 332.429688 354.621094 319.101562 360.785156 308.035156 360.910156 C 308.664062 361.789062 309.292969 362.667969 310.046875 363.550781 C 319.226562 372.855469 338.714844 368.328125 353.554688 353.617188 C 368.265625 338.90625 372.792969 319.414062 363.488281 310.109375 C 362.730469 309.355469 361.851562 308.726562 360.847656 308.097656 C 360.71875 319.039062 354.558594 332.367188 343.492188 343.558594 Z M 343.492188 343.558594 "/><path style=" stroke:none;fill-rule:nonzero;fill:#ffc700;fill-opacity:1;" d="M 394.921875 339.15625 C 404.101562 348.335938 399.195312 368.328125 383.730469 383.792969 C 368.265625 399.257812 348.398438 404.164062 339.09375 394.984375 C 329.789062 385.679688 334.816406 365.8125 350.285156 350.347656 C 365.75 335.007812 385.742188 329.976562 394.921875 339.15625 Z M 394.921875 339.15625 "/><path style=" stroke:none;fill-rule:nonzero;fill:#ffa800;fill-opacity:1;" d="M 373.796875 373.859375 C 362.230469 385.429688 348.523438 391.964844 337.207031 392.46875 C 337.835938 393.351562 338.464844 394.230469 339.21875 395.109375 C 348.523438 404.289062 368.390625 399.386719 383.855469 383.917969 C 399.320312 368.578125 404.226562 348.585938 395.046875 339.28125 C 394.292969 338.527344 393.414062 337.898438 392.40625 337.269531 C 391.902344 348.460938 385.363281 362.292969 373.796875 373.859375 Z M 373.796875 373.859375 "/><path style=" stroke:none;fill-rule:nonzero;fill:#ffc700;fill-opacity:1;" d="M 425.851562 367.320312 C 435.03125 376.5 429.5 397.121094 413.277344 413.34375 C 397.058594 429.5625 376.4375 435.09375 367.257812 425.914062 C 357.953125 416.609375 363.613281 395.988281 379.832031 379.894531 C 395.925781 363.800781 416.546875 358.144531 425.851562 367.320312 Z M 425.851562 367.320312 "/><path style=" stroke:none;fill-rule:nonzero;fill:#ffa800;fill-opacity:1;" d="M 403.21875 403.410156 C 391.023438 415.605469 376.816406 422.648438 365.246094 423.402344 C 365.875 424.28125 366.503906 425.289062 367.257812 426.042969 C 376.5625 435.21875 397.058594 429.6875 413.277344 413.46875 C 429.5 397.246094 435.03125 376.625 425.851562 367.449219 C 425.097656 366.691406 424.21875 366.0625 423.210938 365.4375 C 422.457031 377.003906 415.417969 391.210938 403.21875 403.410156 Z M 403.21875 403.410156 "/><path style=" stroke:none;fill-rule:nonzero;fill:#ffc700;fill-opacity:1;" d="M 453.390625 400.015625 C 462.695312 409.320312 458.167969 428.683594 443.457031 443.394531 C 428.746094 458.105469 409.253906 462.632812 400.078125 453.328125 C 390.773438 444.023438 395.296875 424.660156 410.011719 409.945312 C 424.722656 395.234375 444.085938 390.710938 453.390625 400.015625 Z M 453.390625 400.015625 "/><path style=" stroke:none;fill-rule:nonzero;fill:#ffa800;fill-opacity:1;" d="M 433.398438 433.335938 C 422.332031 444.398438 409.003906 450.5625 397.9375 450.6875 C 398.566406 451.566406 399.195312 452.445312 399.949219 453.328125 C 409.128906 462.507812 428.621094 458.105469 443.332031 443.394531 C 458.042969 428.683594 462.570312 409.191406 453.265625 400.015625 C 452.507812 399.257812 451.628906 398.628906 450.625 398 C 450.625 409.066406 444.460938 422.269531 433.398438 433.335938 Z M 433.398438 433.335938 "/><path style=" stroke:none;fill-rule:nonzero;fill:#ffc700;fill-opacity:1;" d="M 481.179688 430.316406 C 490.355469 439.621094 486.585938 458.480469 472.503906 472.4375 C 458.417969 486.523438 439.558594 490.292969 430.378906 481.117188 C 421.074219 471.8125 424.972656 453.074219 439.054688 438.992188 C 453.136719 425.035156 472 421.136719 481.179688 430.316406 Z M 481.179688 430.316406 "/><path style=" stroke:none;fill-rule:nonzero;fill:#ffa800;fill-opacity:1;" d="M 462.570312 462.507812 C 452.007812 473.066406 439.179688 478.726562 428.492188 478.601562 C 429.121094 479.480469 429.75 480.359375 430.503906 481.117188 C 439.683594 490.421875 458.546875 486.523438 472.628906 472.4375 C 486.710938 458.355469 490.484375 439.496094 481.304688 430.316406 C 480.550781 429.5625 479.667969 428.933594 478.789062 428.304688 C 478.664062 439.117188 473.003906 451.945312 462.570312 462.507812 Z M 462.570312 462.507812 "/><path style=" stroke:none;fill-rule:nonzero;fill:#ffc700;fill-opacity:1;" d="M 510.601562 459.738281 C 519.78125 468.917969 516.007812 487.90625 501.925781 501.863281 C 487.84375 515.945312 468.980469 519.71875 459.800781 510.539062 C 450.496094 501.234375 454.394531 482.371094 468.480469 468.414062 C 482.5625 454.457031 501.421875 450.5625 510.601562 459.738281 Z M 510.601562 459.738281 "/><path style=" stroke:none;fill-rule:nonzero;fill:#ffa800;fill-opacity:1;" d="M 491.992188 491.929688 C 481.429688 502.492188 468.605469 508.148438 457.917969 508.023438 C 458.546875 508.902344 459.175781 509.785156 459.929688 510.539062 C 469.234375 519.84375 487.96875 515.945312 502.050781 501.863281 C 516.132812 487.78125 519.90625 468.917969 510.726562 459.738281 C 509.972656 458.984375 509.09375 458.355469 508.210938 457.726562 C 508.085938 468.542969 502.554688 481.367188 491.992188 491.929688 Z M 491.992188 491.929688 "/><path style=" stroke:none;fill-rule:nonzero;fill:#ffc700;fill-opacity:1;" d="M 539.269531 488.410156 C 548.449219 497.714844 544.675781 516.574219 530.59375 530.53125 C 516.511719 544.613281 497.648438 548.386719 488.472656 539.207031 C 479.167969 529.902344 483.0625 511.167969 497.148438 497.085938 C 511.105469 483 529.964844 479.105469 539.269531 488.410156 Z M 539.269531 488.410156 "/><path style=" stroke:none;fill-rule:nonzero;fill:#ffa800;fill-opacity:1;" d="M 520.535156 520.472656 C 509.972656 531.035156 497.148438 536.691406 486.460938 536.566406 C 487.089844 537.445312 487.714844 538.328125 488.472656 539.082031 C 497.648438 548.386719 516.511719 544.488281 530.59375 530.40625 C 544.675781 516.324219 548.449219 497.460938 539.269531 488.28125 C 538.515625 487.527344 537.636719 486.898438 536.753906 486.269531 C 536.753906 497.085938 531.097656 509.910156 520.535156 520.472656 Z M 520.535156 520.472656 "/><path style=" stroke:none;fill-rule:nonzero;fill:#ffc700;fill-opacity:1;" d="M 573.722656 516.324219 C 584.160156 526.757812 579.757812 548.007812 563.914062 563.851562 C 548.070312 579.695312 526.820312 584.09375 516.386719 573.660156 C 505.949219 563.222656 510.351562 541.847656 526.191406 526.128906 C 541.910156 510.285156 563.285156 505.886719 573.722656 516.324219 Z M 573.722656 516.324219 "/><path style=" stroke:none;fill-rule:nonzero;fill:#ffa800;fill-opacity:1;" d="M 552.597656 552.535156 C 540.652344 564.480469 526.191406 570.765625 513.996094 570.765625 C 514.625 571.773438 515.378906 572.777344 516.257812 573.660156 C 526.695312 584.09375 547.945312 579.695312 563.789062 563.851562 C 579.632812 548.007812 584.03125 526.757812 573.597656 516.324219 C 572.714844 515.441406 571.710938 514.6875 570.703125 514.058594 C 570.957031 526.128906 564.542969 540.589844 552.597656 552.535156 Z M 552.597656 552.535156 "/><path style=" stroke:none;fill-rule:nonzero;fill:#84ba3e;fill-opacity:1;" d="M 569.195312 569.132812 C 569.195312 569.132812 431.386719 465.648438 341.480469 492.304688 C 341.480469 492.304688 472.25 670.980469 569.195312 569.132812 Z M 569.195312 569.132812 "/><path style=" stroke:none;fill-rule:nonzero;fill:#84ba3e;fill-opacity:1;" d="M 569.070312 569.257812 C 569.070312 569.257812 465.585938 431.449219 492.242188 341.546875 C 492.242188 341.546875 670.917969 472.3125 569.070312 569.257812 Z M 569.070312 569.257812 "/><path style=" stroke:none;fill-rule:nonzero;fill:#78ab3e;fill-opacity:1;" d="M 438.175781 438.363281 C 438.175781 438.363281 500.164062 648.851562 576.238281 576.425781 C 648.664062 500.351562 438.175781 438.363281 438.175781 438.363281 Z M 438.175781 438.363281 "/></g></svg>