<svg xmlns="http://www.w3.org/2000/svg" xmlns:xlink="http://www.w3.org/1999/xlink" width="1080" zoomAndPan="magnify" viewBox="0 0 810 809.999993" height="1080" preserveAspectRatio="xMidYMid meet" version="1.2"><defs><clipPath id="fa61bf5ba5"><path d="M 22.59375 22.59375 L 787.40625 22.59375 L 787.40625 787.40625 L 22.59375 787.40625 Z M 22.59375 22.59375 "/></clipPath><clipPath id="ed6d435c9e"><path d="M 405 22.59375 C 193.804688 22.59375 22.59375 193.804688 22.59375 405 C 22.59375 616.195312 193.804688 787.40625 405 787.40625 C 616.195312 787.40625 787.40625 616.195312 787.40625 405 C 787.40625 193.804688 616.195312 22.59375 405 22.59375 Z M 405 22.59375 "/></clipPath><clipPath id="0320d6256f"><path d="M 22.59375 22.59375 L 787.394531 22.59375 L 787.394531 787.394531 L 22.59375 787.394531 Z M 22.59375 22.59375 "/></clipPath><clipPath id="524f4441cc"><path d="M 404.996094 22.59375 C 193.800781 22.59375 22.59375 193.800781 22.59375 404.996094 C 22.59375 616.1875 193.800781 787.394531 404.996094 787.394531 C 616.1875 787.394531 787.394531 616.1875 787.394531 404.996094 C 787.394531 193.800781 616.1875 22.59375 404.996094 22.59375 Z M 404.996094 22.59375 "/></clipPath><clipPath id="51547e62eb"><path d="M 77 168 L 719 168 L 719 610 L 77 610 Z M 77 168 "/></clipPath><clipPath id="8fcacc1af4"><path d="M 53.570312 454.941406 L 654.199219 151.898438 L 756.566406 354.785156 L 155.933594 657.828125 Z M 53.570312 454.941406 "/></clipPath><clipPath id="944414ef32"><path d="M 53.570312 454.941406 L 654.199219 151.898438 L 756.566406 354.785156 L 155.933594 657.828125 Z M 53.570312 454.941406 "/></clipPath><clipPath id="dfd1348e03"><path d="M 251 269 L 576 269 L 576 536 L 251 536 Z M 251 269 "/></clipPath><clipPath id="dc7c281c5e"><path d="M 53.570312 454.941406 L 654.199219 151.898438 L 756.566406 354.785156 L 155.933594 657.828125 Z M 53.570312 454.941406 "/></clipPath><clipPath id="16976eea05"><path d="M 53.570312 454.941406 L 654.199219 151.898438 L 756.566406 354.785156 L 155.933594 657.828125 Z M 53.570312 454.941406 "/></clipPath><clipPath id="3fdfd092a4"><path d="M 276 281 L 559 281 L 559 524 L 276 524 Z M 276 281 "/></clipPath><clipPath id="727ef08842"><path d="M 53.570312 454.941406 L 654.199219 151.898438 L 756.566406 354.785156 L 155.933594 657.828125 Z M 53.570312 454.941406 "/></clipPath><clipPath id="2a7a0481c3"><path d="M 53.570312 454.941406 L 654.199219 151.898438 L 756.566406 354.785156 L 155.933594 657.828125 Z M 53.570312 454.941406 "/></clipPath><clipPath id="d1182c36aa"><path d="M 109 223 L 711 223 L 711 580 L 109 580 Z M 109 223 "/></clipPath><clipPath id="ae201cf492"><path d="M 53.570312 454.941406 L 654.199219 151.898438 L 756.566406 354.785156 L 155.933594 657.828125 Z M 53.570312 454.941406 "/></clipPath><clipPath id="1023fd3b04"><path d="M 53.570312 454.941406 L 654.199219 151.898438 L 756.566406 354.785156 L 155.933594 657.828125 Z M 53.570312 454.941406 "/></clipPath><clipPath id="58687b2175"><path d="M 75 166 L 727 166 L 727 615 L 75 615 Z M 75 166 "/></clipPath><clipPath id="e4faa2b17a"><path d="M 53.570312 454.941406 L 654.199219 151.898438 L 756.566406 354.785156 L 155.933594 657.828125 Z M 53.570312 454.941406 "/></clipPath><clipPath id="92ca1eada5"><path d="M 53.570312 454.941406 L 654.199219 151.898438 L 756.566406 354.785156 L 155.933594 657.828125 Z M 53.570312 454.941406 "/></clipPath></defs><g id="4b9f34c66f"><g clip-rule="nonzero" clip-path="url(#fa61bf5ba5)"><g clip-rule="nonzero" clip-path="url(#ed6d435c9e)"><path style=" stroke:none;fill-rule:nonzero;fill:#f5f8fa;fill-opacity:1;" d="M 22.59375 22.59375 L 787.40625 22.59375 L 787.40625 787.40625 L 22.59375 787.40625 Z M 22.59375 22.59375 "/></g></g><g clip-rule="nonzero" clip-path="url(#0320d6256f)"><g clip-rule="nonzero" clip-path="url(#524f4441cc)"><path style="fill:none;stroke-width:60;stroke-linecap:butt;stroke-linejoin:miter;stroke:#000000;stroke-opacity:1;stroke-miterlimit:4;" d="M 509.869292 -0.000493951 C 228.275527 -0.000493951 -0.000525711 228.275559 -0.000525711 509.869323 C -0.000525711 791.457879 228.275527 1019.733932 509.869292 1019.733932 C 791.457847 1019.733932 1019.733901 791.457879 1019.733901 509.869323 C 1019.733901 228.275559 791.457847 -0.000493951 509.869292 -0.000493951 Z M 509.869292 -0.000493951 " transform="matrix(0.75,0,0,0.75,22.594144,22.59412)"/></g></g><g clip-rule="nonzero" clip-path="url(#51547e62eb)"><g clip-rule="nonzero" clip-path="url(#8fcacc1af4)"><g clip-rule="nonzero" clip-path="url(#944414ef32)"><path style=" stroke:none;fill-rule:nonzero;fill:#bf7111;fill-opacity:1;" d="M 262.304688 470.207031 C 262.304688 470.207031 261.917969 470.03125 261.25 469.820312 C 258.871094 469.070312 252.910156 467.917969 248.226562 472.996094 C 240.773438 481.070312 238.1875 482.375 238.1875 482.375 C 238.1875 482.375 179.613281 464.082031 145.675781 462.496094 C 111.734375 460.910156 77.695312 472.691406 77.429688 478.582031 C 77.160156 484.46875 89.726562 502.957031 89.726562 502.957031 C 89.726562 502.957031 88.199219 519.914062 95.289062 533.25 C 102.375 546.582031 106.285156 555.765625 111.023438 554.453125 C 111.023438 554.453125 116.394531 570.089844 127.925781 579.382812 C 139.460938 588.671875 156.171875 599.667969 160.914062 599.074219 C 165.660156 598.480469 168.085938 593.300781 168.085938 593.300781 C 168.085938 593.300781 203.503906 608.527344 212.710938 609.640625 C 221.917969 610.753906 225.070312 607.722656 231.371094 600.226562 C 237.675781 592.726562 249.875 584.777344 254.566406 568.378906 C 259.253906 551.976562 269.789062 518.59375 266.566406 499.359375 L 274.75 494.875 C 274.75 494.875 315.722656 539.675781 325.917969 535.613281 C 336.117188 531.550781 568.808594 414.503906 574.246094 406.003906 C 579.6875 397.5 571.289062 334.457031 571.289062 334.457031 L 581.480469 328.238281 C 581.480469 328.238281 595.785156 350.878906 604.289062 357.023438 C 612.789062 363.171875 687.894531 379.246094 706.859375 374.710938 C 725.824219 370.175781 716.683594 296.367188 715.632812 284.300781 C 714.585938 272.238281 703.222656 270.414062 703.222656 270.414062 C 703.222656 270.414062 691.03125 234.117188 670.539062 209.917969 C 650.042969 185.71875 630.128906 164.105469 624.828125 169.296875 C 619.527344 174.492188 574.691406 226.96875 574.617188 248.957031 C 574.539062 270.949219 578.648438 295.496094 578.648438 295.496094 L 557.832031 306.359375 C 557.832031 306.359375 509.253906 265.753906 505.089844 268.214844 C 500.925781 270.675781 266.960938 395.195312 251.171875 403.160156 C 235.378906 411.128906 262.304688 470.207031 262.304688 470.207031 Z M 262.304688 470.207031 "/></g></g></g><g clip-rule="nonzero" clip-path="url(#dfd1348e03)"><g clip-rule="nonzero" clip-path="url(#dc7c281c5e)"><g clip-rule="nonzero" clip-path="url(#16976eea05)"><path style=" stroke:none;fill-rule:nonzero;fill:#f13636;fill-opacity:1;" d="M 550.785156 349.5 L 575.808594 399.09375 C 575.542969 402.332031 575.054688 404.746094 574.234375 405.988281 C 568.8125 414.492188 336.121094 531.546875 325.910156 535.605469 L 325.847656 535.636719 L 324.253906 535.867188 L 324.210938 535.855469 L 251.148438 403.15625 C 266.246094 395.539062 480.761719 281.433594 503.257812 269.210938 C 517.863281 292.515625 540.75 329.613281 550.785156 349.5 Z M 550.785156 349.5 "/></g></g></g><g clip-rule="nonzero" clip-path="url(#3fdfd092a4)"><g clip-rule="nonzero" clip-path="url(#727ef08842)"><g clip-rule="nonzero" clip-path="url(#2a7a0481c3)"><path style=" stroke:none;fill-rule:nonzero;fill:#702500;fill-opacity:1;" d="M 558.21875 416.265625 C 558.21875 416.265625 491.777344 452.414062 461.054688 467.914062 C 430.335938 483.414062 350.515625 523.683594 350.515625 523.683594 L 276.234375 390.007812 C 291.332031 382.390625 458.207031 293.523438 480.703125 281.300781 C 495.308594 304.605469 558.21875 416.265625 558.21875 416.265625 Z M 558.21875 416.265625 "/></g></g></g><g clip-rule="nonzero" clip-path="url(#d1182c36aa)"><g clip-rule="nonzero" clip-path="url(#ae201cf492)"><g clip-rule="nonzero" clip-path="url(#1023fd3b04)"><path style=" stroke:none;fill-rule:nonzero;fill:#ffffff;fill-opacity:1;" d="M 274.644531 414.613281 C 278.03125 432.992188 287.601562 455.636719 301.65625 468.410156 C 304.113281 470.644531 307.9375 468.257812 306.523438 465.070312 C 298.574219 447.140625 285.523438 433 280.25 413.484375 C 279.296875 409.949219 273.96875 410.964844 274.644531 414.613281 Z M 486.308594 320.210938 C 493.035156 318.628906 499.320312 316.3125 505.554688 313.347656 C 510.84375 310.828125 516.410156 308.285156 518.71875 302.621094 C 519.363281 301.035156 518.277344 298.824219 516.59375 298.414062 C 511.242188 297.121094 507.171875 299.417969 502.457031 301.867188 C 496.089844 305.171875 490.003906 308.90625 483.332031 311.589844 C 478.464844 313.546875 481.320312 321.386719 486.308594 320.210938 Z M 307.007812 413.980469 C 335.136719 401.664062 362.816406 388.308594 390.3125 374.632812 C 416.125 361.789062 444.242188 349.378906 466.496094 330.722656 C 469.164062 328.484375 466.109375 324.164062 463.066406 325.734375 C 437.292969 339.015625 412.359375 353.917969 386.5625 367.195312 C 359.277344 381.238281 331.414062 394.296875 304.753906 409.515625 C 301.945312 411.117188 304.050781 415.273438 307.007812 413.980469 Z M 225.84375 574.636719 C 237.371094 567.648438 249.277344 555.480469 252.457031 541.96875 C 253.121094 539.183594 249.617188 535.945312 247.246094 538.585938 C 238.4375 548.410156 233.925781 560.253906 222.414062 567.835938 C 218.398438 570.480469 221.585938 577.214844 225.84375 574.636719 Z M 161.359375 579.136719 C 178.128906 577.585938 199.769531 572.441406 210.027344 557.816406 C 211.550781 555.636719 208.953125 553.199219 206.753906 554.171875 C 190.898438 561.152344 177.597656 569.710938 160.050781 572.597656 C 155.710938 573.3125 157.179688 579.519531 161.359375 579.136719 Z M 165.308594 542.261719 C 171.457031 537.1875 177.457031 531.949219 183.804688 527.125 C 193.304688 519.914062 203.21875 517.03125 214.800781 515.097656 C 217.699219 514.609375 217.105469 510.601562 214.464844 510.230469 C 192.34375 507.101562 176.667969 524.898438 161.996094 538.613281 C 159.675781 540.789062 162.863281 544.277344 165.308594 542.261719 Z M 131.453125 533.945312 C 138.496094 528.121094 146.136719 521.789062 151.601562 514.417969 C 152.972656 512.570312 150.347656 510.753906 148.722656 511.972656 C 141.4375 517.449219 135.441406 524.738281 128.414062 530.597656 C 126.171875 532.464844 129.207031 535.800781 131.453125 533.945312 Z M 112.835938 511.410156 C 122.109375 505.21875 131.164062 498.726562 140.425781 492.53125 C 152.625 484.375 165.109375 481.757812 179.292969 479.625 C 181.941406 479.226562 182.191406 475.125 179.609375 474.414062 C 152.378906 466.988281 128.484375 491.269531 110.5625 508.105469 C 108.960938 509.613281 110.878906 512.71875 112.835938 511.410156 Z M 667.175781 353.59375 C 683.910156 327.675781 685.445312 290.25 675.058594 261.613281 C 674.085938 258.945312 669.609375 259.980469 669.648438 262.726562 C 670.09375 292.992188 677.007812 322.058594 662.644531 350.660156 C 661.117188 353.695312 665.238281 356.589844 667.175781 353.59375 Z M 704.246094 356.136719 C 707.757812 349.03125 708.050781 340.167969 708.972656 332.402344 C 710.035156 323.453125 711.039062 314.113281 709.265625 305.195312 C 708.859375 303.132812 705.855469 302.945312 705.203125 304.953125 C 702.726562 312.628906 701.890625 320.902344 701.097656 328.886719 C 700.257812 337.300781 698.15625 347.1875 700.5625 355.433594 C 700.996094 356.925781 703.375 357.902344 704.246094 356.136719 Z M 638.175781 340.667969 C 645.070312 334.023438 651.808594 325.988281 654.859375 316.796875 C 655.742188 314.148438 652.238281 311.609375 650.160156 313.746094 C 643.742188 320.355469 639.964844 328.980469 633.804688 335.84375 C 631.0625 338.898438 635.089844 343.636719 638.175781 340.667969 Z M 610.824219 345.996094 C 623.996094 352.847656 638.992188 358.464844 654.078125 356.171875 C 657.273438 355.683594 656.6875 351.078125 653.710938 350.753906 C 639.558594 349.195312 626.351562 346.75 613.273438 340.882812 C 610.316406 339.558594 607.949219 344.5 610.824219 345.996094 Z M 622.4375 300.605469 C 630.621094 286.707031 640.367188 273.710938 646.550781 258.738281 C 647.945312 255.359375 642.972656 253.335938 641.003906 256.09375 C 631.824219 268.972656 623.332031 282.414062 616.035156 296.464844 C 613.820312 300.742188 619.902344 304.902344 622.4375 300.605469 Z M 608.148438 248.300781 C 609.269531 244.496094 611.082031 241.121094 613.207031 237.785156 C 615.28125 234.527344 618.339844 230.976562 619.308594 227.21875 C 619.980469 224.59375 617.167969 222.867188 615.0625 224.457031 C 612.007812 226.769531 609.6875 231.003906 607.808594 234.296875 C 605.617188 238.144531 603.824219 242.238281 602.871094 246.566406 C 602.117188 249.992188 607.117188 251.804688 608.148438 248.300781 Z M 588.300781 286.125 C 587.410156 277.804688 586.257812 269.539062 586.355469 261.148438 C 586.402344 256.710938 587.074219 252.296875 588.335938 248.046875 C 589.40625 244.414062 591.957031 241.75 593.425781 238.367188 C 593.996094 237.050781 592.359375 235.867188 591.207031 236.453125 C 575.738281 244.269531 583.402344 273.941406 585.34375 286.722656 C 585.632812 288.667969 588.503906 288.027344 588.300781 286.125 Z M 588.300781 286.125 "/></g></g></g><g clip-rule="nonzero" clip-path="url(#58687b2175)"><g clip-rule="nonzero" clip-path="url(#e4faa2b17a)"><g clip-rule="nonzero" clip-path="url(#92ca1eada5)"><path style=" stroke:none;fill-rule:nonzero;fill:#000000;fill-opacity:1;" d="M 718.015625 291.292969 C 717.917969 290.308594 717.824219 289.324219 717.726562 288.355469 C 717.546875 286.578125 717.40625 285.152344 717.316406 284.15625 C 716.5625 275.414062 710.832031 271.511719 706.988281 269.859375 C 705.097656 266.109375 702.898438 262.175781 700.382812 258.328125 C 695.054688 245.507812 685.152344 224.554688 671.832031 208.824219 C 643.597656 175.484375 630.828125 164.238281 624.722656 167.316406 C 624.328125 167.515625 623.960938 167.777344 623.644531 168.09375 C 619.542969 172.109375 573.003906 225.601562 572.925781 248.957031 C 572.855469 268.066406 575.96875 289.316406 576.78125 294.5625 L 558.050781 304.339844 C 535.78125 285.757812 508.765625 264.472656 504.226562 266.761719 C 504.003906 266.894531 503.441406 267.203125 502.578125 267.675781 C 502.550781 267.6875 502.519531 267.6875 502.492188 267.699219 C 502.480469 267.707031 502.464844 267.714844 502.445312 267.722656 C 498.945312 269.625 490.964844 273.902344 479.910156 279.808594 C 479.90625 279.8125 479.898438 279.8125 479.894531 279.816406 C 479.742188 279.898438 479.5625 279.996094 479.398438 280.085938 C 417.714844 313.039062 262.46875 395.546875 250.382812 401.644531 C 250.328125 401.675781 250.289062 401.726562 250.238281 401.761719 C 235.503906 409.632812 253.464844 454.1875 259.3125 467.640625 C 257 467.285156 253.941406 467.328125 250.886719 468.867188 C 249.453125 469.589844 248.140625 470.597656 246.980469 471.855469 C 241.742188 477.527344 238.976562 479.769531 237.929688 480.53125 C 230.902344 478.378906 177.417969 462.285156 145.757812 460.804688 C 121.003906 459.648438 95.328125 465.464844 82.761719 471.804688 C 78.136719 474.140625 75.839844 476.332031 75.738281 478.503906 C 75.472656 484.410156 85.699219 500 87.996094 503.421875 C 87.785156 506.664062 87.230469 521.703125 93.789062 534.046875 C 94.773438 535.890625 95.691406 537.65625 96.5625 539.324219 C 100.363281 546.621094 103.195312 552.046875 106.167969 554.621094 C 106.574219 557.90625 107.445312 561.332031 109.121094 564.4375 C 109.871094 565.8125 110.566406 567.132812 111.222656 568.382812 C 115.253906 576.039062 117.851562 580.964844 122.179688 580.613281 C 123.257812 583.667969 127.160156 593.015625 135.816406 598.4375 C 144.589844 603.945312 160.625 612.210938 166.3125 611.035156 C 167.285156 610.824219 168.257812 610.484375 169.203125 610.007812 C 171.484375 608.855469 173.167969 607.15625 174.125 606.011719 C 180.226562 607.621094 206.144531 614.339844 214.015625 614.304688 C 223.144531 614.269531 227.378906 610.933594 234.164062 604.265625 C 235.800781 602.65625 237.847656 600.925781 240.007812 599.101562 C 246.703125 593.464844 255.027344 586.441406 259.757812 575.910156 L 261.472656 572.125 C 267.984375 557.796875 278.789062 534.015625 278.277344 519.804688 L 284.277344 516.582031 C 291.578125 523.246094 319.496094 547.824219 329.726562 543.484375 C 333.230469 541.996094 361.75 527.816406 397.53125 509.761719 C 438.898438 488.890625 574.253906 420.3125 579.316406 414.128906 C 585.261719 406.867188 584.34375 365.128906 584.105469 357.101562 L 592.019531 352.484375 C 594.644531 356.242188 603.839844 368.929688 610.421875 372.519531 C 618.859375 377.117188 688.726562 381.984375 707.28125 376.410156 C 707.945312 376.21875 708.597656 375.953125 709.230469 375.640625 C 709.253906 375.625 709.28125 375.617188 709.308594 375.605469 C 709.328125 375.59375 709.34375 375.582031 709.363281 375.570312 C 723.941406 368.121094 725.898438 331.707031 726.097656 304.9375 C 726.105469 303.527344 726.117188 302.410156 726.136719 301.617188 C 726.292969 294.863281 721.484375 292.28125 718.015625 291.292969 Z M 99.570312 537.757812 C 98.691406 536.082031 97.765625 534.308594 96.785156 532.453125 C 90.023438 519.738281 91.398438 503.273438 91.414062 503.105469 C 91.449219 502.71875 91.347656 502.328125 91.128906 502.003906 C 86.394531 495.035156 78.945312 482.535156 79.121094 478.664062 C 79.125 478.648438 79.441406 477.269531 84.285156 474.828125 C 96.164062 468.835938 121.6875 463.066406 145.59375 464.1875 C 178.925781 465.742188 237.101562 483.8125 237.679688 483.992188 C 237.71875 484.003906 237.753906 483.996094 237.789062 484.003906 C 237.828125 484.011719 237.859375 484.039062 237.898438 484.046875 C 237.976562 484.058594 245.878906 485.488281 257.863281 491.902344 C 262.328125 494.292969 264.53125 498.933594 264.917969 499.816406 C 267.714844 517.046875 259.292969 546.007812 254.257812 563.335938 L 252.933594 567.914062 C 249.542969 579.753906 241.949219 587.175781 235.851562 593.140625 C 233.722656 595.21875 231.714844 597.183594 230.070312 599.132812 C 226.960938 602.839844 224.542969 605.574219 221.785156 606.964844 C 219.464844 608.136719 216.8125 608.433594 212.914062 607.960938 C 204.054688 606.886719 169.105469 591.894531 168.753906 591.742188 C 167.921875 591.382812 166.9375 591.761719 166.550781 592.578125 C 166.535156 592.609375 165.117188 595.527344 162.546875 596.824219 C 161.953125 597.125 161.332031 597.316406 160.707031 597.394531 C 157.203125 597.832031 142.089844 588.617188 128.988281 578.0625 C 117.988281 569.199219 112.679688 554.050781 112.628906 553.898438 C 112.339844 553.050781 111.441406 552.582031 110.574219 552.820312 C 107.8125 553.585938 104.175781 546.601562 99.570312 537.757812 Z M 252.410156 471.886719 C 255.671875 470.242188 259.027344 470.898438 260.742188 471.4375 C 260.835938 471.46875 260.917969 471.496094 261 471.523438 C 263.902344 478.375 268.441406 489.003906 272.199219 494.339844 L 267.3125 497.015625 C 266.132812 494.851562 263.640625 491.152344 259.464844 488.917969 C 251.664062 484.746094 245.570312 482.609375 242.003906 481.574219 C 243.664062 480.125 246.078125 477.816406 249.46875 474.140625 C 250.351562 473.183594 251.34375 472.425781 252.410156 471.886719 Z M 669.242188 211.015625 C 689.285156 234.675781 701.492188 270.59375 701.613281 270.957031 C 701.816406 271.550781 702.332031 271.988281 702.953125 272.089844 C 703.054688 272.101562 713.023438 273.820312 713.945312 284.453125 C 714.035156 285.464844 714.171875 286.902344 714.359375 288.699219 C 719.445312 339.59375 717.234375 367.816406 707.78125 372.585938 C 707.359375 372.800781 706.917969 372.957031 706.464844 373.070312 C 687.300781 377.644531 613.160156 361.347656 605.28125 355.65625 C 598.097656 350.460938 586.28125 332.558594 583.511719 328.273438 C 589.070312 320.097656 626.808594 264.070312 633.945312 238.390625 C 634.199219 237.492188 633.671875 236.558594 632.765625 236.308594 C 631.871094 236.0625 630.933594 236.585938 630.683594 237.492188 C 624.648438 259.203125 595.054688 304.855469 584.136719 321.257812 C 584.882812 312.335938 583.445312 305.441406 580.300781 295.109375 C 580.011719 293.355469 576.238281 269.84375 576.308594 248.964844 C 576.382812 228.273438 620.03125 176.375 626.246094 170.339844 C 630.222656 168.335938 644.6875 182.019531 669.242188 211.015625 Z M 253.476562 403.867188 C 257.117188 401.984375 264.902344 397.894531 275.546875 392.269531 L 348.164062 522.953125 C 336.132812 528.914062 327.796875 532.964844 325.410156 533.992188 L 325.140625 534.03125 Z M 549.273438 350.261719 L 574.078125 399.425781 C 573.738281 403.167969 573.148438 404.558594 572.820312 405.0625 C 572.023438 406.128906 567.171875 409.195312 558.851562 413.945312 C 553.519531 404.484375 523.96875 352.128906 502.40625 314.777344 C 501.359375 315.238281 500.3125 315.675781 499.253906 316.097656 C 520.804688 353.417969 550.523438 406.074219 555.898438 415.597656 C 545.816406 421.074219 488.066406 452.386719 460.289062 466.402344 L 351.203125 521.441406 L 278.566406 390.714844 C 301.160156 379.085938 454.917969 297.167969 480.105469 283.550781 C 483.207031 288.582031 488.015625 296.722656 493.738281 306.570312 C 494.730469 306.035156 495.722656 305.492188 496.714844 304.953125 C 491.015625 295.148438 486.222656 287.023438 483.097656 281.949219 C 492.078125 277.148438 498.886719 273.5 502.664062 271.457031 C 525.75 308.332031 541.855469 335.5625 549.273438 350.261719 Z M 559.542969 307.375 L 577.613281 297.945312 C 580.769531 308.585938 581.96875 315.519531 579.933594 327.199219 L 571.585938 332.296875 C 563.394531 323.519531 559.738281 315.945312 559.542969 307.375 Z M 569.675781 335.222656 C 572.019531 352.953125 574.472656 377.566406 574.40625 392.554688 L 552.296875 348.734375 C 544.738281 333.753906 529.042969 307.207031 505.652344 269.839844 C 505.667969 269.832031 505.691406 269.816406 505.710938 269.808594 C 509.851562 270.285156 534.335938 288.957031 556.160156 307.171875 C 556.347656 319.414062 563 328.214844 569.675781 335.222656 Z M 250.59375 405.671875 L 271.820312 444.21875 L 263.546875 454.84375 C 262.96875 455.582031 263.101562 456.648438 263.839844 457.21875 C 264.375 457.632812 265.082031 457.679688 265.644531 457.394531 C 265.867188 457.28125 266.058594 457.125 266.21875 456.921875 L 273.597656 447.449219 L 290.226562 477.652344 L 272.789062 468.488281 C 271.964844 468.054688 270.9375 468.378906 270.5 469.199219 C 270.066406 470.027344 270.382812 471.050781 271.207031 471.488281 L 292.734375 482.796875 C 292.863281 482.867188 293.003906 482.914062 293.140625 482.945312 L 320.867188 533.300781 C 310.855469 528.863281 290.042969 509.085938 276.015625 493.753906 C 276.015625 493.75 276.015625 493.75 276.011719 493.746094 C 272.367188 489.652344 266.898438 476.746094 263.953125 469.808594 L 263.878906 469.628906 C 263.863281 469.585938 263.859375 469.542969 263.84375 469.503906 C 263.742188 469.277344 263.636719 469.042969 263.535156 468.816406 L 263.527344 468.796875 C 263.527344 468.796875 263.527344 468.796875 263.523438 468.792969 C 253.9375 447.542969 242.761719 413.433594 250.59375 405.671875 Z M 256.308594 500.082031 C 256.332031 500.128906 256.363281 500.167969 256.382812 500.21875 C 256.414062 500.296875 256.410156 500.375 256.429688 500.453125 C 256.441406 500.515625 256.480469 500.5625 256.484375 500.628906 C 259.945312 529.335938 208.113281 570.019531 205.910156 571.734375 C 205.820312 571.808594 205.726562 571.863281 205.625 571.914062 C 204.921875 572.269531 204.039062 572.089844 203.53125 571.441406 C 202.957031 570.703125 203.089844 569.636719 203.828125 569.066406 C 204.332031 568.675781 251.988281 531.277344 253.238281 504.558594 C 248.9375 508.429688 238.65625 517.511719 216.230469 536.617188 C 207.742188 543.851562 198.84375 549.429688 190.316406 553.734375 C 165.894531 566.054688 144.472656 567.898438 144.183594 567.921875 C 143.25 567.992188 142.4375 567.296875 142.363281 566.367188 C 142.296875 565.433594 143 564.613281 143.921875 564.550781 C 144.300781 564.515625 182.105469 561.226562 214.03125 534.046875 C 235.421875 515.820312 245.816406 506.660156 250.421875 502.53125 C 240.167969 502.613281 213.511719 503.195312 188.765625 506.832031 C 158.746094 511.234375 156.035156 529.460938 155.9375 530.238281 C 155.816406 531.164062 154.960938 531.824219 154.042969 531.703125 C 153.121094 531.585938 152.464844 530.75 152.574219 529.824219 C 152.683594 528.945312 155.566406 508.289062 188.273438 503.484375 C 219.847656 498.847656 254.480469 499.136719 254.828125 499.140625 C 254.832031 499.140625 254.835938 499.140625 254.839844 499.140625 C 254.917969 499.144531 254.992188 499.175781 255.070312 499.1875 C 255.171875 499.207031 255.273438 499.21875 255.375 499.253906 C 255.480469 499.292969 255.574219 499.347656 255.667969 499.40625 C 255.757812 499.457031 255.84375 499.511719 255.921875 499.578125 C 255.957031 499.609375 255.996094 499.628906 256.027344 499.660156 C 256.027344 499.664062 256.03125 499.664062 256.035156 499.667969 C 256.058594 499.695312 256.066406 499.730469 256.09375 499.761719 C 256.113281 499.785156 256.125 499.8125 256.144531 499.835938 C 256.207031 499.914062 256.261719 499.992188 256.308594 500.082031 Z M 169.449219 485.777344 C 191.082031 481.515625 248.753906 491.035156 251.199219 491.441406 C 252.121094 491.59375 252.742188 492.46875 252.589844 493.394531 C 252.496094 493.945312 252.140625 494.390625 251.679688 494.625 C 251.363281 494.78125 251.003906 494.84375 250.636719 494.785156 C 250.042969 494.679688 191.132812 484.953125 170.105469 489.097656 C 149.355469 493.199219 118.453125 528.164062 118.148438 528.519531 C 117.523438 529.210938 116.457031 529.289062 115.753906 528.675781 C 115.050781 528.0625 114.984375 526.988281 115.597656 526.285156 C 116.894531 524.808594 147.53125 490.089844 169.449219 485.777344 Z M 646.253906 344.046875 C 645.625 343.359375 645.679688 342.285156 646.371094 341.65625 C 646.515625 341.527344 660.496094 328.667969 661.648438 311.964844 C 661.710938 311.027344 662.519531 310.328125 663.453125 310.394531 C 664.390625 310.457031 665.09375 311.261719 665.027344 312.195312 C 663.777344 330.289062 649.261719 343.609375 648.648438 344.167969 C 648.53125 344.269531 648.40625 344.355469 648.273438 344.421875 C 647.609375 344.757812 646.777344 344.625 646.253906 344.046875 Z M 609.652344 314.710938 C 609.492188 313.789062 610.109375 312.910156 611.027344 312.75 C 611.347656 312.691406 643.023438 307.03125 655.449219 297.203125 C 656.15625 296.621094 657.246094 296.738281 657.824219 297.476562 C 658.40625 298.210938 658.28125 299.273438 657.546875 299.847656 C 655.527344 301.457031 653.0625 302.949219 650.339844 304.320312 C 635.433594 311.84375 612.738281 315.882812 611.613281 316.082031 C 610.691406 316.246094 609.8125 315.628906 609.652344 314.710938 Z M 601.191406 339.261719 C 601.316406 340.179688 600.691406 341.027344 599.746094 341.171875 C 598.824219 341.304688 597.96875 340.671875 597.832031 339.746094 C 597.382812 336.671875 598.273438 330.359375 604.972656 328.511719 C 611.933594 326.585938 628.335938 322.921875 629.03125 322.769531 C 629.945312 322.5625 630.847656 323.140625 631.050781 324.054688 C 631.226562 324.820312 630.839844 325.589844 630.160156 325.929688 C 630.039062 325.992188 629.90625 326.039062 629.765625 326.070312 C 629.597656 326.109375 612.75 329.871094 605.875 331.777344 C 600.542969 333.226562 601.109375 338.652344 601.191406 339.261719 Z M 646.082031 318.613281 C 644.339844 320.957031 642.734375 323.402344 641.128906 325.851562 C 637.832031 329.816406 634.652344 332.484375 634.105469 332.933594 C 634.011719 333.007812 633.902344 333.078125 633.796875 333.132812 C 633.101562 333.480469 632.234375 333.320312 631.726562 332.691406 C 631.132812 331.96875 631.238281 330.90625 631.964844 330.308594 C 632.78125 329.636719 640.097656 323.503906 643.765625 315.679688 C 644.167969 314.835938 645.175781 314.460938 646.023438 314.863281 C 646.867188 315.261719 647.234375 316.265625 646.835938 317.113281 C 646.59375 317.621094 646.34375 318.121094 646.082031 318.613281 Z M 694.949219 258.230469 C 708.054688 304.238281 684.019531 366.316406 683.773438 366.941406 C 683.613281 367.34375 683.316406 367.652344 682.957031 367.832031 C 682.542969 368.042969 682.042969 368.078125 681.570312 367.898438 C 680.703125 367.554688 680.277344 366.574219 680.617188 365.703125 C 680.859375 365.09375 704.476562 304.058594 691.691406 259.164062 C 691.4375 258.257812 691.976562 257.316406 692.855469 257.070312 C 693.753906 256.8125 694.695312 257.335938 694.949219 258.230469 Z M 605.179688 273.105469 C 605.042969 273.578125 604.71875 273.949219 604.308594 274.15625 C 603.941406 274.339844 603.515625 274.394531 603.085938 274.277344 C 602.1875 274.023438 601.660156 273.089844 601.914062 272.1875 C 604.71875 262.222656 610.152344 253.128906 615.410156 244.335938 C 617.347656 241.09375 619.269531 237.867188 621.054688 234.625 C 621.515625 233.800781 622.539062 233.503906 623.355469 233.949219 C 624.175781 234.398438 624.476562 235.429688 624.027344 236.25 C 622.222656 239.53125 620.277344 242.792969 618.316406 246.070312 C 613.171875 254.675781 607.863281 263.570312 605.179688 273.105469 Z M 600.527344 233.3125 C 603.328125 227.324219 606.960938 221.925781 610.476562 216.699219 C 612.894531 213.105469 615.394531 209.390625 617.574219 205.546875 C 618.035156 204.738281 619.066406 204.445312 619.882812 204.90625 C 620.699219 205.367188 620.980469 206.402344 620.519531 207.214844 C 618.277344 211.171875 615.738281 214.941406 613.285156 218.585938 C 609.839844 223.703125 606.285156 228.992188 603.597656 234.738281 C 599.339844 243.84375 596.152344 252.886719 594.117188 261.613281 C 594 262.121094 593.664062 262.523438 593.230469 262.742188 C 592.890625 262.914062 592.488281 262.972656 592.082031 262.878906 C 591.171875 262.667969 590.605469 261.757812 590.816406 260.847656 C 592.902344 251.890625 596.175781 242.625 600.527344 233.3125 Z M 600.527344 233.3125 "/></g></g></g></g></svg>