<svg xmlns="http://www.w3.org/2000/svg" xmlns:xlink="http://www.w3.org/1999/xlink" width="1080" zoomAndPan="magnify" viewBox="0 0 810 809.999993" height="1080" preserveAspectRatio="xMidYMid meet" version="1.2"><defs><clipPath id="d499a5ad98"><path d="M 22.59375 22.59375 L 787.40625 22.59375 L 787.40625 787.40625 L 22.59375 787.40625 Z M 22.59375 22.59375 "/></clipPath><clipPath id="c847740f16"><path d="M 405 22.59375 C 193.804688 22.59375 22.59375 193.804688 22.59375 405 C 22.59375 616.195312 193.804688 787.40625 405 787.40625 C 616.195312 787.40625 787.40625 616.195312 787.40625 405 C 787.40625 193.804688 616.195312 22.59375 405 22.59375 Z M 405 22.59375 "/></clipPath><clipPath id="2ec6c0aa6a"><path d="M 22.59375 22.59375 L 787.394531 22.59375 L 787.394531 787.394531 L 22.59375 787.394531 Z M 22.59375 22.59375 "/></clipPath><clipPath id="d66d728836"><path d="M 404.996094 22.59375 C 193.800781 22.59375 22.59375 193.800781 22.59375 404.996094 C 22.59375 616.1875 193.800781 787.394531 404.996094 787.394531 C 616.1875 787.394531 787.394531 616.1875 787.394531 404.996094 C 787.394531 193.800781 616.1875 22.59375 404.996094 22.59375 Z M 404.996094 22.59375 "/></clipPath></defs><g id="049a34d390"><g clip-rule="nonzero" clip-path="url(#d499a5ad98)"><g clip-rule="nonzero" clip-path="url(#c847740f16)"><path style=" stroke:none;fill-rule:nonzero;fill:#f5f8fa;fill-opacity:1;" d="M 22.59375 22.59375 L 787.40625 22.59375 L 787.40625 787.40625 L 22.59375 787.40625 Z M 22.59375 22.59375 "/></g></g><g clip-rule="nonzero" clip-path="url(#2ec6c0aa6a)"><g clip-rule="nonzero" clip-path="url(#d66d728836)"><path style="fill:none;stroke-width:60;stroke-linecap:butt;stroke-linejoin:miter;stroke:#000000;stroke-opacity:1;stroke-miterlimit:4;" d="M 509.869292 -0.000493951 C 228.275527 -0.000493951 -0.000525711 228.275559 -0.000525711 509.869323 C -0.000525711 791.457879 228.275527 1019.733932 509.869292 1019.733932 C 791.457847 1019.733932 1019.733901 791.457879 1019.733901 509.869323 C 1019.733901 228.275559 791.457847 -0.000493951 509.869292 -0.000493951 Z M 509.869292 -0.000493951 " transform="matrix(0.75,0,0,0.75,22.594144,22.59412)"/></g></g><path style=" stroke:none;fill-rule:evenodd;fill:#316e48;fill-opacity:1;" d="M 386.246094 372.589844 C 371.390625 405.941406 315.996094 419.5 311.421875 412.304688 C 295.394531 387.097656 266.507812 331.472656 280.90625 271.808594 C 290.820312 230.753906 332.546875 132.859375 356.140625 126.488281 C 374.527344 121.523438 384.589844 204.042969 386.964844 232.527344 C 388.609375 252.371094 406.359375 327.421875 386.246094 372.589844 Z M 386.246094 372.589844 "/><path style=" stroke:none;fill-rule:evenodd;fill:#377a50;fill-opacity:1;" d="M 312.140625 410.636719 C 289.101562 377.296875 277.214844 310.777344 287.417969 272.96875 C 298.167969 233.074219 321.238281 178.148438 335.273438 155.832031 C 343.683594 142.457031 359.792969 125.929688 359.203125 132.042969 C 357.257812 152.210938 334.222656 213.980469 331.4375 256.335938 C 328.605469 299.433594 325.058594 369.5625 342.191406 390.621094 C 354.304688 405.535156 315.191406 415.0625 312.140625 410.636719 Z M 312.140625 410.636719 "/><path style=" stroke:none;fill-rule:evenodd;fill:#2a5d3d;fill-opacity:1;" d="M 353.390625 399.65625 C 354.894531 403.921875 341.78125 406.050781 340.148438 402.558594 C 327.445312 375.417969 318.894531 285.003906 328.378906 231.097656 C 335.378906 191.34375 360.425781 128.402344 359.664062 136.125 C 359.652344 136.210938 340.890625 187.808594 334.824219 235.761719 C 326.046875 305.039062 337.140625 353.371094 353.390625 399.65625 Z M 353.390625 399.65625 "/><path style=" stroke:none;fill-rule:evenodd;fill:#2a5d3e;fill-opacity:1;" d="M 338.097656 353.421875 C 338.828125 333.160156 351.535156 304.78125 365.882812 286.023438 C 377.039062 271.421875 387.308594 263.105469 385.289062 264.210938 C 383.613281 265.125 370.027344 275.054688 362.15625 285.078125 C 343.425781 308.910156 334.179688 339.886719 334.179688 342.140625 C 334.179688 342.292969 327.152344 290.945312 330.40625 273.613281 C 333.019531 259.699219 350.75 240.703125 353.714844 238.125 C 368.351562 225.425781 381.175781 216.507812 381.410156 215.59375 C 381.875 213.753906 360.414062 228.421875 348.730469 239.144531 C 340.675781 246.539062 332.675781 256.574219 330.558594 260.6875 C 329.601562 262.535156 330.460938 248.179688 331.277344 244.742188 C 335.820312 225.660156 339.109375 209.136719 339.429688 208.027344 C 340.730469 203.613281 349.566406 191.203125 356.214844 185.292969 C 364.324219 178.085938 375.515625 171.152344 375.066406 171.046875 C 373.21875 170.585938 363.59375 175.023438 354.679688 182.101562 C 348.3125 187.171875 340.40625 195.886719 339.492188 197.703125 C 339.128906 198.445312 333.652344 214.839844 330.578125 226.777344 C 329.066406 232.664062 325.8125 255.894531 325.8125 258.527344 C 325.8125 259.527344 321.449219 248.878906 317.378906 240.421875 C 309.734375 224.554688 301.96875 218.269531 301.894531 218.417969 C 301.828125 218.558594 310.269531 230.957031 313.988281 239.347656 C 322.953125 259.613281 323.320312 265.695312 324.683594 269.476562 C 325.886719 272.828125 326.304688 282.574219 326.304688 294.652344 C 326.304688 299.421875 327.003906 315.839844 326.894531 317.097656 C 326.832031 317.761719 318.488281 308.273438 306.007812 299.355469 C 296.03125 292.222656 281.722656 287.140625 281.875 287.558594 C 282.367188 288.957031 293.097656 293.535156 300.410156 299.175781 C 312.074219 308.167969 320.988281 315.894531 328.484375 328.078125 C 329.515625 329.765625 330.183594 350.425781 330.644531 351.789062 C 331.480469 354.175781 338.011719 355.960938 338.097656 353.421875 Z M 338.097656 353.421875 "/><path style=" stroke:none;fill-rule:evenodd;fill:#6b953a;fill-opacity:1;" d="M 354.496094 419.757812 C 354.496094 419.757812 292.808594 477.757812 283.078125 475.546875 C 214.332031 459.859375 180.339844 371.742188 169.34375 323.800781 C 160.074219 283.390625 134.890625 236.523438 136.984375 235.824219 C 143.683594 233.589844 220.691406 271.269531 229.527344 276.019531 C 252.125 288.160156 278.523438 299.742188 300.691406 319.296875 C 326.886719 342.390625 354.476562 378.382812 354.496094 419.757812 Z M 354.496094 419.757812 "/><path style=" stroke:none;fill-rule:evenodd;fill:#6fa035;fill-opacity:1;" d="M 287.296875 469.859375 C 264.839844 465.820312 227.378906 431.523438 222.773438 425.820312 C 192.207031 387.96875 180.566406 345.914062 171.027344 298.582031 C 168.109375 284.101562 148.484375 254.917969 145.328125 245.355469 C 143.804688 240.722656 172.199219 263.160156 175.882812 265.738281 C 193.5625 278.082031 206.566406 291.308594 222.042969 306.449219 C 237.789062 321.867188 266.121094 351.960938 280.488281 368.59375 C 303.921875 395.722656 313.878906 417.257812 321.28125 442.269531 C 321.28125 442.28125 301.65625 472.441406 287.296875 469.859375 Z M 287.296875 469.859375 "/><path style=" stroke:none;fill-rule:evenodd;fill:#4b6f23;fill-opacity:1;" d="M 254.347656 328.679688 C 248.195312 322.027344 242.105469 315.914062 236.273438 310.628906 C 207.824219 284.820312 154.230469 251.015625 159.398438 256.335938 C 159.441406 256.378906 180.671875 270.5625 204.707031 290.222656 C 200.703125 289.226562 194.894531 288.085938 190.394531 287.742188 C 180.640625 287 172.058594 288.582031 171.210938 289.859375 C 171.007812 290.171875 182.046875 289.644531 191.390625 290.878906 C 198.738281 291.847656 210.925781 296.207031 214.996094 298.851562 C 221.851562 304.738281 228.710938 310.960938 235.1875 317.332031 C 240.28125 322.328125 245.078125 327.269531 249.613281 332.148438 C 244.523438 330.246094 236.144531 327.925781 228.734375 326.832031 C 215.074219 324.8125 193.046875 324.8125 194.441406 325.929688 C 195.140625 326.488281 208.402344 326.59375 225.070312 328.59375 C 228.023438 328.949219 245.542969 332.890625 256.613281 339.863281 C 272.261719 357.550781 284.59375 374.558594 294.847656 391.277344 C 286.007812 385.011719 267.632812 373.503906 248.472656 367.488281 C 237.5625 364.058594 223.222656 363.585938 221.644531 363.757812 C 219.746094 363.964844 231.074219 364.917969 246.777344 370.066406 C 265.226562 376.117188 287.726562 388.785156 301.207031 402.0625 C 309.851562 417.308594 316.960938 432.394531 323.511719 447.609375 C 325.1875 451.507812 334.5 446.480469 333.371094 443.074219 C 328.863281 429.453125 313.449219 403.976562 294.300781 377.707031 C 292.539062 366.972656 293.292969 357.765625 294.75 346.761719 C 295.792969 338.917969 299.5625 330.117188 299.015625 328.839844 C 298.855469 328.453125 293.207031 339.414062 291.445312 349.707031 C 289.832031 359.160156 289.769531 367.722656 289.671875 371.421875 C 280.8125 359.589844 271.316406 347.773438 261.824219 336.960938 C 260.320312 333.503906 256.851562 328.710938 250.085938 309.46875 C 247.25 301.410156 244.863281 288 244.738281 287.925781 C 244.597656 287.851562 243.671875 296.402344 248.65625 311.960938 C 250.730469 318.480469 253.53125 326.078125 254.347656 328.679688 Z M 254.347656 328.679688 "/><path style=" stroke:none;fill-rule:evenodd;fill:#88441b;fill-opacity:1;" d="M 539.125 386.976562 C 534.625 376.007812 513.328125 344.667969 513.0625 343.730469 C 501.878906 304.804688 418.421875 324.144531 395.246094 337.648438 C 335.347656 372.546875 331.976562 402.472656 330.214844 403.394531 C 324.652344 406.339844 315.039062 413.625 297.964844 432.847656 C 287.082031 445.074219 277.105469 468.992188 275.957031 470.871094 C 275.28125 471.976562 255.796875 494.722656 251.308594 502.265625 C 229.132812 539.507812 265.699219 549.175781 290.894531 555.933594 C 292.765625 556.441406 307.769531 566.625 321.71875 569.582031 C 340.257812 573.503906 345.894531 574.285156 357.417969 575.984375 C 357.601562 576.015625 380.175781 584.460938 391.527344 586.953125 C 446.183594 598.957031 510.238281 599.921875 545.59375 554.066406 C 552.648438 544.921875 553.226562 497.109375 556.523438 493.339844 C 563.828125 484.980469 551.863281 418.03125 539.125 386.976562 Z M 539.125 386.976562 "/><path style=" stroke:none;fill-rule:evenodd;fill:#bf6427;fill-opacity:1;" d="M 555.375 376.769531 C 544.089844 348.652344 517.011719 344.453125 515.980469 342.957031 C 511.472656 336.414062 486.363281 325.164062 464.601562 336.351562 C 446.257812 345.773438 437.3125 370.851562 442.8125 391.523438 C 442.898438 391.855469 435.550781 397.078125 430.78125 409.046875 C 423.40625 427.527344 424.703125 455.601562 435.636719 473.75 C 439.203125 479.660156 445.453125 484.882812 448.835938 489.039062 C 450.511719 491.09375 447.632812 499.386719 450.382812 509.144531 C 457.652344 534.953125 475.394531 557.171875 508.753906 561.640625 C 535.949219 565.28125 554.335938 550.894531 561.003906 528.277344 C 565.472656 513.128906 560.703125 497.152344 561.660156 496.121094 C 563.613281 493.992188 573.128906 480.660156 572.636719 453.121094 C 572.335938 436.167969 564.773438 422.617188 559.875 414.417969 C 559.15625 413.207031 563.441406 396.851562 555.375 376.769531 Z M 555.375 376.769531 "/><path style=" stroke:none;fill-rule:evenodd;fill:#6c3008;fill-opacity:1;" d="M 550.308594 379.800781 C 541.125 352.941406 515.113281 353.132812 514.308594 351.800781 C 510.792969 345.988281 491.25 339.894531 474.34375 349.835938 C 460.09375 358.214844 453.144531 380.511719 457.417969 398.882812 C 457.480469 399.183594 448.867188 403.257812 443.851562 416.257812 C 437.59375 432.492188 436.828125 450.402344 447.785156 468.667969 C 450.835938 473.761719 457.460938 480.207031 460.09375 483.90625 C 461.390625 485.730469 461.164062 494.765625 463.304688 503.449219 C 468.953125 526.386719 482.882812 549.175781 508.808594 553.140625 C 529.933594 556.386719 549.664062 542.65625 555.613281 522.757812 C 560.132812 507.640625 556.03125 495.066406 556.761719 494.15625 C 558.277344 492.261719 564.890625 479.476562 565.589844 453.1875 C 566.074219 435.101562 557.652344 423.378906 553.839844 416.097656 C 553.28125 415.011719 556.417969 397.703125 550.308594 379.800781 Z M 550.308594 379.800781 "/><path style=" stroke:none;fill-rule:evenodd;fill:#6c300d;fill-opacity:1;" d="M 259.472656 541.699219 C 249.773438 532.792969 246.703125 526.527344 254.636719 527.976562 C 272.660156 531.277344 289.941406 534.695312 307.242188 536.242188 C 323.664062 537.710938 325.15625 547.972656 343.101562 551.574219 C 355.507812 554.066406 369.878906 553.410156 380.789062 556.171875 C 396.234375 560.070312 411.621094 553.765625 426.960938 555.023438 C 441.296875 556.191406 457.007812 544.179688 468.363281 553.132812 C 492.109375 571.871094 530.707031 561.273438 526.613281 566.894531 C 517.496094 579.421875 478.488281 587.898438 450.867188 588.222656 C 415.640625 588.632812 378.757812 577.574219 346.195312 568.808594 C 332.589844 565.144531 316.523438 564.378906 296.289062 552.152344 C 290.972656 548.953125 267.601562 549.167969 259.472656 541.699219 Z M 259.472656 541.699219 "/><path style=" stroke:none;fill-rule:evenodd;fill:#9a4e1f;fill-opacity:1;" d="M 349.40625 379.8125 C 364.152344 355.054688 410.300781 338.316406 431.910156 329.980469 C 444.605469 325.078125 475.816406 322.351562 478.800781 326.550781 C 480.679688 329.195312 457.824219 333.105469 449.78125 339.863281 C 439.363281 348.621094 433.402344 356.378906 431.09375 373.140625 C 429.742188 382.992188 432.921875 388.492188 433.695312 393.542969 C 434.402344 398.207031 416.445312 409.617188 414.070312 428.871094 C 411.828125 447.09375 414.835938 459.792969 424.726562 469.484375 C 432.394531 476.996094 391.742188 483.796875 382.570312 485.042969 C 362.851562 487.71875 346.355469 492.167969 327.496094 499.203125 C 320.914062 501.664062 285.859375 509.574219 264.796875 519.007812 C 250.945312 525.207031 258.828125 507.089844 270.125 494.800781 C 279.394531 484.722656 307.402344 463.09375 318.207031 456.539062 C 346.894531 439.109375 366.300781 431.191406 386.933594 414.933594 C 400.65625 404.117188 353.53125 411.679688 350.332031 408.359375 C 345.347656 403.179688 386.082031 376.726562 374.410156 376.160156 C 371.078125 375.996094 366.515625 377.414062 363.5625 378.617188 C 359.578125 380.21875 347.644531 382.777344 349.40625 379.8125 Z M 349.40625 379.8125 "/><path style=" stroke:none;fill-rule:evenodd;fill:#fae4b7;fill-opacity:1;" d="M 473.859375 473.09375 C 494.375 467.1875 511.050781 446.460938 510.128906 438.015625 C 508.636719 424.347656 478.617188 410.53125 462.746094 413.183594 C 444.722656 416.214844 440.835938 436.929688 444.605469 449.511719 C 448.945312 464.003906 462.660156 476.320312 473.859375 473.09375 Z M 473.859375 473.09375 "/><path style=" stroke:none;fill-rule:evenodd;fill:#fae4b7;fill-opacity:1;" d="M 510.195312 472.558594 C 500.472656 470.152344 481.9375 488.953125 480.789062 502.523438 C 479.445312 518.4375 480.648438 535.972656 497.886719 544.847656 C 513.835938 553.054688 536.085938 544.792969 542.015625 532.136719 C 552.015625 510.796875 521.019531 475.234375 510.195312 472.558594 Z M 510.195312 472.558594 "/><path style=" stroke:none;fill-rule:evenodd;fill:#fae4b7;fill-opacity:1;" d="M 516.660156 430.429688 C 508.21875 426.765625 507.722656 396.625 511.074219 384.390625 C 515.445312 368.378906 532.4375 364.996094 542.15625 370.25 C 553.65625 376.480469 555.417969 406.984375 546.109375 418.695312 C 538.589844 428.152344 526.023438 434.5 516.660156 430.429688 Z M 516.660156 430.429688 "/><path style=" stroke:none;fill-rule:evenodd;fill:#e8cf9b;fill-opacity:1;" d="M 518.023438 427.945312 C 517.839844 430.699219 512.855469 423.464844 511.953125 419.878906 C 510.460938 413.925781 509.828125 406.09375 509.558594 400.441406 C 508.820312 384.65625 518.796875 365.046875 539.105469 370.3125 C 546.859375 372.324219 547.234375 380.511719 543.304688 386.300781 C 538.902344 392.78125 531.597656 399.023438 526.753906 406.199219 C 521.167969 414.484375 518.3125 423.542969 518.023438 427.945312 Z M 518.023438 427.945312 "/><path style=" stroke:none;fill-rule:evenodd;fill:#fae4b7;fill-opacity:1;" d="M 522.78125 436.898438 C 535.851562 430.589844 554.816406 428.675781 562.59375 448.640625 C 567.0625 460.105469 559.230469 477.480469 546.023438 480.371094 C 526.175781 484.710938 503.847656 467.746094 502.265625 460.417969 C 500.539062 452.335938 509.980469 443.074219 522.78125 436.898438 Z M 522.78125 436.898438 "/><path style=" stroke:none;fill-rule:evenodd;fill:#fae4b7;fill-opacity:1;" d="M 504.585938 419.835938 C 494.847656 423.980469 474.578125 408.359375 468.792969 392.316406 C 462.648438 375.289062 467.78125 356.691406 479.25 351.5 C 495.566406 344.117188 510.214844 356.046875 514.917969 374.148438 C 519.785156 392.886719 512.191406 416.601562 504.585938 419.835938 Z M 504.585938 419.835938 "/><path style=" stroke:none;fill-rule:evenodd;fill:#e8cf9b;fill-opacity:1;" d="M 503.382812 456.117188 C 503.984375 454.078125 506.949219 449.09375 513.199219 444.644531 C 526.269531 435.339844 545.085938 430.226562 556.179688 441.472656 C 562.839844 448.234375 562.699219 463.296875 560.414062 459 C 555.117188 449.082031 546.257812 445.996094 537.515625 445.246094 C 530.03125 444.601562 519.761719 445.675781 511.824219 450.898438 C 508.261719 453.238281 502.589844 458.816406 503.382812 456.117188 Z M 503.382812 456.117188 "/><path style=" stroke:none;fill-rule:evenodd;fill:#e8cf9b;fill-opacity:1;" d="M 490.914062 351.4375 C 482.796875 349.363281 471.539062 357.582031 469.273438 366.90625 C 465.183594 383.734375 476.492188 405.578125 489.617188 414.453125 C 492.109375 416.140625 500.226562 420.191406 501.023438 417.964844 C 501.429688 416.828125 497.691406 415.203125 495.09375 412.441406 C 491.398438 408.519531 487.875 402.621094 485.71875 397.625 C 479.980469 384.355469 490.949219 367.789062 493.492188 360.601562 C 495.007812 356.292969 493.933594 352.210938 490.914062 351.4375 Z M 490.914062 351.4375 "/><path style=" stroke:none;fill-rule:evenodd;fill:#e8cf9b;fill-opacity:1;" d="M 495.382812 454.097656 C 486.191406 458.570312 473.914062 462.308594 461.746094 454.226562 C 456.117188 450.488281 449.804688 442.957031 446.011719 435.425781 C 444.066406 431.546875 443.746094 446.039062 445.957031 450.585938 C 448.6875 456.195312 453.550781 465.058594 462.367188 469.066406 C 478.402344 476.371094 489.574219 464.714844 498.648438 455.496094 C 500.796875 453.316406 498.863281 452.414062 495.382812 454.097656 Z M 495.382812 454.097656 "/><path style=" stroke:none;fill-rule:evenodd;fill:#e8cf9b;fill-opacity:1;" d="M 506.507812 474.234375 C 497.058594 478.199219 487.972656 485.796875 484.300781 494.980469 C 478.113281 510.433594 483.699219 529.890625 488.15625 536.542969 C 491.773438 541.945312 488.21875 524.390625 489.292969 512.722656 C 490.570312 498.816406 494.4375 490.84375 499.625 483.054688 C 502.222656 479.175781 507.023438 474.019531 506.507812 474.234375 Z M 506.507812 474.234375 "/><path style=" stroke:none;fill-rule:evenodd;fill:#fff2d8;fill-opacity:1;" d="M 511.707031 476.09375 C 513.683594 473.859375 525.59375 484.859375 532.1875 495.347656 C 543.066406 512.636719 542.722656 527.195312 537.988281 534.757812 C 528.054688 550.628906 497.777344 549.875 497.25 538.960938 C 496.984375 533.285156 502.792969 534.222656 510.621094 523.539062 C 517.613281 513.988281 520.996094 508.144531 520.289062 496.828125 C 519.835938 489.664062 510.699219 477.222656 511.707031 476.09375 Z M 511.707031 476.09375 "/><path style=" stroke:none;fill-rule:evenodd;fill:#fff2d8;fill-opacity:1;" d="M 503.855469 458.675781 C 506.046875 457.613281 513.621094 462.425781 518.421875 464.304688 C 523.78125 466.414062 532.671875 465.078125 537.847656 462.105469 C 541.660156 459.910156 546.988281 456.828125 551.628906 456.65625 C 555.902344 456.496094 559.445312 457.882812 561.015625 461.683594 C 562.808594 466.058594 553.59375 476.714844 545.441406 478.519531 C 533.722656 481.121094 519.289062 478.027344 507.5625 466.542969 C 503.921875 462.984375 502.148438 459.503906 503.855469 458.675781 Z M 503.855469 458.675781 "/><path style=" stroke:none;fill-rule:evenodd;fill:#fff2d8;fill-opacity:1;" d="M 532.414062 415.914062 C 543.507812 402.011719 546.878906 389.644531 548.253906 383.261719 C 549.027344 379.671875 552.949219 402.835938 546.785156 413.816406 C 537.269531 430.761719 520.449219 432.4375 519.859375 429.238281 C 519.644531 428.066406 528.546875 420.769531 532.414062 415.914062 Z M 532.414062 415.914062 "/><path style=" stroke:none;fill-rule:evenodd;fill:#fff2d8;fill-opacity:1;" d="M 501.074219 355.636719 C 511.300781 362.339844 518.625 388.226562 513.019531 403.707031 C 507.5625 418.78125 499.582031 419.082031 495.027344 406.964844 C 492.449219 400.117188 495.480469 391.585938 496.683594 387.472656 C 498.734375 380.46875 497.808594 371.300781 496.46875 364.242188 C 495.449219 358.890625 497.757812 353.457031 501.074219 355.636719 Z M 501.074219 355.636719 "/><path style=" stroke:none;fill-rule:evenodd;fill:#fff2d8;fill-opacity:1;" d="M 460.566406 415.914062 C 470.714844 414.117188 486.769531 419.457031 496.144531 424.550781 C 502.320312 427.902344 511.179688 433.996094 508.066406 439.605469 C 504.910156 445.277344 493.136719 447.695312 487.8125 447.535156 C 477.039062 447.222656 456.375 443.3125 449.136719 433.640625 C 444.96875 428.074219 454.710938 416.957031 460.566406 415.914062 Z M 460.566406 415.914062 "/><path style=" stroke:none;fill-rule:evenodd;fill:#4b240e;fill-opacity:1;" d="M 280.402344 472.515625 C 312.40625 441.957031 356.054688 411.421875 399.9375 402.816406 C 400.871094 402.632812 401.472656 401.730469 401.292969 400.796875 C 401.109375 399.859375 400.207031 399.257812 399.273438 399.441406 C 354.765625 408.167969 310.476562 439.046875 278.019531 470.03125 C 277.332031 470.6875 277.308594 471.785156 277.964844 472.472656 C 278.632812 473.136719 279.714844 473.171875 280.402344 472.515625 Z M 280.402344 472.515625 "/><path style=" stroke:none;fill-rule:evenodd;fill:#4b240e;fill-opacity:1;" d="M 334.824219 404.761719 C 357.066406 387.375 396.382812 366.101562 433.316406 364.371094 C 434.261719 364.328125 435.003906 363.523438 434.960938 362.566406 C 434.917969 361.621094 434.113281 360.878906 433.15625 360.921875 C 395.492188 362.683594 355.390625 384.304688 332.707031 402.03125 C 331.953125 402.621094 331.824219 403.695312 332.40625 404.449219 C 332.984375 405.210938 334.070312 405.339844 334.824219 404.761719 Z M 334.824219 404.761719 "/><path style=" stroke:none;fill-rule:evenodd;fill:#4b240e;fill-opacity:1;" d="M 308.734375 436.648438 C 317.113281 429.074219 328.777344 421.8125 333.105469 420.027344 C 333.984375 419.664062 334.402344 418.652344 334.039062 417.78125 C 333.671875 416.902344 332.664062 416.484375 331.792969 416.847656 C 327.292969 418.707031 315.148438 426.21875 306.425781 434.09375 C 305.71875 434.726562 305.664062 435.824219 306.308594 436.53125 C 306.941406 437.230469 308.027344 437.292969 308.734375 436.648438 Z M 308.734375 436.648438 "/><path style=" stroke:none;fill-rule:evenodd;fill:#4b240e;fill-opacity:1;" d="M 279.621094 551.722656 C 334.90625 555.386719 392.269531 531.976562 417.894531 517.878906 C 418.734375 517.417969 419.035156 516.375 418.570312 515.535156 C 418.109375 514.699219 417.066406 514.398438 416.230469 514.859375 C 390.949219 528.75 334.382812 551.894531 279.84375 548.285156 C 278.898438 548.222656 278.074219 548.941406 278.007812 549.886719 C 277.953125 550.832031 278.675781 551.660156 279.621094 551.722656 Z M 279.621094 551.722656 "/><path style=" stroke:none;fill-rule:evenodd;fill:#4b240e;fill-opacity:1;" d="M 342.640625 572.34375 C 383.429688 577.015625 430.867188 557.105469 459.199219 543.203125 C 460.050781 542.785156 460.402344 541.753906 459.984375 540.894531 C 459.566406 540.042969 458.535156 539.691406 457.675781 540.109375 C 429.792969 553.785156 383.152344 573.523438 343.027344 568.914062 C 342.082031 568.808594 341.222656 569.484375 341.117188 570.429688 C 341.019531 571.375 341.695312 572.234375 342.640625 572.34375 Z M 342.640625 572.34375 "/><path style=" stroke:none;fill-rule:evenodd;fill:#4b240e;fill-opacity:1;" d="M 389.605469 576.414062 C 412.246094 574.542969 427.753906 566.058594 441.414062 561.050781 C 442.308594 560.726562 442.769531 559.726562 442.4375 558.835938 C 442.113281 557.945312 441.113281 557.484375 440.222656 557.816406 C 426.789062 562.738281 411.570312 571.148438 389.316406 572.988281 C 388.371094 573.0625 387.664062 573.898438 387.738281 574.847656 C 387.824219 575.792969 388.660156 576.5 389.605469 576.414062 Z M 389.605469 576.414062 "/><path style=" stroke:none;fill-rule:evenodd;fill:#4b240e;fill-opacity:1;" d="M 357.785156 549.242188 C 372.667969 547.285156 394.234375 540.496094 404.855469 534.78125 C 405.695312 534.328125 406.007812 533.285156 405.554688 532.449219 C 405.105469 531.609375 404.0625 531.296875 403.222656 531.75 C 392.871094 537.316406 371.84375 543.921875 357.332031 545.824219 C 356.386719 545.953125 355.722656 546.8125 355.851562 547.757812 C 355.980469 548.695312 356.839844 549.359375 357.785156 549.242188 Z M 357.785156 549.242188 "/><path style=" stroke:none;fill-rule:evenodd;fill:#4b240e;fill-opacity:1;" d="M 289.746094 519.953125 C 313.71875 508.90625 328.261719 505.308594 356.257812 500.859375 C 357.195312 500.707031 357.835938 499.828125 357.6875 498.882812 C 357.535156 497.949219 356.65625 497.304688 355.710938 497.453125 C 327.335938 501.964844 312.601562 505.628906 288.308594 516.824219 C 287.449219 517.222656 287.0625 518.242188 287.460938 519.113281 C 287.867188 519.972656 288.886719 520.351562 289.746094 519.953125 Z M 289.746094 519.953125 "/><path style=" stroke:none;fill-rule:evenodd;fill:#4b240e;fill-opacity:1;" d="M 305.621094 520.371094 C 315.652344 515.878906 325.210938 513.515625 331.761719 512.3125 C 332.695312 512.140625 333.320312 511.238281 333.148438 510.304688 C 332.976562 509.367188 332.074219 508.746094 331.136719 508.917969 C 324.394531 510.164062 314.546875 512.601562 304.214844 517.222656 C 303.34375 517.609375 302.957031 518.628906 303.34375 519.5 C 303.742188 520.371094 304.75 520.757812 305.621094 520.371094 Z M 305.621094 520.371094 "/><path style=" stroke:none;fill-rule:evenodd;fill:#4b240e;fill-opacity:1;" d="M 380.980469 358.742188 C 394.601562 347.148438 421.644531 343.195312 439.09375 342.011719 C 440.039062 341.949219 440.761719 341.121094 440.695312 340.175781 C 440.632812 339.230469 439.804688 338.511719 438.859375 338.574219 C 420.792969 339.808594 392.851562 344.109375 378.75 356.121094 C 378.027344 356.734375 377.933594 357.828125 378.554688 358.546875 C 379.179688 359.277344 380.261719 359.363281 380.980469 358.742188 Z M 380.980469 358.742188 "/><path style=" stroke:none;fill-rule:evenodd;fill:#4b240e;fill-opacity:1;" d="M 387.757812 365.597656 C 398.476562 359.945312 418.054688 355.570312 422.921875 356.054688 C 423.867188 356.152344 424.714844 355.453125 424.800781 354.507812 C 424.898438 353.5625 424.199219 352.714844 423.253906 352.628906 C 418.121094 352.125 397.457031 356.605469 386.148438 362.554688 C 385.308594 362.996094 384.988281 364.039062 385.429688 364.886719 C 385.878906 365.726562 386.921875 366.046875 387.757812 365.597656 Z M 387.757812 365.597656 "/><path style=" stroke:none;fill-rule:evenodd;fill:#4b240e;fill-opacity:1;" d="M 498.175781 563.167969 C 483.460938 573.339844 463.871094 580.820312 451.90625 583.644531 C 450.984375 583.859375 450.40625 584.796875 450.628906 585.71875 C 450.84375 586.644531 451.78125 587.222656 452.703125 586.996094 C 464.96875 584.097656 485.050781 576.425781 500.128906 565.992188 C 500.914062 565.453125 501.109375 564.378906 500.570312 563.597656 C 500.035156 562.824219 498.960938 562.628906 498.175781 563.167969 Z M 498.175781 563.167969 "/><path style=" stroke:none;fill-rule:evenodd;fill:#4b240e;fill-opacity:1;" d="M 497.863281 571.160156 C 492.097656 575.136719 481.648438 580.316406 476.492188 581.613281 C 475.566406 581.851562 475.007812 582.785156 475.246094 583.710938 C 475.480469 584.632812 476.417969 585.191406 477.339844 584.957031 C 482.765625 583.589844 493.773438 578.175781 499.828125 573.996094 C 500.613281 573.460938 500.808594 572.386719 500.269531 571.601562 C 499.722656 570.816406 498.648438 570.625 497.863281 571.160156 Z M 497.863281 571.160156 "/><path style=" stroke:none;fill-rule:evenodd;fill:#4b240e;fill-opacity:1;" d="M 309.539062 496.648438 C 340.257812 479.84375 378.328125 469.367188 409.613281 469.527344 C 410.570312 469.527344 411.34375 468.765625 411.34375 467.808594 C 411.34375 466.863281 410.582031 466.078125 409.625 466.078125 C 377.824219 465.917969 339.109375 476.535156 307.886719 493.628906 C 307.050781 494.078125 306.75 495.132812 307.199219 495.96875 C 307.660156 496.796875 308.703125 497.109375 309.539062 496.648438 Z M 309.539062 496.648438 "/><path style=" stroke:none;fill-rule:evenodd;fill:#4b240e;fill-opacity:1;" d="M 385.191406 496.679688 C 395.578125 493.304688 423.714844 487.964844 434.015625 487.953125 C 434.960938 487.953125 435.734375 487.179688 435.734375 486.234375 C 435.734375 485.289062 434.960938 484.515625 434.015625 484.515625 C 423.5 484.515625 394.75 489.964844 384.140625 493.402344 C 383.238281 493.691406 382.742188 494.671875 383.035156 495.574219 C 383.324219 496.484375 384.289062 496.980469 385.191406 496.679688 Z M 385.191406 496.679688 "/><path style=" stroke:none;fill-rule:evenodd;fill:#eb9744;fill-opacity:1;" d="M 478.136719 334.8125 C 468.738281 336.855469 460.253906 343.292969 454.25 351.304688 C 448.234375 359.332031 444.746094 368.9375 445.25 377.191406 C 445.292969 377.921875 445.925781 378.480469 446.644531 378.425781 C 447.375 378.382812 447.933594 377.75 447.890625 377.027344 C 447.429688 369.3125 450.757812 360.386719 456.375 352.886719 C 461.992188 345.375 469.90625 339.292969 478.703125 337.390625 C 479.414062 337.242188 479.875 336.53125 479.714844 335.824219 C 479.550781 335.113281 478.84375 334.652344 478.136719 334.8125 Z M 478.136719 334.8125 "/><path style=" stroke:none;fill-rule:evenodd;fill:#eb9744;fill-opacity:1;" d="M 468.039062 345.105469 C 460.867188 350.457031 454.367188 360.34375 452.230469 368.925781 C 452.058594 369.636719 452.488281 370.355469 453.195312 370.527344 C 453.90625 370.699219 454.625 370.269531 454.796875 369.5625 C 456.804688 361.515625 462.894531 352.253906 469.617188 347.222656 C 470.207031 346.78125 470.328125 345.957031 469.886719 345.375 C 469.457031 344.785156 468.621094 344.667969 468.039062 345.105469 Z M 468.039062 345.105469 "/><path style=" stroke:none;fill-rule:evenodd;fill:#eb9744;fill-opacity:1;" d="M 446.195312 399.550781 C 436.453125 411.101562 432.363281 432.394531 435.015625 447.578125 C 435.144531 448.296875 435.832031 448.78125 436.550781 448.652344 C 437.269531 448.523438 437.753906 447.835938 437.625 447.117188 C 435.089844 432.609375 438.921875 412.269531 448.214844 401.246094 C 448.6875 400.6875 448.609375 399.851562 448.050781 399.378906 C 447.503906 398.914062 446.667969 398.992188 446.195312 399.550781 Z M 446.195312 399.550781 "/><path style=" stroke:none;fill-rule:evenodd;fill:#eb9744;fill-opacity:1;" d="M 430.730469 423.660156 C 425.734375 444.535156 431.449219 460.148438 437.34375 471.238281 C 437.6875 471.882812 438.492188 472.128906 439.136719 471.785156 C 439.78125 471.441406 440.03125 470.636719 439.6875 469.992188 C 434.015625 459.34375 428.507812 444.34375 433.308594 424.273438 C 433.480469 423.5625 433.039062 422.84375 432.328125 422.683594 C 431.609375 422.511719 430.902344 422.949219 430.730469 423.660156 Z M 430.730469 423.660156 "/><path style=" stroke:none;fill-rule:evenodd;fill:#eb9744;fill-opacity:1;" d="M 453.28125 496.59375 C 450.738281 516.117188 462.316406 534.308594 475.503906 544.566406 C 476.082031 545.019531 476.910156 544.910156 477.363281 544.332031 C 477.8125 543.75 477.707031 542.925781 477.125 542.472656 C 464.582031 532.714844 453.488281 515.472656 455.902344 496.925781 C 456 496.207031 455.484375 495.539062 454.765625 495.445312 C 454.046875 495.359375 453.378906 495.875 453.28125 496.59375 Z M 453.28125 496.59375 "/><path style=" stroke:none;fill-rule:evenodd;fill:#eb9744;fill-opacity:1;" d="M 459.0625 509.464844 C 460.050781 517.265625 466.578125 529.804688 472.378906 534.683594 C 472.9375 535.15625 473.773438 535.082031 474.238281 534.523438 C 474.707031 533.964844 474.632812 533.125 474.074219 532.664062 C 468.664062 528.117188 462.605469 516.40625 461.679688 509.144531 C 461.585938 508.421875 460.929688 507.90625 460.199219 507.992188 C 459.480469 508.078125 458.964844 508.746094 459.0625 509.464844 Z M 459.0625 509.464844 "/><path style=" stroke:none;fill-rule:evenodd;fill:#eb9744;fill-opacity:1;" d="M 566.652344 439.089844 C 568.242188 447.375 568.414062 455.644531 567.554688 464.058594 C 567.480469 464.789062 568.007812 465.433594 568.738281 465.511719 C 569.464844 465.585938 570.109375 465.058594 570.1875 464.328125 C 571.078125 455.667969 570.882812 447.125 569.25 438.59375 C 569.113281 437.875 568.425781 437.402344 567.707031 437.542969 C 566.984375 437.671875 566.523438 438.371094 566.652344 439.089844 Z M 566.652344 439.089844 "/><path style=" stroke:none;fill-rule:evenodd;fill:#fae4b7;fill-opacity:1;" d="M 535.164062 602.160156 C 533.316406 588.8125 556.910156 567.175781 575.835938 561.253906 C 598.035156 554.3125 641.144531 565.292969 641.605469 596.679688 C 641.714844 603.835938 634.066406 608.058594 623.1875 609.140625 C 610.546875 610.386719 594.0625 611.226562 581.785156 610.207031 C 568.242188 609.066406 536.164062 609.390625 535.164062 602.160156 Z M 535.164062 602.160156 "/><path style=" stroke:none;fill-rule:evenodd;fill:#e8cf9b;fill-opacity:1;" d="M 586.660156 580.066406 C 583.78125 573.375 594.40625 567.304688 600.75 562.800781 C 604.1875 560.363281 586.992188 560.199219 576.242188 563.390625 C 556.902344 569.140625 533.894531 596.34375 539.167969 602.167969 C 544.410156 607.960938 556.933594 607.292969 563.484375 607.304688 C 582.238281 607.335938 594.824219 607.863281 612.070312 608.175781 C 617.710938 608.273438 638.964844 604.597656 630.984375 601.835938 C 619.558594 597.882812 591.074219 590.308594 586.660156 580.066406 Z M 586.660156 580.066406 "/><path style=" stroke:none;fill-rule:evenodd;fill:#fff2d8;fill-opacity:1;" d="M 605.691406 562.660156 C 610.835938 563.21875 621.84375 567.464844 628.363281 573.210938 C 635.042969 579.101562 638.339844 584.925781 639.886719 590.996094 C 641.800781 598.503906 639.824219 603.382812 635.667969 602.847656 C 631.296875 602.277344 621.664062 595.140625 613.660156 587.597656 C 608.183594 582.441406 602.597656 575.511719 600.535156 569.324219 C 599.472656 566.121094 601.730469 562.242188 605.691406 562.660156 Z M 605.691406 562.660156 "/><path style=" stroke:none;fill-rule:evenodd;fill:#fae4b7;fill-opacity:1;" d="M 667.574219 608.230469 C 664.191406 602.203125 635.980469 585.527344 604.425781 591.648438 C 586.1875 595.195312 569.875 610.773438 594.328125 621.636719 C 611.769531 629.394531 630.449219 629.996094 649.199219 629.480469 C 661.226562 629.148438 674.855469 621.1875 667.574219 608.230469 Z M 667.574219 608.230469 "/><path style=" stroke:none;fill-rule:evenodd;fill:#e8cf9b;fill-opacity:1;" d="M 593.621094 599.226562 C 588.894531 600.0625 580.539062 609.882812 588.863281 616.589844 C 604.886719 629.515625 622.820312 627.460938 629.460938 628.117188 C 635.34375 628.695312 650.886719 629.0625 651.261719 628.050781 C 651.636719 627.042969 637.136719 623.132812 631.714844 622.058594 C 624.722656 620.671875 605.347656 615.761719 603.425781 608.90625 C 601.234375 601.105469 597.992188 598.453125 593.621094 599.226562 Z M 593.621094 599.226562 "/><path style=" stroke:none;fill-rule:evenodd;fill:#fff2d8;fill-opacity:1;" d="M 654.085938 601.167969 C 648.082031 597.957031 640.597656 596.28125 629.125 597.269531 C 628.730469 597.300781 608.980469 602.867188 615.789062 609.679688 C 621.46875 615.363281 644.054688 621.390625 652.648438 621.359375 C 657.277344 621.335938 665.664062 619.46875 667.671875 616.75 C 669.21875 614.675781 666.234375 607.679688 654.085938 601.167969 Z M 654.085938 601.167969 "/></g></svg>