<svg xmlns="http://www.w3.org/2000/svg" xmlns:xlink="http://www.w3.org/1999/xlink" width="1080" zoomAndPan="magnify" viewBox="0 0 810 809.999993" height="1080" preserveAspectRatio="xMidYMid meet" version="1.2"><defs><clipPath id="dac46f293a"><path d="M 22.59375 22.59375 L 787.40625 22.59375 L 787.40625 787.40625 L 22.59375 787.40625 Z M 22.59375 22.59375 "/></clipPath><clipPath id="1b55caa3a7"><path d="M 405 22.59375 C 193.804688 22.59375 22.59375 193.804688 22.59375 405 C 22.59375 616.195312 193.804688 787.40625 405 787.40625 C 616.195312 787.40625 787.40625 616.195312 787.40625 405 C 787.40625 193.804688 616.195312 22.59375 405 22.59375 Z M 405 22.59375 "/></clipPath><clipPath id="7629552cad"><path d="M 22.59375 22.59375 L 787.394531 22.59375 L 787.394531 787.394531 L 22.59375 787.394531 Z M 22.59375 22.59375 "/></clipPath><clipPath id="5c4daa7c8d"><path d="M 404.996094 22.59375 C 193.800781 22.59375 22.59375 193.800781 22.59375 404.996094 C 22.59375 616.1875 193.800781 787.394531 404.996094 787.394531 C 616.1875 787.394531 787.394531 616.1875 787.394531 404.996094 C 787.394531 193.800781 616.1875 22.59375 404.996094 22.59375 Z M 404.996094 22.59375 "/></clipPath><clipPath id="ee2fa5d622"><path d="M 590 439 L 633 439 L 633 477 L 590 477 Z M 590 439 "/></clipPath><clipPath id="6c3f599d28"><path d="M 641.835938 306.863281 C 665.824219 385.3125 636.945312 434.324219 606.675781 467.039062 C 530.792969 549.050781 308.953125 636.96875 239.726562 591.789062 C 237.3125 590.214844 145.003906 529.277344 190.601562 459.625 C 212.257812 426.550781 262.574219 429.402344 269.816406 426.734375 C 452.339844 359.46875 464.234375 397.503906 553.371094 350.546875 C 598.605469 326.714844 598.210938 333.097656 641.839844 306.863281 Z M 641.835938 306.863281 "/></clipPath><clipPath id="02f29df973"><path d="M 633 368 L 650.886719 368 L 650.886719 422 L 633 422 Z M 633 368 "/></clipPath><clipPath id="2485b16058"><path d="M 641.835938 306.863281 C 665.824219 385.3125 636.945312 434.324219 606.675781 467.039062 C 530.792969 549.050781 308.953125 636.96875 239.726562 591.789062 C 237.3125 590.214844 145.003906 529.277344 190.601562 459.625 C 212.257812 426.550781 262.574219 429.402344 269.816406 426.734375 C 452.339844 359.46875 464.234375 397.503906 553.371094 350.546875 C 598.605469 326.714844 598.210938 333.097656 641.839844 306.863281 Z M 641.835938 306.863281 "/></clipPath><clipPath id="ac23145f6f"><path d="M 528 461 L 577 461 L 577 503 L 528 503 Z M 528 461 "/></clipPath><clipPath id="d0395c3655"><path d="M 641.835938 306.863281 C 665.824219 385.3125 636.945312 434.324219 606.675781 467.039062 C 530.792969 549.050781 308.953125 636.96875 239.726562 591.789062 C 237.3125 590.214844 145.003906 529.277344 190.601562 459.625 C 212.257812 426.550781 262.574219 429.402344 269.816406 426.734375 C 452.339844 359.46875 464.234375 397.503906 553.371094 350.546875 C 598.605469 326.714844 598.210938 333.097656 641.839844 306.863281 Z M 641.835938 306.863281 "/></clipPath><clipPath id="44a4c9bc4d"><path d="M 469 514 L 533 514 L 533 557 L 469 557 Z M 469 514 "/></clipPath><clipPath id="3f4c55132d"><path d="M 641.835938 306.863281 C 665.824219 385.3125 636.945312 434.324219 606.675781 467.039062 C 530.792969 549.050781 308.953125 636.96875 239.726562 591.789062 C 237.3125 590.214844 145.003906 529.277344 190.601562 459.625 C 212.257812 426.550781 262.574219 429.402344 269.816406 426.734375 C 452.339844 359.46875 464.234375 397.503906 553.371094 350.546875 C 598.605469 326.714844 598.210938 333.097656 641.839844 306.863281 Z M 641.835938 306.863281 "/></clipPath><clipPath id="9278ea2323"><path d="M 406 514 L 467 514 L 467 580 L 406 580 Z M 406 514 "/></clipPath><clipPath id="2d66f043cc"><path d="M 641.835938 306.863281 C 665.824219 385.3125 636.945312 434.324219 606.675781 467.039062 C 530.792969 549.050781 308.953125 636.96875 239.726562 591.789062 C 237.3125 590.214844 145.003906 529.277344 190.601562 459.625 C 212.257812 426.550781 262.574219 429.402344 269.816406 426.734375 C 452.339844 359.46875 464.234375 397.503906 553.371094 350.546875 C 598.605469 326.714844 598.210938 333.097656 641.839844 306.863281 Z M 641.835938 306.863281 "/></clipPath><clipPath id="b0823b5186"><path d="M 343 549 L 390 549 L 390 586 L 343 586 Z M 343 549 "/></clipPath><clipPath id="bd33e2383d"><path d="M 641.835938 306.863281 C 665.824219 385.3125 636.945312 434.324219 606.675781 467.039062 C 530.792969 549.050781 308.953125 636.96875 239.726562 591.789062 C 237.3125 590.214844 145.003906 529.277344 190.601562 459.625 C 212.257812 426.550781 262.574219 429.402344 269.816406 426.734375 C 452.339844 359.46875 464.234375 397.503906 553.371094 350.546875 C 598.605469 326.714844 598.210938 333.097656 641.839844 306.863281 Z M 641.835938 306.863281 "/></clipPath><clipPath id="5d98f474f3"><path d="M 258 571 L 347 571 L 347 604.183594 L 258 604.183594 Z M 258 571 "/></clipPath><clipPath id="34df1d1379"><path d="M 641.835938 306.863281 C 665.824219 385.3125 636.945312 434.324219 606.675781 467.039062 C 530.792969 549.050781 308.953125 636.96875 239.726562 591.789062 C 237.3125 590.214844 145.003906 529.277344 190.601562 459.625 C 212.257812 426.550781 262.574219 429.402344 269.816406 426.734375 C 452.339844 359.46875 464.234375 397.503906 553.371094 350.546875 C 598.605469 326.714844 598.210938 333.097656 641.839844 306.863281 Z M 641.835938 306.863281 "/></clipPath><clipPath id="ade643b925"><path d="M 204 555 L 245 555 L 245 586 L 204 586 Z M 204 555 "/></clipPath><clipPath id="b3a000d426"><path d="M 641.835938 306.863281 C 665.824219 385.3125 636.945312 434.324219 606.675781 467.039062 C 530.792969 549.050781 308.953125 636.96875 239.726562 591.789062 C 237.3125 590.214844 145.003906 529.277344 190.601562 459.625 C 212.257812 426.550781 262.574219 429.402344 269.816406 426.734375 C 452.339844 359.46875 464.234375 397.503906 553.371094 350.546875 C 598.605469 326.714844 598.210938 333.097656 641.839844 306.863281 Z M 641.835938 306.863281 "/></clipPath><clipPath id="91ef7a5698"><path d="M 179 312 L 650.886719 312 L 650.886719 604.183594 L 179 604.183594 Z M 179 312 "/></clipPath><clipPath id="46f5ef03d3"><path d="M 641.835938 306.863281 C 665.824219 385.3125 636.945312 434.324219 606.675781 467.039062 C 530.792969 549.050781 308.953125 636.96875 239.726562 591.789062 C 237.3125 590.214844 145.003906 529.277344 190.601562 459.625 C 212.257812 426.550781 262.574219 429.402344 269.816406 426.734375 C 452.339844 359.46875 464.234375 397.503906 553.371094 350.546875 C 598.605469 326.714844 598.210938 333.097656 641.839844 306.863281 Z M 641.835938 306.863281 "/></clipPath><clipPath id="66d279802a"><path d="M 190 306.734375 L 650.886719 306.734375 L 650.886719 604.183594 L 190 604.183594 Z M 190 306.734375 "/></clipPath><clipPath id="1cff0f66c6"><path d="M 641.835938 306.863281 C 665.824219 385.3125 636.945312 434.324219 606.675781 467.039062 C 530.792969 549.050781 308.953125 636.96875 239.726562 591.789062 C 237.3125 590.214844 145.003906 529.277344 190.601562 459.625 C 212.257812 426.550781 262.574219 429.402344 269.816406 426.734375 C 452.339844 359.46875 464.234375 397.503906 553.371094 350.546875 C 598.605469 326.714844 598.210938 333.097656 641.839844 306.863281 Z M 641.835938 306.863281 "/></clipPath><clipPath id="f36f1e9eb8"><path d="M 588 346 L 627 346 L 627 408 L 588 408 Z M 588 346 "/></clipPath><clipPath id="a9882ad491"><path d="M 403.105469 261.503906 C 667.753906 168.875 701.5 365.421875 581.621094 455.675781 C 471.425781 538.640625 252.308594 641.363281 190.875 539.011719 C 108.253906 401.355469 344.527344 282.007812 403.105469 261.503906 Z M 403.105469 261.503906 "/></clipPath><clipPath id="140b67cae3"><path d="M 588 277 L 632 277 L 632 330 L 588 330 Z M 588 277 "/></clipPath><clipPath id="2a5d015d9a"><path d="M 403.105469 261.503906 C 667.753906 168.875 701.5 365.421875 581.621094 455.675781 C 471.425781 538.640625 252.308594 641.363281 190.875 539.011719 C 108.253906 401.355469 344.527344 282.007812 403.105469 261.503906 Z M 403.105469 261.503906 "/></clipPath><clipPath id="134ccea357"><path d="M 497 243 L 570 243 L 570 285 L 497 285 Z M 497 243 "/></clipPath><clipPath id="4cab39b32c"><path d="M 403.105469 261.503906 C 667.753906 168.875 701.5 365.421875 581.621094 455.675781 C 471.425781 538.640625 252.308594 641.363281 190.875 539.011719 C 108.253906 401.355469 344.527344 282.007812 403.105469 261.503906 Z M 403.105469 261.503906 "/></clipPath><clipPath id="7fb07ab1aa"><path d="M 406 265 L 481 265 L 481 304 L 406 304 Z M 406 265 "/></clipPath><clipPath id="b843f1e354"><path d="M 403.105469 261.503906 C 667.753906 168.875 701.5 365.421875 581.621094 455.675781 C 471.425781 538.640625 252.308594 641.363281 190.875 539.011719 C 108.253906 401.355469 344.527344 282.007812 403.105469 261.503906 Z M 403.105469 261.503906 "/></clipPath><clipPath id="07e3eaa352"><path d="M 471 290 L 531 290 L 531 336 L 471 336 Z M 471 290 "/></clipPath><clipPath id="b0fda3920b"><path d="M 403.105469 261.503906 C 667.753906 168.875 701.5 365.421875 581.621094 455.675781 C 471.425781 538.640625 252.308594 641.363281 190.875 539.011719 C 108.253906 401.355469 344.527344 282.007812 403.105469 261.503906 Z M 403.105469 261.503906 "/></clipPath><clipPath id="f20473681d"><path d="M 553 307 L 595 307 L 595 362 L 553 362 Z M 553 307 "/></clipPath><clipPath id="957bfb08d2"><path d="M 403.105469 261.503906 C 667.753906 168.875 701.5 365.421875 581.621094 455.675781 C 471.425781 538.640625 252.308594 641.363281 190.875 539.011719 C 108.253906 401.355469 344.527344 282.007812 403.105469 261.503906 Z M 403.105469 261.503906 "/></clipPath><clipPath id="0bbda16e95"><path d="M 294 292 L 397 292 L 397 367 L 294 367 Z M 294 292 "/></clipPath><clipPath id="7932acf774"><path d="M 403.105469 261.503906 C 667.753906 168.875 701.5 365.421875 581.621094 455.675781 C 471.425781 538.640625 252.308594 641.363281 190.875 539.011719 C 108.253906 401.355469 344.527344 282.007812 403.105469 261.503906 Z M 403.105469 261.503906 "/></clipPath><clipPath id="660b18e696"><path d="M 362 323 L 457 323 L 457 377 L 362 377 Z M 362 323 "/></clipPath><clipPath id="1100902532"><path d="M 403.105469 261.503906 C 667.753906 168.875 701.5 365.421875 581.621094 455.675781 C 471.425781 538.640625 252.308594 641.363281 190.875 539.011719 C 108.253906 401.355469 344.527344 282.007812 403.105469 261.503906 Z M 403.105469 261.503906 "/></clipPath><clipPath id="d07ddbef9a"><path d="M 213 357 L 283 357 L 283 422 L 213 422 Z M 213 357 "/></clipPath><clipPath id="3be1bc8b03"><path d="M 403.105469 261.503906 C 667.753906 168.875 701.5 365.421875 581.621094 455.675781 C 471.425781 538.640625 252.308594 641.363281 190.875 539.011719 C 108.253906 401.355469 344.527344 282.007812 403.105469 261.503906 Z M 403.105469 261.503906 "/></clipPath><clipPath id="516cd6cc9d"><path d="M 192 429 L 227 429 L 227 475 L 192 475 Z M 192 429 "/></clipPath><clipPath id="b51f8644a5"><path d="M 403.105469 261.503906 C 667.753906 168.875 701.5 365.421875 581.621094 455.675781 C 471.425781 538.640625 252.308594 641.363281 190.875 539.011719 C 108.253906 401.355469 344.527344 282.007812 403.105469 261.503906 Z M 403.105469 261.503906 "/></clipPath><clipPath id="5fdd7540de"><path d="M 194 483 L 247 483 L 247 538 L 194 538 Z M 194 483 "/></clipPath><clipPath id="bab240aba2"><path d="M 403.105469 261.503906 C 667.753906 168.875 701.5 365.421875 581.621094 455.675781 C 471.425781 538.640625 252.308594 641.363281 190.875 539.011719 C 108.253906 401.355469 344.527344 282.007812 403.105469 261.503906 Z M 403.105469 261.503906 "/></clipPath><clipPath id="4e6f8ff168"><path d="M 289 389 L 339 389 L 339 447 L 289 447 Z M 289 389 "/></clipPath><clipPath id="8ee350dc3c"><path d="M 403.105469 261.503906 C 667.753906 168.875 701.5 365.421875 581.621094 455.675781 C 471.425781 538.640625 252.308594 641.363281 190.875 539.011719 C 108.253906 401.355469 344.527344 282.007812 403.105469 261.503906 Z M 403.105469 261.503906 "/></clipPath><clipPath id="2fc92cbf7a"><path d="M 237 421 L 282 421 L 282 472 L 237 472 Z M 237 421 "/></clipPath><clipPath id="be3bf8dc03"><path d="M 403.105469 261.503906 C 667.753906 168.875 701.5 365.421875 581.621094 455.675781 C 471.425781 538.640625 252.308594 641.363281 190.875 539.011719 C 108.253906 401.355469 344.527344 282.007812 403.105469 261.503906 Z M 403.105469 261.503906 "/></clipPath><clipPath id="b3537c583e"><path d="M 258 524 L 327 524 L 327 566 L 258 566 Z M 258 524 "/></clipPath><clipPath id="cecd14c7e8"><path d="M 403.105469 261.503906 C 667.753906 168.875 701.5 365.421875 581.621094 455.675781 C 471.425781 538.640625 252.308594 641.363281 190.875 539.011719 C 108.253906 401.355469 344.527344 282.007812 403.105469 261.503906 Z M 403.105469 261.503906 "/></clipPath><clipPath id="e178900806"><path d="M 349 508 L 420 508 L 420 557 L 349 557 Z M 349 508 "/></clipPath><clipPath id="4549a9cc41"><path d="M 403.105469 261.503906 C 667.753906 168.875 701.5 365.421875 581.621094 455.675781 C 471.425781 538.640625 252.308594 641.363281 190.875 539.011719 C 108.253906 401.355469 344.527344 282.007812 403.105469 261.503906 Z M 403.105469 261.503906 "/></clipPath><clipPath id="b655eba171"><path d="M 440 474 L 489 474 L 489 519 L 440 519 Z M 440 474 "/></clipPath><clipPath id="47b8a51584"><path d="M 403.105469 261.503906 C 667.753906 168.875 701.5 365.421875 581.621094 455.675781 C 471.425781 538.640625 252.308594 641.363281 190.875 539.011719 C 108.253906 401.355469 344.527344 282.007812 403.105469 261.503906 Z M 403.105469 261.503906 "/></clipPath><clipPath id="29ca8ed285"><path d="M 513 440 L 559 440 L 559 479 L 513 479 Z M 513 440 "/></clipPath><clipPath id="12f5c885e4"><path d="M 403.105469 261.503906 C 667.753906 168.875 701.5 365.421875 581.621094 455.675781 C 471.425781 538.640625 252.308594 641.363281 190.875 539.011719 C 108.253906 401.355469 344.527344 282.007812 403.105469 261.503906 Z M 403.105469 261.503906 "/></clipPath><clipPath id="d2fa745f86"><path d="M 559 405 L 591 405 L 591 444 L 559 444 Z M 559 405 "/></clipPath><clipPath id="e1ac2b3024"><path d="M 403.105469 261.503906 C 667.753906 168.875 701.5 365.421875 581.621094 455.675781 C 471.425781 538.640625 252.308594 641.363281 190.875 539.011719 C 108.253906 401.355469 344.527344 282.007812 403.105469 261.503906 Z M 403.105469 261.503906 "/></clipPath><clipPath id="277ba0965f"><path d="M 501 372 L 557 372 L 557 437 L 501 437 Z M 501 372 "/></clipPath><clipPath id="9dd9c2fcf1"><path d="M 403.105469 261.503906 C 667.753906 168.875 701.5 365.421875 581.621094 455.675781 C 471.425781 538.640625 252.308594 641.363281 190.875 539.011719 C 108.253906 401.355469 344.527344 282.007812 403.105469 261.503906 Z M 403.105469 261.503906 "/></clipPath><clipPath id="db2c558af4"><path d="M 437 422 L 490 422 L 490 468 L 437 468 Z M 437 422 "/></clipPath><clipPath id="4b6992da9f"><path d="M 403.105469 261.503906 C 667.753906 168.875 701.5 365.421875 581.621094 455.675781 C 471.425781 538.640625 252.308594 641.363281 190.875 539.011719 C 108.253906 401.355469 344.527344 282.007812 403.105469 261.503906 Z M 403.105469 261.503906 "/></clipPath><clipPath id="8eda3f287f"><path d="M 371 458 L 432 458 L 432 505 L 371 505 Z M 371 458 "/></clipPath><clipPath id="4e4b337689"><path d="M 403.105469 261.503906 C 667.753906 168.875 701.5 365.421875 581.621094 455.675781 C 471.425781 538.640625 252.308594 641.363281 190.875 539.011719 C 108.253906 401.355469 344.527344 282.007812 403.105469 261.503906 Z M 403.105469 261.503906 "/></clipPath><clipPath id="1411966fe9"><path d="M 316 481 L 362 481 L 362 517 L 316 517 Z M 316 481 "/></clipPath><clipPath id="ea241ea146"><path d="M 403.105469 261.503906 C 667.753906 168.875 701.5 365.421875 581.621094 455.675781 C 471.425781 538.640625 252.308594 641.363281 190.875 539.011719 C 108.253906 401.355469 344.527344 282.007812 403.105469 261.503906 Z M 403.105469 261.503906 "/></clipPath><clipPath id="ff6255a639"><path d="M 262 469 L 310 469 L 310 509 L 262 509 Z M 262 469 "/></clipPath><clipPath id="a7bbe2f57f"><path d="M 403.105469 261.503906 C 667.753906 168.875 701.5 365.421875 581.621094 455.675781 C 471.425781 538.640625 252.308594 641.363281 190.875 539.011719 C 108.253906 401.355469 344.527344 282.007812 403.105469 261.503906 Z M 403.105469 261.503906 "/></clipPath><clipPath id="f9ebd09b43"><path d="M 444 354 L 500 354 L 500 412 L 444 412 Z M 444 354 "/></clipPath><clipPath id="5132b6b636"><path d="M 403.105469 261.503906 C 667.753906 168.875 701.5 365.421875 581.621094 455.675781 C 471.425781 538.640625 252.308594 641.363281 190.875 539.011719 C 108.253906 401.355469 344.527344 282.007812 403.105469 261.503906 Z M 403.105469 261.503906 "/></clipPath><clipPath id="a0982ee5b0"><path d="M 341 390 L 420 390 L 420 453 L 341 453 Z M 341 390 "/></clipPath><clipPath id="8abc0d597a"><path d="M 403.105469 261.503906 C 667.753906 168.875 701.5 365.421875 581.621094 455.675781 C 471.425781 538.640625 252.308594 641.363281 190.875 539.011719 C 108.253906 401.355469 344.527344 282.007812 403.105469 261.503906 Z M 403.105469 261.503906 "/></clipPath></defs><g id="4b185b1b64"><g clip-rule="nonzero" clip-path="url(#dac46f293a)"><g clip-rule="nonzero" clip-path="url(#1b55caa3a7)"><path style=" stroke:none;fill-rule:nonzero;fill:#f5f8fa;fill-opacity:1;" d="M 22.59375 22.59375 L 787.40625 22.59375 L 787.40625 787.40625 L 22.59375 787.40625 Z M 22.59375 22.59375 "/></g></g><g clip-rule="nonzero" clip-path="url(#7629552cad)"><g clip-rule="nonzero" clip-path="url(#5c4daa7c8d)"><path style="fill:none;stroke-width:60;stroke-linecap:butt;stroke-linejoin:miter;stroke:#000000;stroke-opacity:1;stroke-miterlimit:4;" d="M 509.869292 -0.000650111 C 228.275527 -0.000650111 -0.000525711 228.275403 -0.000525711 509.869167 C -0.000525711 791.457723 228.275527 1019.733776 509.869292 1019.733776 C 791.457847 1019.733776 1019.733901 791.457723 1019.733901 509.869167 C 1019.733901 228.275403 791.457847 -0.000650111 509.869292 -0.000650111 Z M 509.869292 -0.000650111 " transform="matrix(0.75,0,0,0.75,22.594144,22.594238)"/></g></g><path style=" stroke:none;fill-rule:evenodd;fill:#ffedb7;fill-opacity:1;" d="M 641.835938 306.863281 C 665.824219 385.3125 636.945312 434.324219 606.675781 467.039062 C 530.792969 549.050781 308.953125 636.96875 239.726562 591.789062 C 237.3125 590.214844 145.003906 529.277344 190.601562 459.625 C 212.257812 426.550781 262.574219 429.402344 269.816406 426.734375 C 452.339844 359.46875 464.234375 397.503906 553.371094 350.546875 C 598.605469 326.714844 598.210938 333.097656 641.839844 306.863281 Z M 641.835938 306.863281 "/><g clip-rule="nonzero" clip-path="url(#ee2fa5d622)"><g clip-rule="evenodd" clip-path="url(#6c3f599d28)"><path style=" stroke:none;fill-rule:evenodd;fill:#fbcd5e;fill-opacity:0.99;" d="M 606.382812 476.144531 C 614.714844 476.457031 619.222656 469.597656 626.050781 469.421875 C 628.410156 469.359375 635.101562 452.207031 631.894531 448.179688 C 619.816406 432.996094 600.757812 441.15625 596.167969 448.5625 C 595.054688 450.359375 579.695312 475.152344 606.382812 476.144531 Z M 606.382812 476.144531 "/></g></g><g clip-rule="nonzero" clip-path="url(#02f29df973)"><g clip-rule="evenodd" clip-path="url(#2485b16058)"><path style=" stroke:none;fill-rule:evenodd;fill:#fbcd5e;fill-opacity:0.99;" d="M 639.953125 384.269531 C 640.492188 382.871094 650.148438 357.738281 655.410156 373.664062 C 662.15625 394.089844 649.492188 403.371094 648.996094 407.707031 C 648.347656 413.382812 635.734375 428.398438 633.792969 417.640625 C 633.359375 415.242188 637.78125 389.917969 639.953125 384.269531 Z M 639.953125 384.269531 "/></g></g><g clip-rule="nonzero" clip-path="url(#ac23145f6f)"><g clip-rule="evenodd" clip-path="url(#d0395c3655)"><path style=" stroke:none;fill-rule:evenodd;fill:#fbcd5e;fill-opacity:0.99;" d="M 575.640625 461.332031 C 584.023438 489.382812 537.703125 515.296875 529.109375 496.480469 C 526.195312 490.105469 543.171875 475.464844 575.640625 461.332031 Z M 575.640625 461.332031 "/></g></g><g clip-rule="nonzero" clip-path="url(#44a4c9bc4d)"><g clip-rule="evenodd" clip-path="url(#3f4c55132d)"><path style=" stroke:none;fill-rule:evenodd;fill:#fbcd5e;fill-opacity:0.99;" d="M 475.132812 556.296875 C 512.460938 561.277344 532.375 524.558594 532.230469 524.082031 C 528.617188 512.085938 504.636719 511.902344 491.957031 523.078125 C 489.726562 525.050781 457.027344 553.878906 475.132812 556.296875 Z M 475.132812 556.296875 "/></g></g><g clip-rule="nonzero" clip-path="url(#9278ea2323)"><g clip-rule="evenodd" clip-path="url(#2d66f043cc)"><path style=" stroke:none;fill-rule:evenodd;fill:#fbcd5e;fill-opacity:0.99;" d="M 406.769531 574.792969 C 409.183594 580.867188 422.097656 582.160156 440.003906 570.847656 C 444.003906 568.320312 456.074219 577.394531 464.273438 552.890625 C 473.394531 525.628906 444.769531 506.152344 426.628906 517.503906 C 405.851562 530.5 404.710938 569.601562 406.769531 574.792969 Z M 406.769531 574.792969 "/></g></g><g clip-rule="nonzero" clip-path="url(#b0823b5186)"><g clip-rule="evenodd" clip-path="url(#bd33e2383d)"><path style=" stroke:none;fill-rule:evenodd;fill:#fbcd5e;fill-opacity:0.99;" d="M 350.414062 566.90625 C 354.761719 563.335938 375.742188 540.667969 388.140625 552.988281 C 391.566406 556.390625 385.472656 574.414062 370.371094 581.464844 C 349.5625 591.1875 333.65625 580.667969 350.414062 566.90625 Z M 350.414062 566.90625 "/></g></g><g clip-rule="nonzero" clip-path="url(#5d98f474f3)"><g clip-rule="evenodd" clip-path="url(#34df1d1379)"><path style=" stroke:none;fill-rule:evenodd;fill:#fbcd5e;fill-opacity:0.99;" d="M 268.058594 620.507812 C 314.246094 634.835938 350.152344 606.238281 346.476562 598.242188 C 334.929688 573.144531 289.082031 570.800781 284.027344 571.644531 C 250.171875 577.285156 256.726562 616.992188 268.058594 620.507812 Z M 268.058594 620.507812 "/></g></g><g clip-rule="nonzero" clip-path="url(#ade643b925)"><g clip-rule="evenodd" clip-path="url(#b3a000d426)"><path style=" stroke:none;fill-rule:evenodd;fill:#fbcd5e;fill-opacity:0.99;" d="M 236.15625 569.105469 C 234.132812 567.792969 194.355469 542.015625 206.210938 565.515625 C 207.792969 568.652344 223.605469 584.714844 226.230469 585.390625 C 234.691406 587.578125 256.664062 582.394531 236.15625 569.105469 Z M 236.15625 569.105469 "/></g></g><g clip-rule="nonzero" clip-path="url(#91ef7a5698)"><g clip-rule="evenodd" clip-path="url(#46f5ef03d3)"><path style=" stroke:none;fill-rule:evenodd;fill:#000000;fill-opacity:0.09;" d="M 647.339844 312.867188 C 670.917969 393.109375 644.992188 483.890625 598.09375 519.898438 C 522.304688 578.089844 519.125 572.902344 425.992188 596.421875 C 307.25 626.40625 301.871094 650.605469 255.761719 615.203125 C 253.472656 613.445312 144.550781 550.839844 190.152344 481.1875 C 211.804688 448.113281 262.574219 429.402344 269.816406 426.734375 C 452.335938 359.46875 464.234375 397.503906 553.371094 350.546875 C 598.605469 326.71875 603.714844 339.101562 647.339844 312.867188 Z M 647.339844 312.867188 "/></g></g><g clip-rule="nonzero" clip-path="url(#66d279802a)"><g clip-rule="evenodd" clip-path="url(#1cff0f66c6)"><path style=" stroke:none;fill-rule:evenodd;fill:#000000;fill-opacity:0.09;" d="M 245.160156 588.472656 C 209.25 581.609375 189.984375 552.097656 190.027344 566.648438 C 190.324219 664.21875 420.605469 688.632812 582.847656 564.628906 C 681.769531 489.023438 716.21875 375.3125 680.132812 308.441406 C 657.496094 266.5 645.132812 269.863281 647.59375 261.152344 C 650.054688 252.433594 695.183594 386.757812 581.484375 479.515625 C 430.660156 602.5625 295.484375 598.09375 245.160156 588.472656 Z M 245.160156 588.472656 "/></g></g><path style=" stroke:none;fill-rule:evenodd;fill:#ffedb7;fill-opacity:1;" d="M 403.105469 261.503906 C 667.753906 168.875 701.5 365.421875 581.621094 455.675781 C 471.425781 538.640625 252.308594 641.363281 190.875 539.011719 C 108.253906 401.355469 344.527344 282.007812 403.105469 261.503906 Z M 403.105469 261.503906 "/><g clip-rule="nonzero" clip-path="url(#f36f1e9eb8)"><g clip-rule="evenodd" clip-path="url(#a9882ad491)"><path style=" stroke:none;fill-rule:evenodd;fill:#fbcd5e;fill-opacity:1;" d="M 591.238281 377.84375 C 596.339844 347.046875 626.378906 335.867188 626.332031 358.710938 C 626.308594 369.734375 618.984375 424.058594 594.980469 402.511719 C 584.476562 393.078125 590.628906 381.496094 591.238281 377.84375 Z M 591.238281 377.84375 "/></g></g><g clip-rule="nonzero" clip-path="url(#140b67cae3)"><g clip-rule="evenodd" clip-path="url(#2a5d015d9a)"><path style=" stroke:none;fill-rule:evenodd;fill:#fbcd5e;fill-opacity:1;" d="M 590.710938 285.445312 C 609.050781 258.996094 641.671875 305.203125 629.230469 315.429688 C 627.980469 316.457031 627.863281 341.1875 605.679688 322.019531 C 603.289062 319.953125 580.460938 300.222656 590.710938 285.445312 Z M 590.710938 285.445312 "/></g></g><g clip-rule="nonzero" clip-path="url(#134ccea357)"><g clip-rule="evenodd" clip-path="url(#4cab39b32c)"><path style=" stroke:none;fill-rule:evenodd;fill:#fbcd5e;fill-opacity:1;" d="M 501.609375 262.371094 C 523.207031 234.183594 560.796875 237.660156 569.582031 269.433594 C 574.351562 286.683594 476.480469 295.160156 501.609375 262.371094 Z M 501.609375 262.371094 "/></g></g><g clip-rule="nonzero" clip-path="url(#7fb07ab1aa)"><g clip-rule="evenodd" clip-path="url(#b843f1e354)"><path style=" stroke:none;fill-rule:evenodd;fill:#fbcd5e;fill-opacity:1;" d="M 411.394531 277.867188 C 395.425781 292.953125 422.058594 321.113281 458.511719 288.898438 C 460.679688 286.980469 495.21875 277.652344 472.441406 268.449219 C 447.839844 258.507812 416.242188 273.285156 411.394531 277.867188 Z M 411.394531 277.867188 "/></g></g><g clip-rule="nonzero" clip-path="url(#07e3eaa352)"><g clip-rule="evenodd" clip-path="url(#b0fda3920b)"><path style=" stroke:none;fill-rule:evenodd;fill:#fbcd5e;fill-opacity:1;" d="M 506.367188 290.992188 C 532.679688 287.523438 547.453125 317.339844 499.125 334.714844 C 481.878906 340.910156 467.386719 318.734375 473.101562 310.132812 C 480.632812 298.796875 499.714844 291.871094 506.367188 290.992188 Z M 506.367188 290.992188 "/></g></g><g clip-rule="nonzero" clip-path="url(#f20473681d)"><g clip-rule="evenodd" clip-path="url(#957bfb08d2)"><path style=" stroke:none;fill-rule:evenodd;fill:#fbcd5e;fill-opacity:1;" d="M 559.070312 361.136719 C 574.269531 365.308594 609.402344 353.867188 587.367188 318.359375 C 581.582031 309.039062 563.882812 302.273438 559.101562 311.554688 C 547.546875 333.996094 556.546875 360.445312 559.070312 361.136719 Z M 559.070312 361.136719 "/></g></g><g clip-rule="nonzero" clip-path="url(#0bbda16e95)"><g clip-rule="evenodd" clip-path="url(#7932acf774)"><path style=" stroke:none;fill-rule:evenodd;fill:#fbcd5e;fill-opacity:1;" d="M 359.339844 293.535156 C 375.324219 290.644531 410.273438 293.125 390.707031 312.597656 C 382.476562 320.785156 382.792969 321.007812 371.902344 325.691406 C 364.058594 329.066406 370 334.140625 363.085938 338.902344 C 346.183594 350.546875 302.234375 385.515625 295.148438 354.3125 C 291.761719 339.378906 340.21875 296.992188 359.339844 293.535156 Z M 359.339844 293.535156 "/></g></g><g clip-rule="nonzero" clip-path="url(#660b18e696)"><g clip-rule="evenodd" clip-path="url(#1100902532)"><path style=" stroke:none;fill-rule:evenodd;fill:#fbcd5e;fill-opacity:1;" d="M 415.359375 324.996094 C 419.488281 323.515625 507.332031 315.058594 412.417969 366.769531 C 408.617188 368.839844 374.558594 387.394531 363.933594 368.5 C 352.203125 347.636719 410.269531 326.820312 415.359375 324.996094 Z M 415.359375 324.996094 "/></g></g><g clip-rule="nonzero" clip-path="url(#d07ddbef9a)"><g clip-rule="evenodd" clip-path="url(#3be1bc8b03)"><path style=" stroke:none;fill-rule:evenodd;fill:#fbcd5e;fill-opacity:1;" d="M 228.007812 381.390625 C 262.734375 339.070312 295.308594 361.179688 277.222656 381.917969 C 273.34375 386.367188 253.726562 412.171875 226.324219 421.277344 C 222.257812 422.628906 199.101562 416.613281 228.007812 381.390625 Z M 228.007812 381.390625 "/></g></g><g clip-rule="nonzero" clip-path="url(#516cd6cc9d)"><g clip-rule="evenodd" clip-path="url(#b51f8644a5)"><path style=" stroke:none;fill-rule:evenodd;fill:#fbcd5e;fill-opacity:1;" d="M 192.824219 450.859375 C 187.855469 473.957031 221.738281 484.332031 225.757812 463.992188 C 231.648438 434.183594 201.285156 411.503906 192.824219 450.859375 Z M 192.824219 450.859375 "/></g></g><g clip-rule="nonzero" clip-path="url(#5fdd7540de)"><g clip-rule="evenodd" clip-path="url(#bab240aba2)"><path style=" stroke:none;fill-rule:evenodd;fill:#fbcd5e;fill-opacity:1;" d="M 210.160156 483.773438 C 261.160156 492.832031 248.332031 531.660156 233.707031 536.570312 C 199.644531 548.003906 177.550781 477.980469 210.160156 483.773438 Z M 210.160156 483.773438 "/></g></g><g clip-rule="nonzero" clip-path="url(#4e6f8ff168)"><g clip-rule="evenodd" clip-path="url(#8ee350dc3c)"><path style=" stroke:none;fill-rule:evenodd;fill:#fbcd5e;fill-opacity:1;" d="M 289.820312 422.925781 C 294.257812 437.195312 333.570312 468.804688 331.484375 421.105469 C 331.304688 416.929688 353.03125 392.453125 318.457031 389.832031 C 296.277344 388.148438 287.109375 414.207031 289.820312 422.925781 Z M 289.820312 422.925781 "/></g></g><g clip-rule="nonzero" clip-path="url(#2fc92cbf7a)"><g clip-rule="evenodd" clip-path="url(#be3bf8dc03)"><path style=" stroke:none;fill-rule:evenodd;fill:#fbcd5e;fill-opacity:1;" d="M 239.574219 443.824219 C 227.410156 496.71875 277.632812 457.996094 279.484375 452.566406 C 293.09375 412.59375 246.742188 412.65625 239.574219 443.824219 Z M 239.574219 443.824219 "/></g></g><g clip-rule="nonzero" clip-path="url(#b3537c583e)"><g clip-rule="evenodd" clip-path="url(#cecd14c7e8)"><path style=" stroke:none;fill-rule:evenodd;fill:#fbcd5e;fill-opacity:1;" d="M 290.441406 524.496094 C 293.269531 524.378906 320.757812 523.242188 324.785156 533.046875 C 336.757812 562.195312 275.1875 567.316406 266.851562 565.414062 C 252.433594 562.125 255.441406 525.945312 290.441406 524.496094 Z M 290.441406 524.496094 "/></g></g><g clip-rule="nonzero" clip-path="url(#e178900806)"><g clip-rule="evenodd" clip-path="url(#4549a9cc41)"><path style=" stroke:none;fill-rule:evenodd;fill:#fbcd5e;fill-opacity:1;" d="M 374.683594 520.074219 C 378.058594 518.742188 415.90625 503.785156 418.902344 509.921875 C 426.613281 525.714844 382.941406 553.703125 366.0625 556.167969 C 354.542969 557.851562 331.332031 537.207031 374.683594 520.074219 Z M 374.683594 520.074219 "/></g></g><g clip-rule="nonzero" clip-path="url(#b655eba171)"><g clip-rule="evenodd" clip-path="url(#47b8a51584)"><path style=" stroke:none;fill-rule:evenodd;fill:#fbcd5e;fill-opacity:1;" d="M 446.425781 494.992188 C 421.257812 533.90625 479.921875 513.699219 484.636719 504.949219 C 498.753906 478.765625 471.230469 456.640625 446.425781 494.992188 Z M 446.425781 494.992188 "/></g></g><g clip-rule="nonzero" clip-path="url(#29ca8ed285)"><g clip-rule="evenodd" clip-path="url(#12f5c885e4)"><path style=" stroke:none;fill-rule:evenodd;fill:#fbcd5e;fill-opacity:1;" d="M 516.230469 460.871094 C 520.835938 433.082031 581.855469 433.863281 547.886719 465.246094 C 528.023438 483.597656 519.121094 477.828125 516.910156 476.398438 C 511.558594 472.929688 514.421875 471.765625 516.230469 460.871094 Z M 516.230469 460.871094 "/></g></g><g clip-rule="nonzero" clip-path="url(#d2fa745f86)"><g clip-rule="evenodd" clip-path="url(#e1ac2b3024)"><path style=" stroke:none;fill-rule:evenodd;fill:#fbcd5e;fill-opacity:1;" d="M 566.476562 442.882812 C 579.34375 448.585938 604.453125 426.597656 581.210938 407.859375 C 566.730469 396.183594 549.429688 435.324219 566.476562 442.882812 Z M 566.476562 442.882812 "/></g></g><g clip-rule="nonzero" clip-path="url(#277ba0965f)"><g clip-rule="evenodd" clip-path="url(#9dd9c2fcf1)"><path style=" stroke:none;fill-rule:evenodd;fill:#fbcd5e;fill-opacity:1;" d="M 516.75 387.390625 C 518.988281 385.316406 545.335938 360.894531 554.007812 379.398438 C 560.796875 393.886719 548.460938 408.84375 548.4375 411.015625 C 548.386719 415.671875 526.027344 450.078125 507.949219 430.046875 C 490.988281 411.261719 514.195312 389.757812 516.75 387.390625 Z M 516.75 387.390625 "/></g></g><g clip-rule="nonzero" clip-path="url(#db2c558af4)"><g clip-rule="evenodd" clip-path="url(#4b6992da9f)"><path style=" stroke:none;fill-rule:evenodd;fill:#fbcd5e;fill-opacity:1;" d="M 443.601562 438.21875 C 442.9375 439.761719 435.945312 450.601562 438.355469 461.316406 C 441.957031 477.296875 473.640625 458.835938 481.828125 457.160156 C 491.667969 455.152344 495.441406 417.929688 468.941406 423.308594 C 453.234375 426.496094 449.917969 423.589844 443.601562 438.21875 Z M 443.601562 438.21875 "/></g></g><g clip-rule="nonzero" clip-path="url(#8eda3f287f)"><g clip-rule="evenodd" clip-path="url(#4e4b337689)"><path style=" stroke:none;fill-rule:evenodd;fill:#fbcd5e;fill-opacity:1;" d="M 383.761719 467.679688 C 392.605469 463.117188 423.808594 453.570312 428.378906 462.714844 C 430 465.957031 440.644531 487.253906 403.734375 500.699219 C 355.839844 518.144531 373.652344 472.894531 383.761719 467.679688 Z M 383.761719 467.679688 "/></g></g><g clip-rule="nonzero" clip-path="url(#1411966fe9)"><g clip-rule="evenodd" clip-path="url(#ea241ea146)"><path style=" stroke:none;fill-rule:evenodd;fill:#fbcd5e;fill-opacity:1;" d="M 330.53125 482.988281 C 332.488281 482.761719 350.949219 480.636719 355.164062 483.378906 C 355.167969 483.382812 377.460938 515.1875 337.652344 516.585938 C 300.695312 517.882812 322.011719 483.96875 330.53125 482.988281 Z M 330.53125 482.988281 "/></g></g><g clip-rule="nonzero" clip-path="url(#ff6255a639)"><g clip-rule="evenodd" clip-path="url(#a7bbe2f57f)"><path style=" stroke:none;fill-rule:evenodd;fill:#fbcd5e;fill-opacity:1;" d="M 273.144531 471.195312 C 252.566406 481.976562 266.25 511.050781 285.847656 508.832031 C 337.480469 502.984375 290.089844 462.320312 273.144531 471.195312 Z M 273.144531 471.195312 "/></g></g><g clip-rule="nonzero" clip-path="url(#f9ebd09b43)"><g clip-rule="evenodd" clip-path="url(#5132b6b636)"><path style=" stroke:none;fill-rule:evenodd;fill:#fbcd5e;fill-opacity:1;" d="M 445.558594 399.480469 C 439.71875 379.5625 472.457031 346.914062 488.746094 355.695312 C 525.703125 375.617188 456.398438 436.46875 445.558594 399.480469 Z M 445.558594 399.480469 "/></g></g><g clip-rule="nonzero" clip-path="url(#a0982ee5b0)"><g clip-rule="evenodd" clip-path="url(#8abc0d597a)"><path style=" stroke:none;fill-rule:evenodd;fill:#fbcd5e;fill-opacity:1;" d="M 347.652344 427.945312 C 327.21875 466.058594 364.601562 449.886719 373.605469 447.941406 C 375.769531 447.472656 394.363281 447.414062 405.898438 430.917969 C 407.558594 428.546875 428.242188 426.539062 415.703125 397.367188 C 406.039062 374.886719 353.910156 416.273438 347.652344 427.945312 Z M 347.652344 427.945312 "/></g></g></g></svg>