<svg xmlns="http://www.w3.org/2000/svg" xmlns:xlink="http://www.w3.org/1999/xlink" width="1080" zoomAndPan="magnify" viewBox="0 0 810 809.999993" height="1080" preserveAspectRatio="xMidYMid meet" version="1.2"><defs><clipPath id="f4b93cc3a3"><path d="M 22.59375 22.59375 L 787.40625 22.59375 L 787.40625 787.40625 L 22.59375 787.40625 Z M 22.59375 22.59375 "/></clipPath><clipPath id="9ec7fc463d"><path d="M 405 22.59375 C 193.804688 22.59375 22.59375 193.804688 22.59375 405 C 22.59375 616.195312 193.804688 787.40625 405 787.40625 C 616.195312 787.40625 787.40625 616.195312 787.40625 405 C 787.40625 193.804688 616.195312 22.59375 405 22.59375 Z M 405 22.59375 "/></clipPath><clipPath id="3229e78907"><path d="M 22.59375 22.59375 L 787.394531 22.59375 L 787.394531 787.394531 L 22.59375 787.394531 Z M 22.59375 22.59375 "/></clipPath><clipPath id="fbfd8016c6"><path d="M 404.996094 22.59375 C 193.800781 22.59375 22.59375 193.800781 22.59375 404.996094 C 22.59375 616.1875 193.800781 787.394531 404.996094 787.394531 C 616.1875 787.394531 787.394531 616.1875 787.394531 404.996094 C 787.394531 193.800781 616.1875 22.59375 404.996094 22.59375 Z M 404.996094 22.59375 "/></clipPath></defs><g id="3ed6d15609"><g clip-rule="nonzero" clip-path="url(#f4b93cc3a3)"><g clip-rule="nonzero" clip-path="url(#9ec7fc463d)"><path style=" stroke:none;fill-rule:nonzero;fill:#f5f8fa;fill-opacity:1;" d="M 22.59375 22.59375 L 787.40625 22.59375 L 787.40625 787.40625 L 22.59375 787.40625 Z M 22.59375 22.59375 "/></g></g><g clip-rule="nonzero" clip-path="url(#3229e78907)"><g clip-rule="nonzero" clip-path="url(#fbfd8016c6)"><path style="fill:none;stroke-width:60;stroke-linecap:butt;stroke-linejoin:miter;stroke:#000000;stroke-opacity:1;stroke-miterlimit:4;" d="M 509.869292 -0.000493951 C 228.275527 -0.000493951 -0.000525711 228.275559 -0.000525711 509.869323 C -0.000525711 791.457879 228.275527 1019.733932 509.869292 1019.733932 C 791.457847 1019.733932 1019.733901 791.457879 1019.733901 509.869323 C 1019.733901 228.275559 791.457847 -0.000493951 509.869292 -0.000493951 Z M 509.869292 -0.000493951 " transform="matrix(0.75,0,0,0.75,22.594144,22.59412)"/></g></g><path style=" stroke:none;fill-rule:nonzero;fill:#b5542f;fill-opacity:1;" d="M 389.472656 231.8125 C 389.472656 231.8125 308.253906 263.109375 283.949219 277.515625 C 259.640625 291.921875 209.359375 328.789062 196.46875 347.800781 C 183.574219 366.8125 241.472656 396.722656 247.167969 396.722656 C 252.863281 396.722656 453.128906 329.03125 453.128906 329.03125 Z M 389.472656 231.8125 "/><path style=" stroke:none;fill-rule:nonzero;fill:#599942;fill-opacity:1;" d="M 407.988281 334.675781 C 407.988281 334.675781 503.140625 321.378906 498.566406 251.011719 C 498.566406 251.011719 437.929688 239.957031 407.988281 334.675781 Z M 407.988281 334.675781 "/><path style=" stroke:none;fill-rule:nonzero;fill:#cae4c0;fill-opacity:1;" d="M 487.105469 263.257812 C 487.15625 263.28125 487.199219 263.3125 487.238281 263.351562 C 487.3125 263.433594 487.351562 263.53125 487.347656 263.644531 C 487.34375 263.757812 487.300781 263.855469 487.21875 263.933594 C 487.21875 263.933594 472.765625 277.589844 456.394531 292.320312 C 472.253906 292.894531 485.378906 286.488281 485.378906 286.488281 C 485.480469 286.441406 485.585938 286.433594 485.695312 286.472656 C 485.800781 286.507812 485.878906 286.578125 485.929688 286.679688 C 485.980469 286.78125 485.984375 286.886719 485.949219 286.996094 C 485.910156 287.101562 485.84375 287.179688 485.742188 287.230469 C 485.742188 287.230469 472.050781 293.929688 455.621094 293.113281 C 455.589844 293.105469 455.5625 293.101562 455.535156 293.089844 C 454.730469 293.8125 453.929688 294.53125 453.121094 295.253906 C 448.15625 299.691406 443.105469 304.136719 438.28125 308.277344 C 445.890625 308.300781 458.855469 305.855469 458.855469 305.855469 C 458.964844 305.835938 459.070312 305.855469 459.164062 305.917969 C 459.257812 305.984375 459.316406 306.070312 459.335938 306.183594 C 459.355469 306.292969 459.335938 306.394531 459.273438 306.488281 C 459.207031 306.582031 459.121094 306.640625 459.007812 306.664062 C 459.007812 306.664062 445.640625 309.207031 437.898438 309.097656 C 437.75 309.09375 437.636719 309.027344 437.558594 308.898438 C 434.054688 311.898438 430.679688 314.734375 427.578125 317.246094 C 423.796875 320.308594 420.414062 322.914062 417.652344 324.824219 C 414.894531 326.738281 412.808594 327.957031 411.414062 328.257812 C 411.304688 328.28125 411.199219 328.261719 411.105469 328.199219 C 411.007812 328.140625 410.949219 328.054688 410.925781 327.941406 C 410.902344 327.832031 410.921875 327.726562 410.980469 327.632812 C 411.042969 327.539062 411.128906 327.476562 411.238281 327.453125 C 412.320312 327.222656 414.453125 326.039062 417.183594 324.148438 C 419.914062 322.257812 423.285156 319.664062 427.058594 316.605469 C 433.171875 311.652344 440.335938 305.480469 447.53125 299.121094 C 448.699219 292.042969 452.867188 282.90625 456.738281 275.5 C 460.617188 268.085938 464.210938 262.421875 464.210938 262.421875 C 464.269531 262.328125 464.355469 262.265625 464.46875 262.242188 C 464.578125 262.214844 464.679688 262.234375 464.777344 262.296875 C 464.871094 262.355469 464.933594 262.441406 464.957031 262.554688 C 464.984375 262.664062 464.964844 262.765625 464.902344 262.863281 C 464.902344 262.863281 461.328125 268.5 457.46875 275.882812 C 453.796875 282.898438 449.875 291.496094 448.527344 298.238281 C 449.878906 297.042969 451.226562 295.84375 452.570312 294.640625 C 470.230469 278.855469 486.65625 263.332031 486.65625 263.332031 C 486.738281 263.257812 486.835938 263.21875 486.949219 263.222656 C 487.003906 263.222656 487.054688 263.234375 487.105469 263.257812 Z M 487.105469 263.257812 "/><path style=" stroke:none;fill-rule:nonzero;fill:#ebc1b2;fill-opacity:1;" d="M 438.128906 263.105469 C 438.851562 264.5625 439.53125 266.042969 440.164062 267.535156 C 440.796875 269.03125 441.378906 270.539062 441.914062 272.058594 C 442.449219 273.574219 442.933594 275.097656 443.367188 276.621094 C 443.796875 278.148438 444.179688 279.667969 444.503906 281.1875 C 444.828125 282.707031 445.101562 284.214844 445.316406 285.710938 C 445.53125 287.207031 445.691406 288.683594 445.796875 290.144531 C 445.902344 291.605469 445.949219 293.042969 445.941406 294.453125 C 445.929688 295.863281 445.863281 297.238281 445.742188 298.585938 C 445.621094 299.933594 445.445312 301.242188 445.210938 302.511719 C 444.976562 303.78125 444.6875 305.007812 444.34375 306.1875 C 444.003906 307.367188 443.605469 308.496094 443.15625 309.578125 C 442.707031 310.660156 442.207031 311.683594 441.65625 312.652344 C 441.105469 313.621094 440.507812 314.53125 439.859375 315.382812 C 439.210938 316.230469 438.519531 317.015625 437.78125 317.738281 C 437.042969 318.460938 436.261719 319.113281 435.441406 319.699219 C 434.621094 320.285156 433.761719 320.800781 432.867188 321.246094 C 431.96875 321.691406 431.039062 322.0625 430.078125 322.363281 C 429.113281 322.664062 428.121094 322.890625 427.101562 323.042969 C 426.082031 323.191406 425.039062 323.269531 423.96875 323.273438 C 422.902344 323.273438 421.816406 323.203125 420.710938 323.054688 C 419.605469 322.910156 418.488281 322.6875 417.355469 322.390625 C 416.222656 322.097656 415.082031 321.730469 413.9375 321.289062 C 412.789062 320.847656 411.640625 320.335938 410.488281 319.753906 C 409.335938 319.175781 408.1875 318.523438 407.039062 317.808594 C 405.894531 317.089844 404.757812 316.308594 403.628906 315.464844 C 402.5 314.617188 401.386719 313.710938 400.285156 312.746094 C 399.1875 311.78125 398.105469 310.757812 397.046875 309.683594 C 395.984375 308.605469 394.949219 307.476562 393.9375 306.300781 C 392.921875 305.121094 391.941406 303.902344 390.988281 302.632812 C 390.035156 301.367188 389.117188 300.0625 388.230469 298.714844 C 387.347656 297.371094 386.5 295.996094 385.691406 294.589844 C 384.882812 293.179688 384.117188 291.746094 383.394531 290.285156 C 382.667969 288.828125 381.992188 287.351562 381.359375 285.855469 C 380.726562 284.359375 380.140625 282.851562 379.605469 281.335938 C 379.070312 279.816406 378.585938 278.292969 378.152344 276.769531 C 377.722656 275.242188 377.34375 273.722656 377.015625 272.203125 C 376.691406 270.683594 376.417969 269.175781 376.203125 267.679688 C 375.988281 266.183594 375.828125 264.707031 375.722656 263.246094 C 375.621094 261.785156 375.570312 260.351562 375.582031 258.9375 C 375.589844 257.527344 375.65625 256.152344 375.777344 254.804688 C 375.898438 253.457031 376.078125 252.148438 376.308594 250.878906 C 376.542969 249.609375 376.832031 248.386719 377.175781 247.203125 C 377.519531 246.023438 377.914062 244.894531 378.363281 243.8125 C 378.8125 242.734375 379.3125 241.707031 379.863281 240.738281 C 380.414062 239.769531 381.011719 238.859375 381.660156 238.007812 C 382.308594 237.160156 383 236.375 383.738281 235.652344 C 384.476562 234.933594 385.257812 234.277344 386.078125 233.691406 C 386.898438 233.105469 387.757812 232.589844 388.652344 232.144531 C 389.550781 231.699219 390.480469 231.328125 391.441406 231.027344 C 392.40625 230.726562 393.398438 230.503906 394.417969 230.351562 C 395.4375 230.199219 396.480469 230.121094 397.550781 230.117188 C 398.617188 230.117188 399.703125 230.1875 400.808594 230.335938 C 401.914062 230.484375 403.03125 230.703125 404.164062 231 C 405.296875 231.292969 406.4375 231.664062 407.582031 232.101562 C 408.730469 232.542969 409.878906 233.054688 411.03125 233.636719 C 412.183594 234.21875 413.335938 234.867188 414.480469 235.582031 C 415.625 236.300781 416.761719 237.082031 417.890625 237.929688 C 419.019531 238.773438 420.132812 239.679688 421.234375 240.644531 C 422.332031 241.609375 423.414062 242.632812 424.476562 243.710938 C 425.535156 244.785156 426.570312 245.914062 427.585938 247.089844 C 428.597656 248.269531 429.578125 249.492188 430.53125 250.757812 C 431.484375 252.023438 432.402344 253.332031 433.289062 254.675781 C 434.171875 256.019531 435.019531 257.394531 435.828125 258.804688 C 436.636719 260.210938 437.402344 261.644531 438.128906 263.105469 Z M 438.128906 263.105469 "/><path style=" stroke:none;fill-rule:nonzero;fill:#6e3721;fill-opacity:1;" d="M 271.242188 346.628906 C 271.242188 346.628906 300.644531 327.800781 324.308594 315.636719 C 347.96875 303.46875 352.09375 301.636719 352.09375 301.636719 C 352.09375 301.636719 296.359375 321.503906 271.242188 346.628906 Z M 271.242188 346.628906 "/><path style=" stroke:none;fill-rule:nonzero;fill:#6e3721;fill-opacity:1;" d="M 271.421875 308.40625 C 271.421875 308.40625 300.824219 289.582031 324.484375 277.414062 C 348.148438 265.25 352.269531 263.417969 352.269531 263.417969 C 352.269531 263.417969 296.539062 283.28125 271.421875 308.40625 Z M 271.421875 308.40625 "/><path style=" stroke:none;fill-rule:nonzero;fill:#f1d3c8;fill-opacity:1;" d="M 413.125 275.519531 C 413.378906 276.03125 413.5625 276.550781 413.675781 277.082031 C 413.789062 277.617188 413.828125 278.117188 413.785156 278.589844 C 413.742188 279.058594 413.625 279.464844 413.429688 279.804688 C 413.238281 280.144531 412.984375 280.390625 412.671875 280.546875 C 412.355469 280.703125 412.007812 280.753906 411.621094 280.703125 C 411.234375 280.652344 410.839844 280.5 410.4375 280.25 C 410.039062 280 409.660156 279.667969 409.304688 279.253906 C 408.953125 278.84375 408.648438 278.382812 408.394531 277.871094 C 408.140625 277.359375 407.957031 276.839844 407.84375 276.308594 C 407.730469 275.777344 407.695312 275.273438 407.738281 274.804688 C 407.777344 274.332031 407.898438 273.925781 408.089844 273.585938 C 408.28125 273.246094 408.535156 273 408.847656 272.84375 C 409.164062 272.6875 409.511719 272.636719 409.898438 272.6875 C 410.285156 272.738281 410.679688 272.890625 411.082031 273.140625 C 411.484375 273.394531 411.859375 273.722656 412.214844 274.136719 C 412.570312 274.546875 412.871094 275.011719 413.125 275.519531 Z M 413.125 275.519531 "/><path style=" stroke:none;fill-rule:nonzero;fill:#8d462b;fill-opacity:1;" d="M 594.710938 479.148438 C 541.238281 479.054688 475.964844 453.265625 448.988281 447.757812 C 421.144531 442.074219 339.859375 435.578125 290.878906 438.527344 C 241.894531 441.476562 176.609375 402.179688 158.941406 386.933594 C 141.269531 371.6875 139.992188 336.527344 169.957031 334.519531 C 199.917969 332.507812 326.777344 330.390625 347.617188 325.019531 C 368.453125 319.644531 426.941406 303.882812 478.460938 300.472656 C 529.976562 297.0625 628.175781 310.679688 656.753906 328.40625 C 685.328125 346.132812 682.015625 384.257812 682.015625 384.257812 C 682.015625 384.257812 698.496094 396.796875 703.347656 401.453125 C 708.195312 406.109375 727.285156 413.308594 730.703125 415.867188 C 734.121094 418.429688 724.34375 460.402344 724.34375 460.402344 C 724.34375 460.402344 719.453125 452.769531 703.597656 442.875 C 694.160156 436.984375 681.457031 434.976562 672.71875 434.3125 C 660.859375 464.53125 637.59375 477.917969 599.847656 479.074219 C 598.148438 479.125 596.4375 479.148438 594.710938 479.144531 Z M 594.710938 479.148438 "/><path style=" stroke:none;fill-rule:nonzero;fill:#6e3721;fill-opacity:1;" d="M 211.316406 349.746094 C 211.316406 349.746094 282.382812 354.128906 321.148438 349.214844 C 359.910156 344.300781 375.605469 342.980469 375.605469 342.980469 C 375.605469 342.980469 284.890625 370.988281 211.316406 349.746094 Z M 211.316406 349.746094 "/><path style=" stroke:none;fill-rule:nonzero;fill:#6e3721;fill-opacity:1;" d="M 513.976562 451.660156 C 513.976562 451.660156 569.335938 468.652344 597.199219 468.652344 C 625.066406 468.652344 635.152344 464.921875 635.152344 464.921875 C 635.152344 464.921875 580.761719 467.476562 513.976562 451.660156 Z M 513.976562 451.660156 "/><path style=" stroke:none;fill-rule:nonzero;fill:#6e3721;fill-opacity:1;" d="M 467.710938 345.277344 C 467.710938 345.277344 518.566406 336.507812 571.113281 341.53125 C 623.660156 346.554688 628.167969 348.671875 628.167969 348.671875 C 628.167969 348.671875 496.84375 339.210938 467.710938 345.277344 Z M 467.710938 345.277344 "/><path style=" stroke:none;fill-rule:nonzero;fill:#6e3721;fill-opacity:1;" d="M 374.03125 404.714844 C 374.03125 404.714844 417.453125 405.246094 450.367188 409.667969 C 483.28125 414.09375 488.820312 415.25 488.820312 415.25 C 488.820312 415.25 417.273438 393.054688 374.03125 404.714844 Z M 374.03125 404.714844 "/><path style=" stroke:none;fill-rule:nonzero;fill:#6e3721;fill-opacity:1;" d="M 658.34375 403.359375 C 634.671875 422.457031 573.550781 418.800781 573.550781 418.800781 C 573.550781 418.800781 632.769531 432.269531 658.34375 403.359375 Z M 658.34375 403.359375 "/><path style=" stroke:none;fill-rule:nonzero;fill:#6e3721;fill-opacity:1;" d="M 254.683594 407.65625 C 228.925781 405.277344 188.015625 385.546875 188.015625 385.546875 C 188.015625 385.546875 222.566406 411.613281 254.683594 407.65625 Z M 254.683594 407.65625 "/><path style=" stroke:none;fill-rule:nonzero;fill:#6e3721;fill-opacity:1;" d="M 680.542969 420.636719 C 680.542969 420.636719 696.074219 428.128906 704.28125 431.164062 C 712.488281 434.199219 720.351562 441.980469 720.351562 441.980469 C 720.351562 441.980469 713.386719 427.226562 680.542969 420.636719 Z M 680.542969 420.636719 "/><path style=" stroke:none;fill-rule:nonzero;fill:#6e3721;fill-opacity:1;" d="M 425.300781 375.804688 C 425.300781 375.804688 464.210938 369.09375 504.417969 372.9375 C 544.621094 376.78125 548.070312 378.402344 548.070312 378.402344 C 548.070312 378.402344 447.589844 371.164062 425.300781 375.804688 Z M 425.300781 375.804688 "/><path style=" stroke:none;fill-rule:nonzero;fill:#8d462b;fill-opacity:1;" d="M 198.640625 391.769531 C 199.910156 392.128906 201.167969 392.507812 202.417969 392.914062 C 203.667969 393.316406 204.90625 393.742188 206.132812 394.191406 C 207.359375 394.640625 208.574219 395.109375 209.777344 395.601562 C 210.976562 396.097656 212.164062 396.609375 213.335938 397.144531 C 214.507812 397.683594 215.664062 398.238281 216.808594 398.816406 C 217.949219 399.394531 219.070312 399.992188 220.179688 400.609375 C 221.285156 401.226562 222.375 401.863281 223.445312 402.519531 C 224.515625 403.175781 225.5625 403.851562 226.59375 404.546875 C 227.625 405.242188 228.636719 405.953125 229.625 406.679688 C 230.613281 407.410156 231.578125 408.15625 232.523438 408.917969 C 233.464844 409.683594 234.386719 410.460938 235.285156 411.257812 C 236.183594 412.050781 237.054688 412.863281 237.90625 413.6875 C 238.753906 414.511719 239.578125 415.351562 240.375 416.203125 C 241.175781 417.058594 241.945312 417.921875 242.691406 418.800781 C 243.4375 419.679688 244.15625 420.570312 244.84375 421.476562 C 245.535156 422.378906 246.199219 423.292969 246.832031 424.214844 C 247.46875 425.140625 248.074219 426.074219 248.652344 427.019531 C 249.226562 427.960938 249.773438 428.914062 250.292969 429.875 C 250.8125 430.835938 251.296875 431.804688 251.753906 432.78125 C 252.214844 433.757812 252.640625 434.738281 253.035156 435.730469 C 253.433594 436.71875 253.796875 437.710938 254.128906 438.710938 C 254.464844 439.707031 254.765625 440.710938 255.035156 441.71875 C 255.304688 442.722656 255.542969 443.730469 255.75 444.742188 C 255.957031 445.753906 256.132812 446.769531 256.273438 447.78125 C 256.417969 448.796875 256.527344 449.8125 256.601562 450.828125 C 256.679688 451.84375 256.726562 452.855469 256.738281 453.867188 C 256.75 454.882812 256.730469 455.890625 256.679688 456.902344 C 256.625 457.910156 256.542969 458.914062 256.425781 459.917969 C 256.308594 460.917969 256.15625 461.914062 255.976562 462.90625 C 255.792969 463.898438 255.582031 464.886719 255.335938 465.867188 C 255.089844 466.847656 254.8125 467.820312 254.5 468.785156 C 254.191406 469.753906 253.851562 470.710938 253.480469 471.660156 C 253.109375 472.609375 252.703125 473.550781 252.269531 474.484375 C 251.835938 475.414062 251.371094 476.335938 250.878906 477.246094 C 250.382812 478.15625 249.859375 479.054688 249.304688 479.941406 C 248.75 480.828125 248.167969 481.703125 247.554688 482.566406 C 246.941406 483.429688 246.300781 484.277344 245.632812 485.113281 C 244.960938 485.945312 244.265625 486.765625 243.539062 487.574219 C 242.816406 488.378906 242.066406 489.167969 241.285156 489.941406 C 240.507812 490.714844 239.707031 491.472656 238.875 492.214844 C 238.046875 492.957031 237.191406 493.679688 236.3125 494.382812 C 235.433594 495.089844 234.53125 495.777344 233.605469 496.449219 C 232.675781 497.117188 231.726562 497.765625 230.757812 498.398438 C 229.785156 499.03125 228.792969 499.640625 227.777344 500.234375 C 226.761719 500.824219 225.726562 501.394531 224.671875 501.945312 C 223.617188 502.496094 222.542969 503.023438 221.449219 503.53125 C 220.355469 504.039062 219.246094 504.527344 218.117188 504.988281 C 216.988281 505.453125 215.84375 505.894531 214.683594 506.3125 C 213.523438 506.734375 212.347656 507.128906 211.15625 507.503906 C 209.96875 507.875 208.761719 508.226562 207.546875 508.550781 C 206.328125 508.878906 205.097656 509.179688 203.859375 509.460938 C 202.617188 509.738281 201.363281 509.992188 200.101562 510.222656 C 198.839844 510.453125 197.570312 510.660156 196.289062 510.84375 C 195.007812 511.023438 193.722656 511.183594 192.425781 511.316406 C 191.132812 511.449219 189.832031 511.554688 188.523438 511.636719 C 187.21875 511.722656 185.90625 511.78125 184.589844 511.8125 C 183.273438 511.847656 181.957031 511.855469 180.636719 511.839844 C 179.316406 511.824219 177.992188 511.78125 176.671875 511.714844 C 175.347656 511.648438 174.027344 511.558594 172.703125 511.441406 C 171.382812 511.324219 170.0625 511.183594 168.746094 511.019531 C 167.425781 510.855469 166.113281 510.664062 164.800781 510.453125 C 163.492188 510.238281 162.1875 510 160.886719 509.734375 C 159.585938 509.472656 158.292969 509.1875 157.007812 508.875 C 155.722656 508.566406 154.445312 508.234375 153.175781 507.875 C 151.90625 507.519531 150.644531 507.136719 149.394531 506.734375 C 148.144531 506.332031 146.90625 505.902344 145.679688 505.457031 C 144.453125 505.007812 143.238281 504.535156 142.039062 504.042969 C 140.835938 503.550781 139.648438 503.035156 138.476562 502.5 C 137.304688 501.964844 136.148438 501.40625 135.007812 500.828125 C 133.867188 500.25 132.742188 499.652344 131.632812 499.035156 C 130.527344 498.417969 129.4375 497.78125 128.371094 497.125 C 127.300781 496.46875 126.25 495.792969 125.21875 495.097656 C 124.1875 494.40625 123.179688 493.695312 122.191406 492.964844 C 121.203125 492.234375 120.234375 491.488281 119.289062 490.726562 C 118.347656 489.964844 117.425781 489.183594 116.527344 488.390625 C 115.628906 487.59375 114.757812 486.785156 113.90625 485.960938 C 113.058594 485.132812 112.234375 484.296875 111.4375 483.441406 C 110.640625 482.589844 109.867188 481.722656 109.121094 480.84375 C 108.375 479.964844 107.660156 479.074219 106.96875 478.171875 C 106.277344 477.269531 105.613281 476.355469 104.980469 475.429688 C 104.34375 474.507812 103.738281 473.570312 103.164062 472.628906 C 102.585938 471.683594 102.039062 470.730469 101.519531 469.769531 C 101.003906 468.808594 100.515625 467.839844 100.058594 466.863281 C 99.601562 465.886719 99.171875 464.90625 98.777344 463.917969 C 98.382812 462.929688 98.015625 461.9375 97.683594 460.9375 C 97.347656 459.9375 97.046875 458.9375 96.777344 457.929688 C 96.507812 456.921875 96.269531 455.914062 96.0625 454.902344 C 95.855469 453.890625 95.679688 452.878906 95.539062 451.863281 C 95.398438 450.847656 95.289062 449.835938 95.210938 448.820312 C 95.132812 447.804688 95.085938 446.789062 95.074219 445.777344 C 95.0625 444.765625 95.082031 443.753906 95.136719 442.746094 C 95.1875 441.738281 95.273438 440.730469 95.390625 439.730469 C 95.507812 438.730469 95.65625 437.730469 95.835938 436.738281 C 96.019531 435.746094 96.234375 434.761719 96.480469 433.78125 C 96.726562 432.800781 97.003906 431.828125 97.3125 430.859375 C 97.621094 429.894531 97.960938 428.933594 98.332031 427.984375 C 98.707031 427.035156 99.109375 426.09375 99.542969 425.164062 C 99.976562 424.230469 100.441406 423.308594 100.933594 422.398438 C 101.429688 421.488281 101.953125 420.589844 102.507812 419.703125 C 103.0625 418.816406 103.644531 417.941406 104.257812 417.078125 C 104.871094 416.21875 105.511719 415.367188 106.183594 414.535156 C 106.851562 413.699219 107.546875 412.878906 108.273438 412.074219 C 108.996094 411.269531 109.75 410.480469 110.527344 409.703125 C 111.304688 408.929688 112.109375 408.171875 112.9375 407.433594 C 113.765625 406.691406 114.621094 405.96875 115.5 405.261719 C 116.378906 404.554688 117.28125 403.867188 118.210938 403.199219 C 119.136719 402.527344 120.085938 401.878906 121.058594 401.246094 C 122.027344 400.617188 123.023438 400.003906 124.035156 399.414062 C 125.050781 398.820312 126.085938 398.25 127.140625 397.699219 C 128.195312 397.152344 129.269531 396.621094 130.363281 396.113281 C 131.457031 395.605469 132.566406 395.121094 133.695312 394.65625 C 134.824219 394.191406 135.96875 393.75 137.128906 393.332031 C 138.289062 392.914062 139.464844 392.515625 140.65625 392.144531 C 141.847656 391.769531 143.050781 391.421875 144.265625 391.09375 C 145.484375 390.769531 146.714844 390.464844 147.957031 390.1875 C 149.195312 389.90625 150.449219 389.652344 151.710938 389.421875 C 152.972656 389.191406 154.242188 388.984375 155.523438 388.804688 C 156.804688 388.621094 158.09375 388.464844 159.386719 388.332031 C 160.683594 388.199219 161.984375 388.089844 163.289062 388.007812 C 164.597656 387.925781 165.90625 387.867188 167.222656 387.832031 C 168.539062 387.800781 169.855469 387.792969 171.175781 387.808594 C 172.496094 387.824219 173.820312 387.863281 175.140625 387.929688 C 176.464844 387.996094 177.785156 388.089844 179.109375 388.203125 C 180.429688 388.320312 181.75 388.460938 183.070312 388.625 C 184.386719 388.792969 185.699219 388.980469 187.011719 389.195312 C 188.320312 389.410156 189.625 389.648438 190.925781 389.910156 C 192.226562 390.171875 193.519531 390.457031 194.804688 390.769531 C 196.089844 391.078125 197.371094 391.414062 198.640625 391.769531 Z M 198.640625 391.769531 "/><path style=" stroke:none;fill-rule:nonzero;fill:#efe1d4;fill-opacity:1;" d="M 181.699219 379.089844 C 182.980469 379.203125 184.257812 379.34375 185.535156 379.503906 C 186.8125 379.667969 188.085938 379.855469 189.359375 380.0625 C 190.628906 380.273438 191.898438 380.503906 193.160156 380.757812 C 194.421875 381.015625 195.675781 381.292969 196.925781 381.59375 C 198.175781 381.894531 199.421875 382.21875 200.65625 382.5625 C 201.890625 382.910156 203.117188 383.277344 204.332031 383.667969 C 205.550781 384.058594 206.753906 384.46875 207.953125 384.902344 C 209.148438 385.335938 210.332031 385.789062 211.503906 386.265625 C 212.675781 386.738281 213.832031 387.234375 214.976562 387.75 C 216.125 388.265625 217.253906 388.804688 218.371094 389.359375 C 219.484375 389.914062 220.585938 390.488281 221.667969 391.085938 C 222.75 391.679688 223.816406 392.292969 224.867188 392.921875 C 225.914062 393.554688 226.945312 394.203125 227.957031 394.871094 C 228.96875 395.539062 229.957031 396.222656 230.929688 396.921875 C 231.902344 397.621094 232.851562 398.339844 233.78125 399.070312 C 234.710938 399.804688 235.617188 400.550781 236.503906 401.316406 C 237.386719 402.078125 238.25 402.855469 239.089844 403.648438 C 239.925781 404.4375 240.742188 405.246094 241.53125 406.0625 C 242.320312 406.878906 243.085938 407.710938 243.824219 408.554688 C 244.566406 409.398438 245.277344 410.25 245.964844 411.117188 C 246.652344 411.984375 247.316406 412.859375 247.949219 413.746094 C 248.582031 414.632812 249.1875 415.527344 249.765625 416.429688 C 250.34375 417.335938 250.894531 418.25 251.417969 419.167969 C 251.9375 420.089844 252.429688 421.019531 252.894531 421.953125 C 253.355469 422.886719 253.792969 423.828125 254.195312 424.773438 C 254.601562 425.722656 254.972656 426.671875 255.316406 427.628906 C 255.664062 428.585938 255.976562 429.546875 256.261719 430.507812 C 256.542969 431.472656 256.796875 432.4375 257.015625 433.40625 C 257.238281 434.375 257.429688 435.34375 257.589844 436.3125 C 257.75 437.285156 257.878906 438.253906 257.972656 439.226562 C 258.070312 440.195312 258.136719 441.167969 258.171875 442.136719 C 258.207031 443.105469 258.207031 444.070312 258.179688 445.035156 C 258.152344 446 258.089844 446.960938 258 447.917969 C 257.910156 448.875 257.785156 449.828125 257.632812 450.777344 C 257.476562 451.722656 257.292969 452.667969 257.078125 453.605469 C 256.859375 454.539062 256.613281 455.472656 256.335938 456.394531 C 256.058594 457.316406 255.75 458.230469 255.410156 459.140625 C 255.070312 460.046875 254.703125 460.945312 254.304688 461.835938 C 253.90625 462.722656 253.476562 463.601562 253.019531 464.472656 C 252.558594 465.34375 252.074219 466.199219 251.554688 467.046875 C 251.039062 467.894531 250.496094 468.726562 249.921875 469.550781 C 249.347656 470.375 248.746094 471.183594 248.121094 471.980469 C 247.492188 472.773438 246.835938 473.558594 246.152344 474.324219 C 245.46875 475.09375 244.761719 475.84375 244.027344 476.582031 C 243.289062 477.320312 242.53125 478.042969 241.746094 478.75 C 240.960938 479.457031 240.148438 480.144531 239.316406 480.816406 C 238.480469 481.488281 237.621094 482.144531 236.742188 482.78125 C 235.859375 483.417969 234.957031 484.035156 234.03125 484.636719 C 233.105469 485.238281 232.160156 485.820312 231.191406 486.382812 C 230.222656 486.945312 229.238281 487.488281 228.230469 488.007812 C 227.222656 488.53125 226.195312 489.035156 225.148438 489.515625 C 224.105469 490 223.042969 490.460938 221.960938 490.898438 C 220.878906 491.339844 219.785156 491.757812 218.671875 492.15625 C 217.558594 492.550781 216.429688 492.925781 215.289062 493.28125 C 214.144531 493.632812 212.988281 493.964844 211.820312 494.273438 C 210.652344 494.582031 209.46875 494.867188 208.273438 495.128906 C 207.082031 495.390625 205.878906 495.632812 204.660156 495.847656 C 203.445312 496.066406 202.222656 496.257812 200.988281 496.429688 C 199.753906 496.597656 198.515625 496.746094 197.265625 496.867188 C 196.015625 496.988281 194.761719 497.089844 193.5 497.164062 C 192.238281 497.238281 190.972656 497.289062 189.703125 497.320312 C 188.433594 497.347656 187.160156 497.351562 185.882812 497.332031 C 184.605469 497.308594 183.328125 497.265625 182.046875 497.199219 C 180.765625 497.132812 179.484375 497.039062 178.207031 496.925781 C 176.925781 496.808594 175.648438 496.671875 174.371094 496.507812 C 173.09375 496.347656 171.816406 496.160156 170.546875 495.953125 C 169.273438 495.742188 168.007812 495.511719 166.746094 495.257812 C 165.484375 495 164.226562 494.722656 162.976562 494.421875 C 161.726562 494.121094 160.484375 493.796875 159.25 493.453125 C 158.015625 493.105469 156.789062 492.738281 155.574219 492.347656 C 154.355469 491.957031 153.148438 491.546875 151.953125 491.113281 C 150.757812 490.679688 149.574219 490.226562 148.402344 489.75 C 147.230469 489.277344 146.074219 488.78125 144.925781 488.265625 C 143.78125 487.746094 142.652344 487.210938 141.535156 486.65625 C 140.421875 486.101562 139.320312 485.523438 138.238281 484.929688 C 137.15625 484.335938 136.089844 483.722656 135.039062 483.089844 C 133.992188 482.460938 132.960938 481.8125 131.949219 481.144531 C 130.9375 480.476562 129.945312 479.792969 128.976562 479.09375 C 128.003906 478.390625 127.054688 477.675781 126.125 476.941406 C 125.195312 476.210938 124.289062 475.460938 123.402344 474.699219 C 122.519531 473.9375 121.65625 473.160156 120.816406 472.367188 C 119.980469 471.574219 119.164062 470.769531 118.375 469.953125 C 117.585938 469.132812 116.820312 468.304688 116.078125 467.460938 C 115.339844 466.617188 114.625 465.761719 113.9375 464.898438 C 113.25 464.03125 112.589844 463.15625 111.957031 462.269531 C 111.324219 461.382812 110.71875 460.488281 110.140625 459.582031 C 109.5625 458.679688 109.011719 457.765625 108.488281 456.84375 C 107.96875 455.925781 107.476562 454.996094 107.011719 454.0625 C 106.546875 453.128906 106.113281 452.1875 105.710938 451.238281 C 105.304688 450.292969 104.929688 449.339844 104.585938 448.386719 C 104.242188 447.429688 103.929688 446.46875 103.644531 445.507812 C 103.363281 444.542969 103.109375 443.578125 102.886719 442.609375 C 102.667969 441.640625 102.476562 440.671875 102.316406 439.703125 C 102.15625 438.730469 102.027344 437.761719 101.929688 436.789062 C 101.835938 435.816406 101.769531 434.847656 101.734375 433.878906 C 101.699219 432.910156 101.699219 431.945312 101.726562 430.980469 C 101.753906 430.015625 101.8125 429.054688 101.90625 428.097656 C 101.996094 427.140625 102.121094 426.1875 102.273438 425.238281 C 102.425781 424.289062 102.613281 423.347656 102.828125 422.410156 C 103.046875 421.472656 103.292969 420.542969 103.570312 419.621094 C 103.847656 418.699219 104.15625 417.78125 104.496094 416.875 C 104.832031 415.96875 105.203125 415.070312 105.601562 414.179688 C 106 413.289062 106.429688 412.410156 106.886719 411.542969 C 107.34375 410.671875 107.832031 409.816406 108.347656 408.96875 C 108.867188 408.121094 109.410156 407.285156 109.984375 406.464844 C 110.554688 405.640625 111.15625 404.832031 111.785156 404.035156 C 112.414062 403.242188 113.070312 402.457031 113.753906 401.691406 C 114.4375 400.921875 115.144531 400.167969 115.878906 399.429688 C 116.613281 398.695312 117.375 397.972656 118.160156 397.265625 C 118.945312 396.558594 119.757812 395.871094 120.589844 395.199219 C 121.425781 394.527344 122.28125 393.871094 123.164062 393.234375 C 124.042969 392.597656 124.949219 391.976562 125.875 391.378906 C 126.800781 390.777344 127.746094 390.195312 128.714844 389.632812 C 129.679688 389.070312 130.667969 388.527344 131.675781 388.003906 C 132.683594 387.484375 133.710938 386.980469 134.757812 386.5 C 135.800781 386.015625 136.863281 385.554688 137.945312 385.113281 C 139.023438 384.675781 140.121094 384.257812 141.234375 383.859375 C 142.347656 383.460938 143.476562 383.085938 144.617188 382.734375 C 145.761719 382.382812 146.917969 382.050781 148.085938 381.742188 C 149.253906 381.433594 150.4375 381.148438 151.628906 380.886719 C 152.824219 380.621094 154.027344 380.382812 155.242188 380.167969 C 156.457031 379.949219 157.683594 379.757812 158.917969 379.585938 C 160.148438 379.417969 161.390625 379.269531 162.640625 379.148438 C 163.886719 379.027344 165.144531 378.925781 166.40625 378.851562 C 167.667969 378.777344 168.933594 378.722656 170.203125 378.695312 C 171.472656 378.667969 172.746094 378.664062 174.023438 378.683594 C 175.300781 378.707031 176.578125 378.75 177.859375 378.816406 C 179.140625 378.882812 180.417969 378.976562 181.699219 379.089844 Z M 181.699219 379.089844 "/><path style=" stroke:none;fill-rule:nonzero;fill:#ead8c8;fill-opacity:1;" d="M 180.121094 432.285156 C 180.621094 432.328125 181.113281 432.410156 181.601562 432.527344 C 182.089844 432.644531 182.5625 432.792969 183.019531 432.980469 C 183.476562 433.164062 183.90625 433.382812 184.316406 433.628906 C 184.726562 433.875 185.101562 434.144531 185.445312 434.441406 C 185.792969 434.738281 186.097656 435.058594 186.367188 435.394531 C 186.632812 435.734375 186.859375 436.082031 187.039062 436.449219 C 187.21875 436.8125 187.351562 437.183594 187.441406 437.558594 C 187.527344 437.9375 187.5625 438.3125 187.550781 438.691406 C 187.542969 439.066406 187.480469 439.433594 187.375 439.792969 C 187.265625 440.152344 187.109375 440.5 186.910156 440.828125 C 186.707031 441.160156 186.464844 441.46875 186.175781 441.753906 C 185.890625 442.042969 185.566406 442.304688 185.207031 442.539062 C 184.847656 442.773438 184.457031 442.972656 184.035156 443.144531 C 183.613281 443.316406 183.167969 443.453125 182.703125 443.558594 C 182.238281 443.660156 181.761719 443.726562 181.269531 443.753906 C 180.777344 443.785156 180.28125 443.777344 179.78125 443.730469 C 179.285156 443.6875 178.789062 443.605469 178.304688 443.488281 C 177.816406 443.371094 177.34375 443.21875 176.886719 443.035156 C 176.429688 442.847656 175.996094 442.632812 175.589844 442.386719 C 175.179688 442.140625 174.804688 441.871094 174.457031 441.574219 C 174.113281 441.273438 173.808594 440.957031 173.539062 440.621094 C 173.269531 440.28125 173.046875 439.933594 172.867188 439.566406 C 172.6875 439.203125 172.550781 438.832031 172.464844 438.453125 C 172.378906 438.078125 172.339844 437.699219 172.351562 437.324219 C 172.363281 436.949219 172.421875 436.582031 172.53125 436.222656 C 172.640625 435.859375 172.796875 435.515625 172.996094 435.1875 C 173.199219 434.855469 173.441406 434.546875 173.726562 434.257812 C 174.015625 433.972656 174.339844 433.710938 174.699219 433.476562 C 175.058594 433.242188 175.449219 433.039062 175.871094 432.867188 C 176.292969 432.695312 176.734375 432.558594 177.203125 432.457031 C 177.667969 432.355469 178.144531 432.289062 178.636719 432.261719 C 179.128906 432.230469 179.625 432.238281 180.121094 432.285156 Z M 180.121094 432.285156 "/><path style=" stroke:none;fill-rule:nonzero;fill:#ead8c8;fill-opacity:1;" d="M 176.707031 439.859375 C 173.851562 440.023438 155.261719 436.730469 155.261719 436.730469 C 155.261719 436.730469 170.925781 438.394531 174.554688 437.433594 C 178.1875 436.46875 176.707031 439.859375 176.707031 439.859375 Z M 176.707031 439.859375 "/><path style=" stroke:none;fill-rule:nonzero;fill:#ead8c8;fill-opacity:1;" d="M 181.714844 436.824219 C 184.570312 436.660156 203.160156 439.953125 203.160156 439.953125 C 203.160156 439.953125 187.496094 438.289062 183.867188 439.25 C 180.234375 440.214844 181.714844 436.824219 181.714844 436.824219 Z M 181.714844 436.824219 "/><path style=" stroke:none;fill-rule:nonzero;fill:#ead8c8;fill-opacity:1;" d="M 177.851562 436.296875 C 177.40625 433.929688 179.839844 418.875 179.839844 418.875 C 179.839844 418.875 179.144531 431.652344 180.632812 434.730469 C 182.121094 437.808594 177.851562 436.296875 177.851562 436.296875 Z M 177.851562 436.296875 "/><path style=" stroke:none;fill-rule:nonzero;fill:#ead8c8;fill-opacity:1;" d="M 181.988281 440.6875 C 182.433594 443.058594 180 458.109375 180 458.109375 C 180 458.109375 180.695312 445.332031 179.207031 442.253906 C 177.722656 439.179688 181.988281 440.691406 181.988281 440.691406 Z M 181.988281 440.6875 "/><path style=" stroke:none;fill-rule:nonzero;fill:#599942;fill-opacity:1;" d="M 311.878906 420.332031 C 311.878906 420.332031 216.597656 432.667969 202.414062 363.59375 C 202.414062 363.59375 257.972656 336.898438 311.878906 420.332031 Z M 311.878906 420.332031 "/><path style=" stroke:none;fill-rule:nonzero;fill:#599942;fill-opacity:1;" d="M 323.242188 413.480469 C 323.242188 413.480469 238.785156 367.664062 267.71875 303.363281 C 267.71875 303.363281 328.382812 314.269531 323.242188 413.480469 Z M 323.242188 413.480469 "/><path style=" stroke:none;fill-rule:nonzero;fill:#599942;fill-opacity:1;" d="M 331.539062 419.285156 C 331.539062 419.285156 404.324219 356.542969 362.382812 299.871094 C 362.382812 299.871094 305.425781 323.4375 331.539062 419.285156 Z M 331.539062 419.285156 "/><path style=" stroke:none;fill-rule:nonzero;fill:#cae4c0;fill-opacity:1;" d="M 224.109375 372.886719 C 224.066406 372.917969 224.027344 372.953125 223.996094 373 C 223.933594 373.09375 223.914062 373.199219 223.9375 373.308594 C 223.957031 373.421875 224.015625 373.507812 224.113281 373.570312 C 224.113281 373.570312 240.667969 384.585938 259.296875 396.328125 C 243.761719 399.582031 229.742188 395.492188 229.742188 395.492188 C 229.632812 395.457031 229.527344 395.46875 229.429688 395.523438 C 229.328125 395.578125 229.261719 395.660156 229.230469 395.769531 C 229.199219 395.878906 229.210938 395.984375 229.265625 396.082031 C 229.320312 396.183594 229.402344 396.25 229.511719 396.28125 C 229.511719 396.28125 244.136719 400.566406 260.191406 396.976562 C 260.21875 396.96875 260.246094 396.957031 260.273438 396.941406 C 261.1875 397.515625 262.097656 398.089844 263.019531 398.667969 C 268.660156 402.199219 274.390625 405.722656 279.84375 408.988281 C 272.351562 410.300781 259.160156 410.085938 259.160156 410.085938 C 259.046875 410.082031 258.949219 410.121094 258.867188 410.199219 C 258.785156 410.277344 258.746094 410.375 258.742188 410.488281 C 258.738281 410.601562 258.777344 410.699219 258.859375 410.78125 C 258.9375 410.863281 259.03125 410.90625 259.144531 410.90625 C 259.144531 410.90625 272.75 411.152344 280.363281 409.730469 C 280.511719 409.703125 280.609375 409.617188 280.667969 409.480469 C 284.625 411.84375 288.433594 414.0625 291.914062 416.015625 C 296.160156 418.394531 299.933594 420.390625 302.976562 421.804688 C 306.019531 423.222656 308.285156 424.074219 309.707031 424.132812 C 309.820312 424.136719 309.917969 424.101562 310.003906 424.023438 C 310.085938 423.945312 310.128906 423.851562 310.136719 423.738281 C 310.140625 423.625 310.101562 423.527344 310.027344 423.441406 C 309.949219 423.359375 309.855469 423.316406 309.742188 423.308594 C 308.636719 423.265625 306.335938 422.460938 303.324219 421.058594 C 300.316406 419.660156 296.550781 417.671875 292.316406 415.296875 C 285.453125 411.453125 277.347656 406.582031 269.179688 401.53125 C 266.832031 394.753906 261.179688 386.453125 256.109375 379.808594 C 251.03125 373.160156 246.53125 368.1875 246.53125 368.1875 C 246.457031 368.101562 246.363281 368.058594 246.25 368.050781 C 246.136719 368.046875 246.035156 368.082031 245.953125 368.15625 C 245.867188 368.234375 245.824219 368.328125 245.816406 368.441406 C 245.8125 368.554688 245.847656 368.652344 245.921875 368.738281 C 245.921875 368.738281 250.402344 373.691406 255.457031 380.308594 C 260.261719 386.601562 265.578125 394.414062 268.050781 400.832031 C 266.515625 399.878906 264.984375 398.925781 263.457031 397.96875 C 243.378906 385.402344 224.566406 372.886719 224.566406 372.886719 C 224.472656 372.824219 224.367188 372.800781 224.257812 372.824219 C 224.203125 372.835938 224.15625 372.855469 224.109375 372.886719 Z M 224.109375 372.886719 "/><path style=" stroke:none;fill-rule:nonzero;fill:#cae4c0;fill-opacity:1;" d="M 278.53125 324.472656 C 278.476562 324.476562 278.425781 324.488281 278.375 324.511719 C 278.269531 324.554688 278.199219 324.632812 278.15625 324.738281 C 278.117188 324.84375 278.117188 324.949219 278.164062 325.050781 C 278.164062 325.050781 286.175781 343.253906 295.539062 363.191406 C 280.703125 357.554688 271.097656 346.550781 271.097656 346.550781 C 271.023438 346.464844 270.929688 346.417969 270.816406 346.410156 C 270.703125 346.402344 270.601562 346.4375 270.515625 346.511719 C 270.429688 346.585938 270.382812 346.679688 270.378906 346.792969 C 270.371094 346.90625 270.402344 347.007812 270.476562 347.09375 C 270.476562 347.09375 280.488281 358.585938 295.945312 364.222656 C 295.976562 364.230469 296.003906 364.234375 296.03125 364.234375 C 296.492188 365.210938 296.953125 366.1875 297.417969 367.167969 C 300.265625 373.1875 303.195312 379.246094 306.027344 384.933594 C 299.011719 382 288.015625 374.707031 288.015625 374.707031 C 287.921875 374.644531 287.816406 374.625 287.707031 374.644531 C 287.59375 374.667969 287.507812 374.726562 287.445312 374.820312 C 287.382812 374.914062 287.363281 375.019531 287.382812 375.128906 C 287.40625 375.242188 287.464844 375.328125 287.558594 375.390625 C 287.558594 375.390625 298.886719 382.933594 306.066406 385.839844 C 306.203125 385.894531 306.335938 385.878906 306.457031 385.792969 C 308.519531 389.917969 310.527344 393.839844 312.410156 397.359375 C 314.703125 401.652344 316.808594 405.371094 318.609375 408.203125 C 320.40625 411.035156 321.855469 412.972656 323.023438 413.789062 C 323.117188 413.855469 323.21875 413.878906 323.332031 413.859375 C 323.441406 413.839844 323.53125 413.78125 323.597656 413.6875 C 323.660156 413.597656 323.683594 413.492188 323.664062 413.382812 C 323.644531 413.269531 323.589844 413.183594 323.496094 413.117188 C 322.589844 412.484375 321.082031 410.566406 319.304688 407.761719 C 317.523438 404.957031 315.421875 401.257812 313.132812 396.972656 C 309.425781 390.03125 305.222656 381.5625 301.0625 372.902344 C 302.738281 365.929688 302.449219 355.886719 301.753906 347.558594 C 301.058594 339.222656 299.953125 332.605469 299.953125 332.605469 C 299.933594 332.492188 299.875 332.40625 299.785156 332.339844 C 299.691406 332.273438 299.589844 332.25 299.476562 332.269531 C 299.367188 332.289062 299.277344 332.34375 299.210938 332.433594 C 299.144531 332.527344 299.121094 332.628906 299.140625 332.742188 C 299.140625 332.742188 300.242188 339.328125 300.933594 347.628906 C 301.59375 355.519531 301.863281 364.96875 300.488281 371.703125 C 299.707031 370.074219 298.929688 368.445312 298.160156 366.816406 C 288.019531 345.40625 278.917969 324.71875 278.917969 324.71875 C 278.871094 324.617188 278.796875 324.542969 278.6875 324.503906 C 278.636719 324.484375 278.585938 324.476562 278.53125 324.476562 Z M 278.53125 324.472656 "/><path style=" stroke:none;fill-rule:nonzero;fill:#cae4c0;fill-opacity:1;" d="M 357.757812 329.429688 C 357.8125 329.421875 357.867188 329.421875 357.917969 329.4375 C 358.027344 329.464844 358.113281 329.527344 358.171875 329.625 C 358.230469 329.71875 358.246094 329.824219 358.21875 329.933594 C 358.21875 329.933594 353.453125 349.246094 347.648438 370.492188 C 361.300781 362.390625 368.871094 349.902344 368.871094 349.902344 C 368.929688 349.804688 369.015625 349.742188 369.125 349.714844 C 369.238281 349.6875 369.339844 349.703125 369.4375 349.761719 C 369.535156 349.820312 369.597656 349.90625 369.625 350.015625 C 369.652344 350.125 369.636719 350.230469 369.574219 350.328125 C 369.574219 350.328125 361.6875 363.371094 347.425781 371.578125 C 347.398438 371.589844 347.371094 371.597656 347.34375 371.605469 C 347.058594 372.648438 346.773438 373.6875 346.484375 374.734375 C 344.710938 381.152344 342.863281 387.625 341.050781 393.714844 C 347.460938 389.617188 357.039062 380.542969 357.039062 380.542969 C 357.121094 380.464844 357.21875 380.429688 357.332031 380.429688 C 357.445312 380.433594 357.542969 380.476562 357.621094 380.558594 C 357.699219 380.640625 357.734375 380.738281 357.734375 380.851562 C 357.730469 380.964844 357.6875 381.0625 357.605469 381.140625 C 357.605469 381.140625 347.738281 390.515625 341.167969 394.613281 C 341.039062 394.691406 340.910156 394.699219 340.777344 394.632812 C 339.453125 399.050781 338.144531 403.261719 336.894531 407.054688 C 335.375 411.675781 333.9375 415.699219 332.652344 418.800781 C 331.363281 421.898438 330.269531 424.058594 329.257812 425.0625 C 329.179688 425.144531 329.082031 425.183594 328.96875 425.183594 C 328.855469 425.183594 328.757812 425.144531 328.679688 425.0625 C 328.597656 424.984375 328.558594 424.886719 328.558594 424.773438 C 328.558594 424.660156 328.597656 424.5625 328.679688 424.480469 C 329.460938 423.703125 330.617188 421.554688 331.890625 418.488281 C 333.160156 415.417969 334.597656 411.410156 336.113281 406.796875 C 338.578125 399.324219 341.261719 390.257812 343.875 381.011719 C 341.027344 374.425781 339.589844 364.484375 338.84375 356.160156 C 338.09375 347.828125 338.050781 341.121094 338.050781 341.121094 C 338.050781 341.007812 338.089844 340.910156 338.167969 340.828125 C 338.25 340.746094 338.347656 340.707031 338.460938 340.707031 C 338.574219 340.707031 338.671875 340.746094 338.75 340.824219 C 338.832031 340.90625 338.871094 341 338.875 341.113281 C 338.875 341.113281 338.917969 347.792969 339.660156 356.089844 C 340.367188 363.976562 341.722656 373.328125 344.234375 379.730469 C 344.722656 377.992188 345.210938 376.253906 345.6875 374.515625 C 352.003906 351.683594 357.417969 329.738281 357.417969 329.738281 C 357.445312 329.628906 357.507812 329.542969 357.605469 329.484375 C 357.652344 329.457031 357.703125 329.4375 357.757812 329.429688 Z M 357.757812 329.429688 "/><path style=" stroke:none;fill-rule:nonzero;fill:#a74d2b;fill-opacity:1;" d="M 349.492188 425.136719 C 350.363281 426.128906 351.210938 427.140625 352.03125 428.171875 C 352.855469 429.199219 353.652344 430.246094 354.421875 431.3125 C 355.191406 432.375 355.9375 433.457031 356.65625 434.554688 C 357.371094 435.648438 358.0625 436.761719 358.726562 437.886719 C 359.386719 439.015625 360.023438 440.152344 360.628906 441.304688 C 361.234375 442.460938 361.8125 443.625 362.359375 444.800781 C 362.90625 445.976562 363.425781 447.164062 363.914062 448.363281 C 364.402344 449.5625 364.863281 450.769531 365.289062 451.984375 C 365.71875 453.203125 366.117188 454.425781 366.484375 455.65625 C 366.847656 456.890625 367.183594 458.128906 367.488281 459.371094 C 367.792969 460.617188 368.066406 461.863281 368.308594 463.117188 C 368.546875 464.371094 368.757812 465.628906 368.9375 466.890625 C 369.113281 468.148438 369.257812 469.410156 369.371094 470.675781 C 369.484375 471.9375 369.566406 473.199219 369.613281 474.464844 C 369.664062 475.726562 369.679688 476.992188 369.664062 478.25 C 369.648438 479.511719 369.601562 480.769531 369.519531 482.023438 C 369.441406 483.28125 369.328125 484.53125 369.183594 485.777344 C 369.039062 487.023438 368.863281 488.265625 368.652344 489.5 C 368.445312 490.734375 368.203125 491.960938 367.933594 493.179688 C 367.660156 494.398438 367.359375 495.609375 367.023438 496.8125 C 366.6875 498.015625 366.324219 499.207031 365.925781 500.386719 C 365.527344 501.566406 365.101562 502.738281 364.644531 503.894531 C 364.183594 505.054688 363.699219 506.199219 363.179688 507.328125 C 362.664062 508.460938 362.113281 509.578125 361.539062 510.679688 C 360.960938 511.785156 360.355469 512.871094 359.722656 513.941406 C 359.089844 515.011719 358.425781 516.066406 357.738281 517.105469 C 357.046875 518.140625 356.332031 519.160156 355.585938 520.160156 C 354.84375 521.160156 354.074219 522.140625 353.277344 523.101562 C 352.480469 524.0625 351.660156 525.003906 350.8125 525.921875 C 349.96875 526.839844 349.097656 527.738281 348.203125 528.613281 C 347.308594 529.492188 346.390625 530.34375 345.449219 531.175781 C 344.507812 532.003906 343.542969 532.808594 342.558594 533.59375 C 341.574219 534.375 340.566406 535.132812 339.542969 535.867188 C 338.515625 536.597656 337.46875 537.304688 336.402344 537.988281 C 335.335938 538.667969 334.253906 539.324219 333.152344 539.949219 C 332.050781 540.578125 330.929688 541.179688 329.792969 541.753906 C 328.65625 542.328125 327.503906 542.875 326.339844 543.390625 C 325.171875 543.910156 323.988281 544.398438 322.792969 544.859375 C 321.597656 545.320312 320.390625 545.75 319.167969 546.152344 C 317.949219 546.554688 316.714844 546.925781 315.472656 547.269531 C 314.226562 547.613281 312.976562 547.925781 311.710938 548.210938 C 310.449219 548.492188 309.175781 548.746094 307.898438 548.96875 C 306.617188 549.1875 305.332031 549.378906 304.039062 549.542969 C 302.746094 549.703125 301.449219 549.832031 300.144531 549.929688 C 298.839844 550.03125 297.535156 550.097656 296.222656 550.136719 C 294.914062 550.171875 293.601562 550.179688 292.289062 550.152344 C 290.972656 550.128906 289.660156 550.074219 288.34375 549.984375 C 287.027344 549.898438 285.714844 549.78125 284.402344 549.632812 C 283.089844 549.484375 281.777344 549.304688 280.472656 549.09375 C 279.164062 548.882812 277.859375 548.644531 276.5625 548.375 C 275.261719 548.101562 273.972656 547.800781 272.683594 547.46875 C 271.398438 547.136719 270.117188 546.777344 268.847656 546.386719 C 267.574219 545.996094 266.3125 545.578125 265.058594 545.128906 C 263.804688 544.679688 262.558594 544.199219 261.328125 543.695312 C 260.09375 543.1875 258.871094 542.652344 257.664062 542.089844 C 256.453125 541.527344 255.257812 540.9375 254.078125 540.320312 C 252.894531 539.703125 251.726562 539.058594 250.574219 538.386719 C 249.421875 537.714844 248.285156 537.019531 247.164062 536.296875 C 246.046875 535.574219 244.945312 534.824219 243.859375 534.050781 C 242.773438 533.28125 241.707031 532.484375 240.660156 531.660156 C 239.613281 530.839844 238.585938 529.996094 237.582031 529.128906 C 236.574219 528.261719 235.589844 527.375 234.625 526.464844 C 233.660156 525.550781 232.71875 524.621094 231.800781 523.667969 C 230.882812 522.714844 229.988281 521.742188 229.113281 520.75 C 228.242188 519.753906 227.398438 518.746094 226.574219 517.714844 C 225.753906 516.683594 224.957031 515.636719 224.183594 514.574219 C 223.414062 513.507812 222.667969 512.429688 221.953125 511.332031 C 221.234375 510.234375 220.542969 509.125 219.882812 507.996094 C 219.21875 506.871094 218.585938 505.730469 217.980469 504.578125 C 217.371094 503.425781 216.796875 502.261719 216.246094 501.085938 C 215.699219 499.90625 215.179688 498.71875 214.691406 497.519531 C 214.203125 496.324219 213.746094 495.117188 213.316406 493.898438 C 212.886719 492.683594 212.492188 491.457031 212.125 490.226562 C 211.757812 488.996094 211.421875 487.757812 211.117188 486.511719 C 210.8125 485.269531 210.539062 484.019531 210.300781 482.765625 C 210.058594 481.511719 209.847656 480.257812 209.671875 478.996094 C 209.492188 477.734375 209.347656 476.472656 209.234375 475.210938 C 209.121094 473.949219 209.039062 472.683594 208.992188 471.421875 C 208.941406 470.15625 208.925781 468.894531 208.941406 467.632812 C 208.957031 466.375 209.007812 465.117188 209.085938 463.859375 C 209.167969 462.605469 209.277344 461.355469 209.421875 460.109375 C 209.566406 458.863281 209.746094 457.621094 209.953125 456.386719 C 210.160156 455.152344 210.402344 453.925781 210.675781 452.707031 C 210.945312 451.484375 211.25 450.273438 211.585938 449.074219 C 211.917969 447.871094 212.285156 446.679688 212.683594 445.5 C 213.078125 444.316406 213.503906 443.148438 213.964844 441.988281 C 214.421875 440.832031 214.910156 439.6875 215.425781 438.554688 C 215.945312 437.421875 216.492188 436.304688 217.070312 435.203125 C 217.644531 434.101562 218.25 433.015625 218.882812 431.941406 C 219.519531 430.871094 220.179688 429.816406 220.867188 428.78125 C 221.558594 427.746094 222.273438 426.726562 223.019531 425.726562 C 223.761719 424.726562 224.53125 423.746094 225.328125 422.785156 C 226.125 421.824219 226.945312 420.882812 227.792969 419.964844 C 228.640625 419.042969 229.511719 418.144531 230.40625 417.269531 C 231.300781 416.394531 232.21875 415.542969 233.160156 414.710938 C 234.101562 413.882812 235.0625 413.074219 236.046875 412.292969 C 237.03125 411.511719 238.039062 410.753906 239.066406 410.019531 C 240.09375 409.289062 241.136719 408.582031 242.203125 407.898438 C 243.269531 407.21875 244.355469 406.5625 245.457031 405.933594 C 246.558594 405.304688 247.675781 404.703125 248.8125 404.132812 C 249.949219 403.558594 251.101562 403.011719 252.269531 402.492188 C 253.4375 401.976562 254.617188 401.488281 255.8125 401.027344 C 257.007812 400.566406 258.21875 400.136719 259.4375 399.734375 C 260.660156 399.332031 261.890625 398.957031 263.136719 398.613281 C 264.378906 398.273438 265.632812 397.957031 266.894531 397.675781 C 268.15625 397.394531 269.429688 397.140625 270.707031 396.917969 C 271.988281 396.695312 273.273438 396.503906 274.566406 396.34375 C 275.859375 396.183594 277.160156 396.054688 278.460938 395.953125 C 279.765625 395.855469 281.070312 395.789062 282.382812 395.75 C 283.691406 395.714844 285.003906 395.707031 286.320312 395.730469 C 287.632812 395.757812 288.949219 395.8125 290.265625 395.898438 C 291.578125 395.984375 292.894531 396.105469 294.207031 396.253906 C 295.519531 396.402344 296.828125 396.582031 298.136719 396.789062 C 299.445312 397 300.746094 397.242188 302.046875 397.511719 C 303.34375 397.78125 304.636719 398.085938 305.921875 398.414062 C 307.210938 398.746094 308.488281 399.105469 309.761719 399.496094 C 311.035156 399.886719 312.296875 400.308594 313.550781 400.757812 C 314.804688 401.207031 316.046875 401.683594 317.28125 402.191406 C 318.511719 402.699219 319.734375 403.234375 320.945312 403.796875 C 322.152344 404.359375 323.347656 404.949219 324.53125 405.566406 C 325.710938 406.183594 326.878906 406.828125 328.03125 407.5 C 329.183594 408.167969 330.320312 408.867188 331.441406 409.589844 C 332.5625 410.3125 333.664062 411.058594 334.75 411.832031 C 335.832031 412.605469 336.898438 413.402344 337.945312 414.222656 C 338.992188 415.042969 340.019531 415.886719 341.027344 416.753906 C 342.035156 417.621094 343.019531 418.511719 343.980469 419.421875 C 344.945312 420.332031 345.886719 421.265625 346.804688 422.21875 C 347.726562 423.171875 348.621094 424.144531 349.492188 425.136719 Z M 349.492188 425.136719 "/><path style=" stroke:none;fill-rule:nonzero;fill:#efe1d4;fill-opacity:1;" d="M 343.355469 403.859375 C 344.40625 404.609375 345.4375 405.382812 346.449219 406.183594 C 347.464844 406.980469 348.457031 407.800781 349.433594 408.640625 C 350.410156 409.484375 351.367188 410.347656 352.300781 411.234375 C 353.238281 412.117188 354.152344 413.023438 355.046875 413.949219 C 355.9375 414.875 356.808594 415.820312 357.660156 416.78125 C 358.507812 417.746094 359.332031 418.726562 360.136719 419.726562 C 360.9375 420.726562 361.71875 421.742188 362.472656 422.777344 C 363.226562 423.808594 363.953125 424.859375 364.660156 425.921875 C 365.363281 426.988281 366.039062 428.066406 366.691406 429.15625 C 367.34375 430.25 367.96875 431.355469 368.566406 432.472656 C 369.167969 433.59375 369.738281 434.722656 370.28125 435.863281 C 370.824219 437.003906 371.339844 438.15625 371.828125 439.316406 C 372.316406 440.480469 372.773438 441.652344 373.203125 442.832031 C 373.632812 444.007812 374.035156 445.195312 374.40625 446.390625 C 374.777344 447.585938 375.121094 448.785156 375.433594 449.992188 C 375.746094 451.195312 376.027344 452.40625 376.277344 453.621094 C 376.53125 454.835938 376.753906 456.054688 376.945312 457.277344 C 377.136719 458.496094 377.296875 459.71875 377.425781 460.945312 C 377.554688 462.167969 377.65625 463.390625 377.722656 464.617188 C 377.792969 465.839844 377.832031 467.0625 377.839844 468.285156 C 377.84375 469.503906 377.820312 470.722656 377.765625 471.941406 C 377.710938 473.15625 377.625 474.367188 377.511719 475.574219 C 377.394531 476.78125 377.246094 477.980469 377.070312 479.175781 C 376.894531 480.371094 376.683594 481.558594 376.445312 482.742188 C 376.207031 483.921875 375.941406 485.09375 375.640625 486.257812 C 375.34375 487.421875 375.015625 488.574219 374.65625 489.71875 C 374.300781 490.859375 373.914062 491.992188 373.496094 493.113281 C 373.078125 494.234375 372.632812 495.339844 372.160156 496.4375 C 371.683594 497.53125 371.183594 498.613281 370.652344 499.679688 C 370.121094 500.746094 369.5625 501.796875 368.976562 502.832031 C 368.390625 503.867188 367.777344 504.886719 367.136719 505.890625 C 366.496094 506.894531 365.832031 507.878906 365.140625 508.84375 C 364.449219 509.8125 363.730469 510.761719 362.988281 511.6875 C 362.246094 512.617188 361.476562 513.527344 360.6875 514.414062 C 359.894531 515.304688 359.078125 516.171875 358.242188 517.015625 C 357.402344 517.863281 356.542969 518.6875 355.65625 519.488281 C 354.773438 520.292969 353.871094 521.070312 352.941406 521.824219 C 352.015625 522.582031 351.070312 523.3125 350.105469 524.019531 C 349.136719 524.726562 348.152344 525.410156 347.144531 526.066406 C 346.140625 526.722656 345.117188 527.355469 344.078125 527.960938 C 343.035156 528.566406 341.980469 529.144531 340.90625 529.699219 C 339.832031 530.25 338.742188 530.777344 337.636719 531.277344 C 336.53125 531.773438 335.414062 532.246094 334.28125 532.6875 C 333.148438 533.132812 332.003906 533.546875 330.84375 533.933594 C 329.6875 534.320312 328.515625 534.675781 327.335938 535.007812 C 326.15625 535.335938 324.964844 535.636719 323.765625 535.90625 C 322.5625 536.175781 321.355469 536.417969 320.140625 536.628906 C 318.921875 536.84375 317.699219 537.023438 316.464844 537.179688 C 315.234375 537.332031 314 537.453125 312.757812 537.546875 C 311.515625 537.636719 310.269531 537.703125 309.019531 537.734375 C 307.769531 537.765625 306.519531 537.769531 305.261719 537.742188 C 304.007812 537.714844 302.753906 537.65625 301.496094 537.570312 C 300.242188 537.480469 298.984375 537.363281 297.730469 537.21875 C 296.472656 537.070312 295.222656 536.894531 293.96875 536.6875 C 292.71875 536.480469 291.472656 536.242188 290.226562 535.976562 C 288.984375 535.710938 287.746094 535.417969 286.511719 535.09375 C 285.277344 534.769531 284.050781 534.417969 282.828125 534.035156 C 281.609375 533.652344 280.394531 533.242188 279.191406 532.804688 C 277.988281 532.367188 276.792969 531.902344 275.605469 531.40625 C 274.421875 530.914062 273.246094 530.390625 272.082031 529.84375 C 270.921875 529.296875 269.769531 528.722656 268.628906 528.121094 C 267.492188 527.519531 266.367188 526.890625 265.253906 526.238281 C 264.144531 525.585938 263.046875 524.90625 261.964844 524.207031 C 260.882812 523.503906 259.820312 522.773438 258.769531 522.023438 C 257.722656 521.273438 256.691406 520.5 255.675781 519.699219 C 254.664062 518.902344 253.667969 518.082031 252.695312 517.238281 C 251.71875 516.398438 250.761719 515.535156 249.828125 514.648438 C 248.890625 513.765625 247.976562 512.859375 247.082031 511.933594 C 246.1875 511.007812 245.316406 510.0625 244.46875 509.097656 C 243.621094 508.136719 242.792969 507.152344 241.992188 506.15625 C 241.1875 505.15625 240.410156 504.140625 239.65625 503.105469 C 238.902344 502.074219 238.171875 501.023438 237.46875 499.960938 C 236.765625 498.894531 236.085938 497.816406 235.433594 496.726562 C 234.78125 495.632812 234.15625 494.527344 233.558594 493.410156 C 232.960938 492.289062 232.390625 491.160156 231.847656 490.019531 C 231.300781 488.878906 230.785156 487.726562 230.300781 486.5625 C 229.8125 485.402344 229.351562 484.230469 228.921875 483.050781 C 228.492188 481.871094 228.09375 480.6875 227.722656 479.492188 C 227.351562 478.296875 227.007812 477.097656 226.695312 475.890625 C 226.382812 474.683594 226.101562 473.476562 225.847656 472.261719 C 225.597656 471.046875 225.375 469.828125 225.183594 468.605469 C 224.992188 467.386719 224.832031 466.164062 224.703125 464.9375 C 224.570312 463.714844 224.472656 462.492188 224.402344 461.265625 C 224.335938 460.042969 224.296875 458.820312 224.289062 457.597656 C 224.28125 456.375 224.304688 455.160156 224.359375 453.941406 C 224.414062 452.726562 224.5 451.515625 224.617188 450.308594 C 224.734375 449.101562 224.878906 447.902344 225.058594 446.707031 C 225.234375 445.511719 225.441406 444.320312 225.679688 443.140625 C 225.917969 441.960938 226.1875 440.789062 226.484375 439.625 C 226.785156 438.460938 227.113281 437.308594 227.46875 436.164062 C 227.828125 435.019531 228.214844 433.890625 228.632812 432.769531 C 229.046875 431.648438 229.492188 430.539062 229.96875 429.445312 C 230.441406 428.351562 230.945312 427.269531 231.476562 426.203125 C 232.007812 425.136719 232.566406 424.085938 233.152344 423.050781 C 233.738281 422.011719 234.351562 420.992188 234.988281 419.992188 C 235.628906 418.988281 236.296875 418.003906 236.988281 417.039062 C 237.679688 416.070312 238.398438 415.121094 239.140625 414.191406 C 239.882812 413.265625 240.648438 412.355469 241.441406 411.46875 C 242.234375 410.578125 243.046875 409.710938 243.886719 408.863281 C 244.726562 408.019531 245.585938 407.195312 246.46875 406.394531 C 247.355469 405.589844 248.257812 404.8125 249.183594 404.058594 C 250.109375 403.300781 251.058594 402.570312 252.023438 401.863281 C 252.992188 401.15625 253.976562 400.472656 254.980469 399.816406 C 255.988281 399.160156 257.007812 398.527344 258.050781 397.921875 C 259.089844 397.316406 260.148438 396.734375 261.222656 396.183594 C 262.296875 395.628906 263.386719 395.105469 264.492188 394.605469 C 265.59375 394.105469 266.714844 393.636719 267.847656 393.191406 C 268.980469 392.75 270.125 392.335938 271.285156 391.949219 C 272.441406 391.5625 273.609375 391.203125 274.792969 390.875 C 275.972656 390.546875 277.164062 390.246094 278.363281 389.976562 C 279.5625 389.703125 280.773438 389.460938 281.988281 389.25 C 283.207031 389.039062 284.429688 388.855469 285.660156 388.703125 C 286.890625 388.550781 288.128906 388.429688 289.371094 388.335938 C 290.613281 388.242188 291.859375 388.179688 293.109375 388.148438 C 294.355469 388.117188 295.609375 388.113281 296.863281 388.140625 C 298.117188 388.167969 299.375 388.226562 300.628906 388.3125 C 301.886719 388.398438 303.144531 388.515625 304.398438 388.664062 C 305.652344 388.8125 306.90625 388.988281 308.15625 389.195312 C 309.410156 389.402344 310.65625 389.640625 311.898438 389.90625 C 313.144531 390.171875 314.382812 390.464844 315.617188 390.789062 C 316.851562 391.113281 318.078125 391.464844 319.296875 391.847656 C 320.519531 392.230469 321.730469 392.640625 322.933594 393.078125 C 324.140625 393.515625 325.335938 393.980469 326.519531 394.476562 C 327.707031 394.96875 328.878906 395.488281 330.042969 396.039062 C 331.207031 396.585938 332.359375 397.160156 333.496094 397.761719 C 334.636719 398.363281 335.761719 398.992188 336.871094 399.644531 C 337.984375 400.296875 339.082031 400.972656 340.160156 401.675781 C 341.242188 402.378906 342.308594 403.105469 343.355469 403.859375 Z M 343.355469 403.859375 "/><path style=" stroke:none;fill-rule:nonzero;fill:#ead8c8;fill-opacity:1;" d="M 305.171875 457.199219 C 305.582031 457.492188 305.960938 457.820312 306.308594 458.179688 C 306.65625 458.542969 306.96875 458.929688 307.242188 459.34375 C 307.515625 459.757812 307.75 460.191406 307.9375 460.644531 C 308.128906 461.097656 308.273438 461.5625 308.371094 462.035156 C 308.46875 462.507812 308.519531 462.984375 308.523438 463.460938 C 308.523438 463.9375 308.480469 464.40625 308.386719 464.863281 C 308.292969 465.324219 308.15625 465.769531 307.972656 466.195312 C 307.785156 466.621094 307.558594 467.023438 307.289062 467.402344 C 307.019531 467.777344 306.710938 468.121094 306.367188 468.433594 C 306.023438 468.746094 305.648438 469.023438 305.242188 469.257812 C 304.835938 469.492188 304.410156 469.6875 303.957031 469.839844 C 303.503906 469.988281 303.039062 470.09375 302.558594 470.152344 C 302.082031 470.210938 301.59375 470.226562 301.105469 470.191406 C 300.617188 470.15625 300.128906 470.078125 299.648438 469.949219 C 299.167969 469.824219 298.703125 469.65625 298.25 469.441406 C 297.792969 469.226562 297.363281 468.972656 296.953125 468.679688 C 296.546875 468.386719 296.167969 468.0625 295.820312 467.699219 C 295.472656 467.339844 295.160156 466.953125 294.886719 466.539062 C 294.609375 466.121094 294.378906 465.6875 294.1875 465.234375 C 294 464.785156 293.855469 464.320312 293.757812 463.847656 C 293.660156 463.371094 293.609375 462.898438 293.605469 462.421875 C 293.601562 461.945312 293.648438 461.476562 293.738281 461.015625 C 293.832031 460.558594 293.972656 460.113281 294.15625 459.6875 C 294.339844 459.261719 294.570312 458.859375 294.839844 458.480469 C 295.109375 458.105469 295.414062 457.757812 295.761719 457.445312 C 296.105469 457.132812 296.480469 456.859375 296.886719 456.625 C 297.289062 456.386719 297.71875 456.195312 298.171875 456.042969 C 298.621094 455.894531 299.085938 455.789062 299.566406 455.730469 C 300.046875 455.667969 300.53125 455.65625 301.023438 455.691406 C 301.511719 455.726562 301.996094 455.804688 302.476562 455.929688 C 302.957031 456.058594 303.425781 456.226562 303.878906 456.441406 C 304.332031 456.65625 304.765625 456.90625 305.171875 457.199219 Z M 305.171875 457.199219 "/><path style=" stroke:none;fill-rule:nonzero;fill:#ead8c8;fill-opacity:1;" d="M 296.902344 463.207031 C 294.273438 461.960938 280.171875 449.398438 280.171875 449.398438 C 280.171875 449.398438 292.824219 458.851562 296.6875 459.671875 C 300.554688 460.492188 296.902344 463.207031 296.902344 463.207031 Z M 296.902344 463.207031 "/><path style=" stroke:none;fill-rule:nonzero;fill:#ead8c8;fill-opacity:1;" d="M 303.421875 462.597656 C 306.050781 463.847656 320.152344 476.40625 320.152344 476.40625 C 320.152344 476.40625 307.5 466.953125 303.636719 466.132812 C 299.769531 465.316406 303.421875 462.597656 303.421875 462.597656 Z M 303.421875 462.597656 "/><path style=" stroke:none;fill-rule:nonzero;fill:#ead8c8;fill-opacity:1;" d="M 300.378906 460.148438 C 301.625 457.519531 314.183594 443.410156 314.183594 443.410156 C 314.183594 443.410156 304.730469 456.066406 303.914062 459.933594 C 303.09375 463.800781 300.378906 460.148438 300.378906 460.148438 Z M 300.378906 460.148438 "/><path style=" stroke:none;fill-rule:nonzero;fill:#ead8c8;fill-opacity:1;" d="M 300.988281 466.667969 C 299.742188 469.300781 287.183594 483.40625 287.183594 483.40625 C 287.183594 483.40625 296.636719 470.75 297.453125 466.882812 C 298.269531 463.015625 300.988281 466.667969 300.988281 466.667969 Z M 300.988281 466.667969 "/><path style=" stroke:none;fill-rule:nonzero;fill:#a74d2b;fill-opacity:1;" d="M 471.191406 457.328125 C 471.273438 458.648438 471.324219 459.964844 471.347656 461.28125 C 471.367188 462.601562 471.355469 463.917969 471.316406 465.230469 C 471.273438 466.542969 471.203125 467.855469 471.097656 469.160156 C 470.996094 470.46875 470.859375 471.769531 470.695312 473.066406 C 470.53125 474.363281 470.335938 475.652344 470.109375 476.933594 C 469.886719 478.21875 469.628906 479.492188 469.34375 480.757812 C 469.054688 482.023438 468.738281 483.28125 468.394531 484.527344 C 468.046875 485.773438 467.671875 487.011719 467.265625 488.234375 C 466.859375 489.460938 466.425781 490.671875 465.964844 491.871094 C 465.5 493.070312 465.007812 494.253906 464.488281 495.421875 C 463.96875 496.59375 463.417969 497.75 462.84375 498.886719 C 462.269531 500.027344 461.664062 501.148438 461.035156 502.253906 C 460.402344 503.359375 459.746094 504.445312 459.0625 505.515625 C 458.382812 506.582031 457.671875 507.632812 456.9375 508.660156 C 456.203125 509.691406 455.445312 510.699219 454.660156 511.6875 C 453.878906 512.675781 453.070312 513.640625 452.238281 514.585938 C 451.40625 515.527344 450.554688 516.449219 449.675781 517.34375 C 448.800781 518.242188 447.902344 519.117188 446.984375 519.964844 C 446.0625 520.8125 445.121094 521.636719 444.160156 522.433594 C 443.199219 523.234375 442.21875 524.003906 441.21875 524.75 C 440.21875 525.496094 439.199219 526.214844 438.164062 526.90625 C 437.128906 527.597656 436.074219 528.261719 435.003906 528.898438 C 433.933594 529.535156 432.847656 530.140625 431.746094 530.71875 C 430.644531 531.296875 429.527344 531.84375 428.398438 532.363281 C 427.265625 532.882812 426.125 533.371094 424.96875 533.832031 C 423.8125 534.289062 422.644531 534.71875 421.464844 535.117188 C 420.285156 535.515625 419.09375 535.882812 417.894531 536.21875 C 416.695312 536.554688 415.484375 536.859375 414.269531 537.132812 C 413.050781 537.402344 411.824219 537.644531 410.59375 537.855469 C 409.363281 538.0625 408.125 538.242188 406.878906 538.386719 C 405.636719 538.53125 404.390625 538.644531 403.136719 538.722656 C 401.886719 538.804688 400.628906 538.851562 399.371094 538.867188 C 398.113281 538.882812 396.855469 538.867188 395.597656 538.820312 C 394.335938 538.769531 393.074219 538.6875 391.816406 538.574219 C 390.554688 538.460938 389.296875 538.316406 388.042969 538.140625 C 386.785156 537.960938 385.535156 537.75 384.285156 537.507812 C 383.035156 537.269531 381.789062 536.996094 380.550781 536.6875 C 379.308594 536.382812 378.078125 536.046875 376.847656 535.679688 C 375.621094 535.3125 374.402344 534.914062 373.191406 534.484375 C 371.976562 534.054688 370.777344 533.597656 369.582031 533.105469 C 368.390625 532.617188 367.207031 532.097656 366.035156 531.546875 C 364.863281 530.996094 363.703125 530.417969 362.554688 529.8125 C 361.40625 529.203125 360.273438 528.570312 359.152344 527.902344 C 358.03125 527.238281 356.921875 526.546875 355.832031 525.828125 C 354.742188 525.109375 353.664062 524.363281 352.605469 523.589844 C 351.546875 522.816406 350.503906 522.019531 349.480469 521.195312 C 348.457031 520.371094 347.449219 519.523438 346.464844 518.648438 C 345.476562 517.773438 344.507812 516.875 343.5625 515.957031 C 342.613281 515.035156 341.6875 514.089844 340.78125 513.125 C 339.875 512.15625 338.992188 511.171875 338.132812 510.160156 C 337.269531 509.152344 336.433594 508.121094 335.617188 507.074219 C 334.800781 506.023438 334.011719 504.953125 333.242188 503.867188 C 332.476562 502.777344 331.734375 501.671875 331.015625 500.550781 C 330.300781 499.429688 329.609375 498.289062 328.941406 497.132812 C 328.277344 495.976562 327.640625 494.808594 327.027344 493.621094 C 326.414062 492.4375 325.832031 491.238281 325.273438 490.027344 C 324.714844 488.8125 324.1875 487.589844 323.683594 486.355469 C 323.183594 485.117188 322.710938 483.871094 322.269531 482.613281 C 321.824219 481.355469 321.410156 480.089844 321.023438 478.816406 C 320.640625 477.539062 320.28125 476.257812 319.957031 474.96875 C 319.628906 473.675781 319.335938 472.382812 319.070312 471.078125 C 318.804688 469.777344 318.566406 468.46875 318.363281 467.160156 C 318.15625 465.847656 317.984375 464.535156 317.839844 463.21875 C 317.695312 461.902344 317.582031 460.585938 317.5 459.265625 C 317.417969 457.949219 317.367188 456.628906 317.34375 455.3125 C 317.324219 453.996094 317.335938 452.679688 317.378906 451.367188 C 317.417969 450.050781 317.492188 448.742188 317.59375 447.433594 C 317.695312 446.128906 317.832031 444.828125 317.996094 443.53125 C 318.160156 442.234375 318.355469 440.945312 318.582031 439.660156 C 318.808594 438.378906 319.0625 437.101562 319.347656 435.835938 C 319.636719 434.570312 319.953125 433.3125 320.296875 432.066406 C 320.644531 430.820312 321.019531 429.585938 321.425781 428.359375 C 321.832031 427.136719 322.265625 425.925781 322.730469 424.726562 C 323.191406 423.527344 323.683594 422.34375 324.203125 421.171875 C 324.722656 420 325.273438 418.847656 325.847656 417.707031 C 326.425781 416.570312 327.027344 415.445312 327.65625 414.339844 C 328.289062 413.234375 328.945312 412.148438 329.628906 411.082031 C 330.3125 410.011719 331.019531 408.964844 331.753906 407.933594 C 332.488281 406.90625 333.246094 405.894531 334.03125 404.910156 C 334.816406 403.921875 335.621094 402.957031 336.453125 402.011719 C 337.285156 401.066406 338.136719 400.148438 339.015625 399.25 C 339.890625 398.351562 340.789062 397.480469 341.710938 396.632812 C 342.628906 395.78125 343.570312 394.960938 344.53125 394.160156 C 345.492188 393.363281 346.472656 392.589844 347.472656 391.84375 C 348.472656 391.097656 349.492188 390.378906 350.527344 389.6875 C 351.5625 388.996094 352.617188 388.335938 353.6875 387.699219 C 354.757812 387.0625 355.84375 386.457031 356.945312 385.878906 C 358.046875 385.300781 359.164062 384.75 360.292969 384.230469 C 361.425781 383.710938 362.570312 383.222656 363.726562 382.765625 C 364.882812 382.304688 366.050781 381.875 367.230469 381.476562 C 368.410156 381.082031 369.597656 380.714844 370.796875 380.378906 C 372 380.042969 373.207031 379.738281 374.425781 379.464844 C 375.640625 379.191406 376.867188 378.949219 378.097656 378.742188 C 379.332031 378.53125 380.566406 378.355469 381.8125 378.210938 C 383.054688 378.066406 384.304688 377.953125 385.554688 377.871094 C 386.808594 377.792969 388.0625 377.742188 389.320312 377.726562 C 390.578125 377.710938 391.835938 377.726562 393.097656 377.777344 C 394.355469 377.824219 395.617188 377.90625 396.875 378.019531 C 398.136719 378.132812 399.394531 378.28125 400.648438 378.457031 C 401.90625 378.636719 403.160156 378.84375 404.410156 379.085938 C 405.65625 379.328125 406.902344 379.601562 408.140625 379.90625 C 409.382812 380.210938 410.617188 380.546875 411.84375 380.914062 C 413.070312 381.28125 414.289062 381.679688 415.503906 382.109375 C 416.714844 382.539062 417.917969 383 419.109375 383.488281 C 420.304688 383.980469 421.488281 384.5 422.660156 385.046875 C 423.832031 385.597656 424.992188 386.175781 426.136719 386.785156 C 427.285156 387.390625 428.421875 388.027344 429.542969 388.691406 C 430.664062 389.355469 431.769531 390.046875 432.859375 390.765625 C 433.953125 391.488281 435.027344 392.234375 436.085938 393.003906 C 437.144531 393.777344 438.1875 394.578125 439.210938 395.402344 C 440.234375 396.226562 441.242188 397.074219 442.230469 397.949219 C 443.214844 398.820312 444.183594 399.71875 445.128906 400.640625 C 446.078125 401.5625 447.003906 402.503906 447.910156 403.472656 C 448.816406 404.4375 449.699219 405.425781 450.558594 406.433594 C 451.421875 407.445312 452.261719 408.472656 453.074219 409.523438 C 453.890625 410.574219 454.683594 411.640625 455.449219 412.730469 C 456.214844 413.816406 456.957031 414.921875 457.675781 416.042969 C 458.390625 417.167969 459.082031 418.308594 459.75 419.460938 C 460.414062 420.617188 461.054688 421.789062 461.664062 422.972656 C 462.277344 424.160156 462.863281 425.355469 463.417969 426.570312 C 463.976562 427.78125 464.507812 429.003906 465.007812 430.242188 C 465.507812 431.476562 465.980469 432.722656 466.425781 433.980469 C 466.867188 435.238281 467.28125 436.503906 467.667969 437.78125 C 468.054688 439.054688 468.410156 440.339844 468.734375 441.628906 C 469.0625 442.917969 469.359375 444.214844 469.625 445.515625 C 469.890625 446.820312 470.125 448.125 470.328125 449.4375 C 470.535156 450.746094 470.710938 452.058594 470.851562 453.375 C 470.996094 454.691406 471.109375 456.007812 471.191406 457.328125 Z M 471.191406 457.328125 "/><path style=" stroke:none;fill-rule:nonzero;fill:#efe1d4;fill-opacity:1;" d="M 479.332031 436.746094 C 479.699219 437.980469 480.042969 439.226562 480.355469 440.476562 C 480.667969 441.726562 480.953125 442.984375 481.210938 444.25 C 481.46875 445.511719 481.695312 446.78125 481.894531 448.054688 C 482.09375 449.328125 482.261719 450.601562 482.402344 451.882812 C 482.542969 453.160156 482.65625 454.441406 482.738281 455.722656 C 482.820312 457.003906 482.871094 458.285156 482.894531 459.566406 C 482.917969 460.851562 482.914062 462.128906 482.878906 463.410156 C 482.84375 464.6875 482.777344 465.964844 482.683594 467.234375 C 482.589844 468.507812 482.464844 469.777344 482.3125 471.039062 C 482.160156 472.304688 481.980469 473.558594 481.769531 474.8125 C 481.558594 476.0625 481.320312 477.304688 481.050781 478.539062 C 480.78125 479.777344 480.484375 481.003906 480.160156 482.21875 C 479.835938 483.4375 479.480469 484.644531 479.101562 485.839844 C 478.71875 487.035156 478.308594 488.21875 477.875 489.390625 C 477.4375 490.5625 476.972656 491.722656 476.484375 492.867188 C 475.992188 494.011719 475.476562 495.140625 474.929688 496.257812 C 474.386719 497.375 473.820312 498.472656 473.222656 499.554688 C 472.628906 500.636719 472.007812 501.703125 471.359375 502.75 C 470.714844 503.800781 470.046875 504.828125 469.351562 505.839844 C 468.65625 506.847656 467.9375 507.839844 467.195312 508.808594 C 466.457031 509.78125 465.691406 510.730469 464.90625 511.65625 C 464.117188 512.585938 463.308594 513.492188 462.480469 514.375 C 461.648438 515.257812 460.800781 516.117188 459.929688 516.953125 C 459.054688 517.792969 458.164062 518.605469 457.253906 519.390625 C 456.34375 520.179688 455.414062 520.945312 454.46875 521.679688 C 453.519531 522.417969 452.554688 523.128906 451.570312 523.816406 C 450.589844 524.5 449.589844 525.160156 448.574219 525.789062 C 447.5625 526.421875 446.53125 527.023438 445.488281 527.601562 C 444.441406 528.175781 443.382812 528.722656 442.3125 529.242188 C 441.238281 529.761719 440.152344 530.25 439.058594 530.710938 C 437.960938 531.171875 436.851562 531.601562 435.730469 532.003906 C 434.613281 532.40625 433.484375 532.777344 432.34375 533.117188 C 431.207031 533.460938 430.058594 533.769531 428.902344 534.050781 C 427.746094 534.328125 426.585938 534.578125 425.414062 534.796875 C 424.246094 535.015625 423.070312 535.203125 421.890625 535.359375 C 420.707031 535.515625 419.523438 535.640625 418.335938 535.734375 C 417.144531 535.824219 415.953125 535.886719 414.757812 535.917969 C 413.5625 535.949219 412.367188 535.949219 411.171875 535.917969 C 409.972656 535.882812 408.777344 535.820312 407.578125 535.722656 C 406.382812 535.628906 405.1875 535.503906 403.992188 535.34375 C 402.800781 535.1875 401.609375 534.996094 400.421875 534.777344 C 399.234375 534.558594 398.050781 534.308594 396.871094 534.023438 C 395.691406 533.742188 394.519531 533.429688 393.351562 533.085938 C 392.1875 532.746094 391.027344 532.371094 389.875 531.96875 C 388.722656 531.566406 387.578125 531.132812 386.441406 530.667969 C 385.308594 530.207031 384.183594 529.714844 383.066406 529.195312 C 381.953125 528.675781 380.847656 528.125 379.757812 527.550781 C 378.664062 526.972656 377.585938 526.367188 376.515625 525.734375 C 375.449219 525.101562 374.398438 524.441406 373.359375 523.753906 C 372.320312 523.066406 371.296875 522.355469 370.289062 521.617188 C 369.277344 520.875 368.289062 520.113281 367.3125 519.320312 C 366.335938 518.53125 365.378906 517.71875 364.4375 516.878906 C 363.496094 516.042969 362.574219 515.179688 361.671875 514.296875 C 360.769531 513.410156 359.886719 512.503906 359.023438 511.574219 C 358.160156 510.644531 357.320312 509.695312 356.496094 508.722656 C 355.675781 507.75 354.875 506.757812 354.097656 505.746094 C 353.320312 504.734375 352.566406 503.707031 351.835938 502.65625 C 351.101562 501.609375 350.394531 500.542969 349.710938 499.457031 C 349.027344 498.375 348.367188 497.273438 347.730469 496.15625 C 347.09375 495.042969 346.484375 493.910156 345.898438 492.765625 C 345.3125 491.617188 344.753906 490.460938 344.222656 489.285156 C 343.6875 488.113281 343.183594 486.929688 342.703125 485.734375 C 342.222656 484.535156 341.769531 483.328125 341.34375 482.109375 C 340.917969 480.894531 340.523438 479.667969 340.152344 478.429688 C 339.78125 477.195312 339.441406 475.949219 339.125 474.699219 C 338.8125 473.449219 338.527344 472.191406 338.269531 470.925781 C 338.015625 469.664062 337.789062 468.394531 337.589844 467.121094 C 337.390625 465.847656 337.21875 464.574219 337.078125 463.292969 C 336.9375 462.015625 336.828125 460.734375 336.746094 459.453125 C 336.664062 458.171875 336.609375 456.890625 336.585938 455.605469 C 336.5625 454.324219 336.570312 453.042969 336.605469 451.765625 C 336.640625 450.488281 336.707031 449.210938 336.800781 447.9375 C 336.894531 446.667969 337.015625 445.398438 337.167969 444.136719 C 337.320312 442.871094 337.503906 441.617188 337.714844 440.363281 C 337.925781 439.113281 338.164062 437.871094 338.433594 436.632812 C 338.699219 435.398438 338.996094 434.171875 339.320312 432.953125 C 339.648438 431.738281 340 430.53125 340.382812 429.335938 C 340.761719 428.140625 341.171875 426.957031 341.609375 425.785156 C 342.042969 424.613281 342.507812 423.453125 343 422.308594 C 343.488281 421.164062 344.007812 420.03125 344.550781 418.917969 C 345.09375 417.800781 345.664062 416.703125 346.257812 415.621094 C 346.855469 414.539062 347.476562 413.472656 348.121094 412.425781 C 348.765625 411.375 349.4375 410.347656 350.132812 409.335938 C 350.824219 408.328125 351.542969 407.335938 352.285156 406.367188 C 353.027344 405.394531 353.789062 404.445312 354.578125 403.519531 C 355.363281 402.589844 356.171875 401.683594 357.003906 400.800781 C 357.832031 399.917969 358.683594 399.058594 359.554688 398.21875 C 360.425781 397.382812 361.316406 396.570312 362.226562 395.78125 C 363.136719 394.996094 364.066406 394.230469 365.015625 393.496094 C 365.960938 392.757812 366.929688 392.046875 367.910156 391.359375 C 368.894531 390.675781 369.890625 390.015625 370.90625 389.386719 C 371.921875 388.753906 372.949219 388.152344 373.996094 387.574219 C 375.039062 387 376.097656 386.453125 377.171875 385.933594 C 378.242188 385.414062 379.328125 384.925781 380.425781 384.464844 C 381.523438 384.003906 382.632812 383.574219 383.75 383.171875 C 384.871094 382.769531 386 382.398438 387.136719 382.058594 C 388.277344 381.714844 389.421875 381.40625 390.578125 381.125 C 391.734375 380.847656 392.898438 380.597656 394.066406 380.378906 C 395.238281 380.160156 396.410156 379.972656 397.59375 379.816406 C 398.773438 379.660156 399.957031 379.535156 401.148438 379.441406 C 402.335938 379.347656 403.527344 379.289062 404.722656 379.257812 C 405.917969 379.226562 407.113281 379.226562 408.3125 379.257812 C 409.507812 379.292969 410.707031 379.355469 411.902344 379.449219 C 413.097656 379.546875 414.296875 379.671875 415.488281 379.832031 C 416.683594 379.988281 417.875 380.179688 419.0625 380.398438 C 420.25 380.617188 421.429688 380.871094 422.609375 381.152344 C 423.789062 381.433594 424.960938 381.746094 426.128906 382.089844 C 427.296875 382.429688 428.457031 382.804688 429.609375 383.207031 C 430.761719 383.609375 431.90625 384.042969 433.039062 384.503906 C 434.175781 384.96875 435.300781 385.460938 436.414062 385.980469 C 437.53125 386.5 438.632812 387.050781 439.726562 387.625 C 440.820312 388.203125 441.898438 388.808594 442.964844 389.441406 C 444.03125 390.074219 445.085938 390.734375 446.125 391.421875 C 447.164062 392.109375 448.1875 392.820312 449.195312 393.558594 C 450.203125 394.300781 451.195312 395.0625 452.171875 395.851562 C 453.144531 396.644531 454.105469 397.457031 455.042969 398.296875 C 455.984375 399.132812 456.90625 399.996094 457.808594 400.878906 C 458.710938 401.765625 459.59375 402.671875 460.457031 403.601562 C 461.320312 404.53125 462.164062 405.480469 462.984375 406.453125 C 463.804688 407.425781 464.605469 408.417969 465.382812 409.425781 C 466.160156 410.4375 466.914062 411.46875 467.648438 412.519531 C 468.378906 413.566406 469.085938 414.632812 469.773438 415.71875 C 470.457031 416.800781 471.117188 417.902344 471.753906 419.019531 C 472.386719 420.132812 473 421.265625 473.582031 422.410156 C 474.167969 423.554688 474.726562 424.714844 475.261719 425.886719 C 475.792969 427.0625 476.300781 428.246094 476.78125 429.441406 C 477.257812 430.640625 477.710938 431.847656 478.136719 433.066406 C 478.5625 434.28125 478.960938 435.507812 479.332031 436.746094 Z M 479.332031 436.746094 "/><path style=" stroke:none;fill-rule:nonzero;fill:#ead8c8;fill-opacity:1;" d="M 416.5 455.5625 C 416.644531 456.042969 416.746094 456.535156 416.800781 457.035156 C 416.855469 457.53125 416.863281 458.027344 416.828125 458.523438 C 416.792969 459.019531 416.710938 459.507812 416.582031 459.980469 C 416.457031 460.457031 416.285156 460.910156 416.074219 461.34375 C 415.863281 461.777344 415.613281 462.1875 415.324219 462.5625 C 415.035156 462.941406 414.710938 463.285156 414.355469 463.59375 C 414.003906 463.898438 413.621094 464.164062 413.214844 464.390625 C 412.808594 464.613281 412.382812 464.792969 411.9375 464.925781 C 411.492188 465.058594 411.039062 465.144531 410.578125 465.179688 C 410.113281 465.214844 409.648438 465.203125 409.183594 465.140625 C 408.71875 465.082031 408.261719 464.972656 407.8125 464.8125 C 407.363281 464.65625 406.929688 464.453125 406.511719 464.207031 C 406.097656 463.960938 405.707031 463.675781 405.339844 463.347656 C 404.972656 463.019531 404.636719 462.660156 404.335938 462.265625 C 404.03125 461.871094 403.765625 461.453125 403.539062 461.003906 C 403.3125 460.558594 403.125 460.09375 402.980469 459.613281 C 402.835938 459.128906 402.738281 458.640625 402.683594 458.140625 C 402.628906 457.644531 402.617188 457.148438 402.65625 456.652344 C 402.691406 456.15625 402.773438 455.667969 402.898438 455.195312 C 403.027344 454.71875 403.195312 454.265625 403.40625 453.832031 C 403.621094 453.394531 403.871094 452.988281 404.160156 452.613281 C 404.449219 452.234375 404.769531 451.890625 405.125 451.582031 C 405.480469 451.277344 405.859375 451.011719 406.269531 450.785156 C 406.675781 450.5625 407.101562 450.382812 407.546875 450.25 C 407.988281 450.117188 408.441406 450.03125 408.90625 449.996094 C 409.371094 449.960938 409.835938 449.972656 410.300781 450.035156 C 410.765625 450.09375 411.222656 450.203125 411.671875 450.363281 C 412.121094 450.519531 412.554688 450.71875 412.96875 450.96875 C 413.382812 451.214844 413.777344 451.5 414.140625 451.828125 C 414.507812 452.152344 414.84375 452.515625 415.148438 452.910156 C 415.449219 453.304688 415.714844 453.722656 415.945312 454.171875 C 416.171875 454.617188 416.359375 455.082031 416.5 455.5625 Z M 416.5 455.5625 "/><path style=" stroke:none;fill-rule:nonzero;fill:#ead8c8;fill-opacity:1;" d="M 406.316406 455.230469 C 405 452.632812 401.527344 434.066406 401.527344 434.066406 C 401.527344 434.066406 405.75 449.289062 408.308594 452.300781 C 410.867188 455.316406 406.316406 455.230469 406.316406 455.230469 Z M 406.316406 455.230469 "/><path style=" stroke:none;fill-rule:nonzero;fill:#ead8c8;fill-opacity:1;" d="M 411.84375 458.738281 C 413.160156 461.335938 416.632812 479.902344 416.632812 479.902344 C 416.632812 479.902344 412.40625 464.679688 409.851562 461.667969 C 407.292969 458.652344 411.84375 458.738281 411.84375 458.738281 Z M 411.84375 458.738281 "/><path style=" stroke:none;fill-rule:nonzero;fill:#ead8c8;fill-opacity:1;" d="M 410.933594 454.9375 C 413.53125 453.621094 432.089844 450.148438 432.089844 450.148438 C 432.089844 450.148438 416.875 454.375 413.863281 456.933594 C 410.851562 459.488281 410.933594 454.9375 410.933594 454.9375 Z M 410.933594 454.9375 "/><path style=" stroke:none;fill-rule:nonzero;fill:#ead8c8;fill-opacity:1;" d="M 407.429688 460.46875 C 404.832031 461.785156 386.273438 465.257812 386.273438 465.257812 C 386.273438 465.257812 401.488281 461.03125 404.503906 458.472656 C 407.515625 455.914062 407.429688 460.46875 407.429688 460.46875 Z M 407.429688 460.46875 "/></g></svg>